<?xml version="1.0" encoding="UTF-8" standalone="no"?>
<!-- Created with Inkscape (http://www.inkscape.org/) -->

<svg
   xmlns:dc="http://purl.org/dc/elements/1.1/"
   xmlns:cc="http://creativecommons.org/ns#"
   xmlns:rdf="http://www.w3.org/1999/02/22-rdf-syntax-ns#"
   xmlns:svg="http://www.w3.org/2000/svg"
   xmlns="http://www.w3.org/2000/svg"
   xmlns:xlink="http://www.w3.org/1999/xlink"
   xmlns:sodipodi="http://sodipodi.sourceforge.net/DTD/sodipodi-0.dtd"
   xmlns:inkscape="http://www.inkscape.org/namespaces/inkscape"
   width="280"
   height="120"
   viewBox="0 0 74.083331 31.750001"
   version="1.1"
   id="svg15497"
   inkscape:version="0.92.2 5c3e80d, 2017-08-06"
   sodipodi:docname="r4svg.svg">
  <defs
     id="defs15491">
    <linearGradient
       inkscape:collect="always"
       xlink:href="#gradient264"
       id="linearGradient15551"
       gradientUnits="userSpaceOnUse"
       gradientTransform="matrix(0,0.00150185,-0.00272916,0,12.58094,278.29391)"
       x1="-819.20001"
       x2="819.20001"
       spreadMethod="pad" />
    <linearGradient
       gradientUnits="userSpaceOnUse"
       x1="-819.20001"
       x2="819.20001"
       spreadMethod="pad"
       gradientTransform="matrix(0,0.00567627,-0.01031494,0,1347.55,1419.3)"
       id="gradient264">
      <stop
         offset="0"
         stop-color="#FFCC00"
         id="stop1330" />
      <stop
         offset="1"
         stop-color="#FF9900"
         id="stop1332" />
    </linearGradient>
  </defs>
  <sodipodi:namedview
     id="base"
     pagecolor="#ffffff"
     bordercolor="#666666"
     borderopacity="1.0"
     inkscape:pageopacity="0.0"
     inkscape:pageshadow="2"
     inkscape:zoom="5"
     inkscape:cx="73.483588"
     inkscape:cy="77.999994"
     inkscape:document-units="mm"
     inkscape:current-layer="layer1"
     showgrid="false"
     units="px"
     inkscape:window-width="1920"
     inkscape:window-height="1103"
     inkscape:window-x="0"
     inkscape:window-y="1"
     inkscape:window-maximized="1" />
  <metadata
     id="metadata15494">
    <rdf:RDF>
      <cc:Work
         rdf:about="">
        <dc:format>image/svg+xml</dc:format>
        <dc:type
           rdf:resource="http://purl.org/dc/dcmitype/StillImage" />
        <dc:title></dc:title>
      </cc:Work>
    </rdf:RDF>
  </metadata>
  <g
     inkscape:label="Layer 1"
     inkscape:groupmode="layer"
     id="layer1"
     transform="translate(0,-265.24999)">
    <g
       id="g131"
       transform="translate(2.645805,2.64583)">
      <path
         style="fill:#e5d5b2;stroke:none;stroke-width:0.26458332"
         inkscape:connector-curvature="0"
         d="m 29.64661,279.12739 q 0.89958,0.51593 1.94468,0.88635 l -3.08239,5.27844 -0.23813,-0.74083 -0.0132,0.0132 q -0.96572,-3.91584 -4.14072,-6.12511 -1.61396,-1.12448 -3.78355,-1.79917 -0.99218,-0.25135 -1.86531,-0.635 l -1.0451,-0.52916 q -3.58511,-2.06375 -5.05354,-6.82625 l -0.0132,0.0132 q -0.64829,-2.63261 -2.30194,-4.49792 h 5.82083 l 0.78053,0.2249 q 0.9525,0.30427 1.81239,0.70114 4.89479,2.2225 6.15156,7.28927 l 0.0132,-0.0132 q 1.24354,3.99521 3.98198,6.07219 l 1.03188,0.68792 m -0.29104,-3.77032 0.1852,1.15094 -1.15093,0.18521 -0.18521,-1.15094 1.15094,-0.18521 m -5.66209,8.20209 -0.82021,-0.11906 0.10584,-0.83344 0.83343,0.10583 -0.11906,0.84667 m 1.95792,-0.19844 0.48948,1.05833 -1.05834,0.46302 -0.48947,-1.05833 1.05833,-0.46302 m -1.03188,4.90802 0.0132,-0.0132 q 0.37042,1.19063 0.8599,2.20927 l -0.87313,1.4949 v -0.0132 q -0.19843,0.35719 -0.56885,0.58208 -0.37042,0.21167 -0.79375,0.21167 h -2.30188 l -0.62177,-0.21167 q -0.99218,-0.23812 -1.86531,-0.635 l -1.0451,-0.52916 q -3.58511,-2.06375 -5.05354,-6.81303 l -0.0132,0.0132 q -0.96573,-3.91583 -4.1275,-6.1251 Q 6.6146,277.31499 4.43179,276.6403 3.4396,276.38895 2.5797,276.0053 l -1.0451,-0.52916 -0.44979,-0.26459 4.66989,-8.01687 q 2.18281,2.03729 2.96334,5.18583 l 0.0132,-0.0132 q 1.24355,3.99521 3.98198,6.07219 l 1.03188,0.68792 q 1.30969,0.75406 2.91042,1.16416 0.9525,0.29105 1.81239,0.68792 4.89479,2.2225 6.15156,7.28927 m -2.6326,-23.24364 0.23812,0.52916 -0.54239,0.2249 -0.25136,-0.52917 0.55563,-0.22489 m 0.75406,1.15093 0.99219,-0.7276 0.74083,0.99219 -0.99218,0.75406 -0.74084,-1.01865 m 1.48167,2.92365 -0.68792,-0.84667 0.8599,-0.68791 0.68791,0.85989 -0.85989,0.67469 m -13.62604,1.71979 -1.07157,-0.26458 0.26459,-1.07156 1.05833,0.26458 -0.25135,1.07156 m 0.39687,0.0529 1.77271,0.93927 -0.93927,1.74625 -1.75948,-0.9525 0.92604,-1.73302 m 4.25979,21.66937 -1.73302,-0.19843 0.19844,-1.73303 1.74625,0.19844 -0.21167,1.73302 m -3.65125,-5.78114 -0.76729,-0.33073 0.3175,-0.76729 0.78052,0.3175 -0.33073,0.78052 m -1.29645,-1.11125 v 1.21708 H 9.10166 v -1.20385 l 1.20386,-0.0132 m -1.5875,2.61937 0.0132,-0.0132 q 0.83344,2.67229 2.32834,4.48469 H 8.42695 q -0.4101,0 -0.78052,-0.21167 -0.37041,-0.22489 -0.58208,-0.58208 v 0.0132 l -6.90563,-11.8401 0.60855,0.17197 q 0.9525,0.29105 1.81239,0.68792 4.88156,2.2225 6.13834,7.28927 m 9.3927,-11.35062 v 1.21708 h -1.20385 v -1.20385 l 1.20385,-0.0132 m -2.77812,0.99218 -1.85208,0.27782 -0.29105,-1.87855 1.85209,-0.27781 0.29104,1.87854 m -5.15938,4.9874 -0.64823,1.62719 -1.61395,-0.64823 0.635,-1.62719 1.62718,0.64823 m -3.78354,-3.57188 -0.51594,-0.30427 0.26459,-0.50271 0.51594,0.27782 -0.26459,0.52916 m -4.45823,0.38365 -0.48948,-1.05833 1.05834,-0.46302 0.48948,1.05833 -1.05834,0.46302"
         id="path15499" />
      <path
         style="fill:#ecdcb8;stroke:none;stroke-width:0.26458332"
         inkscape:connector-curvature="0"
         d="m 1.957945,279.73593 1.05834,-0.46302 -0.48948,-1.05833 -1.05834,0.46302 0.48948,1.05833 m 27.71511,-0.58208 -1.03188,-0.68792 q -2.73844,-2.07698 -3.98198,-6.07219 l -0.0132,0.0132 q -1.25677,-5.06677 -6.15156,-7.28927 -0.85989,-0.39687 -1.81239,-0.70114 l -0.78056,-0.2249 h -5.82083 q 1.65365,1.86531 2.30188,4.49792 l 0.0132,-0.0132 q 1.46843,4.7625 5.05354,6.82625 l 1.0451,0.52916 q 0.87313,0.38365 1.86531,0.635 2.16959,0.67469 3.78355,1.79917 3.175,2.20927 4.14072,6.1251 l 0.0132,-0.0132 0.23813,0.74084 3.08239,-5.27844 q -1.0451,-0.37042 -1.94468,-0.88635 m -1.70657,-11.69459 4.24657,7.27604 v 0.0132 l 2.18281,3.73063 -9.26042,15.875 H 6.614555 l -9.26036,-15.875 9.26042,-15.875 h 18.52083 l 2.65907,4.56406 0.0132,0.0132 v 0.0132 l 0.15875,0.26458 m -2.28864,15.92792 -1.05833,0.46302 0.48947,1.05833 1.05834,-0.46302 -0.48948,-1.05833 m -1.95792,0.19844 0.11906,-0.84667 -0.83343,-0.10583 -0.10584,0.83344 0.82021,0.11906 m 5.66209,-8.20209 -1.15094,0.18521 0.18521,1.15094 1.15093,-0.18521 -0.1852,-1.15094 m -4.73605,12.91167 q -1.25677,-5.06677 -6.15156,-7.28927 -0.85989,-0.39687 -1.81239,-0.68792 -1.60073,-0.4101 -2.91042,-1.16416 l -1.03188,-0.68792 q -2.73843,-2.07698 -3.98198,-6.07219 l -0.0132,0.0132 q -0.78053,-3.14854 -2.96334,-5.18583 l -4.66989,8.01687 0.44979,0.26459 1.0451,0.52916 q 0.8599,0.38365 1.85209,0.635 2.18281,0.67469 3.79677,1.79917 3.16177,2.20927 4.1275,6.1251 l 0.0132,-0.0132 q 1.46843,4.74928 5.05354,6.81303 l 1.0451,0.52916 q 0.87313,0.39688 1.86531,0.635 l 0.6218,0.21167 h 2.30188 q 0.42333,0 0.79375,-0.21167 0.37042,-0.22489 0.56885,-0.58208 v 0.0132 l 0.87313,-1.4949 q -0.48948,-1.01864 -0.8599,-2.20927 l -0.0132,0.0132 m -14.31395,-2.61937 -1.20386,0.0132 v 1.20385 h 1.20386 v -1.21708 m 1.29645,1.11125 0.33073,-0.78052 -0.78052,-0.3175 -0.3175,0.76729 0.76729,0.33073 m 3.65125,5.78114 0.21167,-1.73302 -1.74625,-0.19843 -0.19844,1.73302 1.73302,0.19843 m -4.25979,-21.66937 -0.92604,1.73302 1.75948,0.9525 0.93927,-1.74625 -1.77271,-0.93927 m -0.39687,-0.0529 0.25135,-1.07156 -1.05833,-0.26458 -0.26459,1.07156 1.07157,0.26458 m 13.62604,-1.71979 0.85989,-0.67469 -0.68791,-0.85989 -0.8599,0.68791 0.68792,0.84667 m -1.48167,-2.92365 0.74084,1.01865 0.99218,-0.75406 -0.74083,-0.99219 -0.99219,0.7276 m -0.75406,-1.15093 -0.55563,0.22489 0.25136,0.52917 0.54239,-0.2249 -0.23812,-0.52916 m -13.26885,23.24364 q -1.25678,-5.06677 -6.13834,-7.28927 -0.85989,-0.39687 -1.81239,-0.68791 l -0.60855,-0.17198 6.90563,11.8401 v -0.0132 q 0.21167,0.35719 0.58208,0.58208 0.37042,0.21167 0.78052,0.21167 h 2.63261 q -1.4949,-1.8124 -2.32834,-4.48469 l -0.0132,0.0132 m -2.32834,-8.94291 0.26459,-0.52917 -0.51594,-0.27781 -0.26459,0.5027 0.51594,0.30428 m 3.78354,3.57187 -1.62718,-0.64823 -0.635,1.62719 1.61395,0.64823 0.64818,-1.62719 m 5.15938,-4.9874 -0.29104,-1.87854 -1.85209,0.27781 0.29105,1.87855 1.85208,-0.27782 m 2.77812,-0.99218 -1.20385,0.0132 v 1.20385 h 1.20385 v -1.21708"
         id="path15501" />
      <path
         style="fill:#e0d1af;stroke:none;stroke-width:0.26458332"
         inkscape:connector-curvature="0"
         d="m 4.63682,266.32814 0.15875,0.27781 -0.15875,-0.26458 v -0.0132"
         id="path15503" />
      <path
         style="fill:#855b30;stroke:none;stroke-width:0.26458332"
         inkscape:connector-curvature="0"
         d="m 20.17448,268.82183 -1.27,0.2249 -1.21708,0.39687 -0.11907,1.34938 1.86532,1.75948 2.35479,-0.71438 -0.52917,-2.98979 -1.08479,-0.0265 m 0.0132,-0.52916 1.08479,0.0264 q 0.18521,0 0.33073,0.1323 0.14552,0.11906 0.18521,0.30427 l 0.52916,2.98979 q 0.0265,0.19844 -0.0794,0.37041 l -0.29104,0.23813 -2.35479,0.71437 h -0.27781 q -0.14552,-0.0397 -0.23813,-0.13229 l -1.86531,-1.75948 -0.13229,-0.19843 -0.0397,-0.2249 0.11906,-1.34937 q 0.0132,-0.17198 0.11906,-0.29105 0.0926,-0.11906 0.25136,-0.17198 l 1.21708,-0.39687 0.0661,-0.0132 1.27,-0.2249 0.10583,-0.0132"
         id="path15505" />
      <path
         style="fill:#af783f;stroke:none;stroke-width:0.26458332"
         inkscape:connector-curvature="0"
         d="m 20.17448,268.82183 1.08479,0.0265 0.52917,2.98979 -1.38907,-1.78594 -0.22489,-1.23031 m -2.60615,1.97115 0.11907,-1.34938 1.21708,-0.39687 -0.0265,0.26458 -1.30969,1.48167"
         id="path15507" />
      <path
         style="fill:#bb8044;stroke:none;stroke-width:0.26458332"
         inkscape:connector-curvature="0"
         d="m 18.87804,269.2716 1.48167,1.30969 0.26458,0.0265 0.2249,1.27 -1.23031,0.2249 -0.17198,-0.55563 -2.32834,-0.4101 1.75948,-1.86532"
         id="path15509" />
      <path
         style="fill:#cd8c4a;stroke:none;stroke-width:0.26458332"
         inkscape:connector-curvature="0"
         d="m 21.78844,271.83808 -2.35479,0.71438 0.4101,-2.32834 0.55562,-0.17198 1.38907,1.78594"
         id="path15511" />
      <path
         style="fill:#726a59;stroke:none;stroke-width:0.26458332"
         inkscape:connector-curvature="0"
         d="m 12.97781,276.44183 4.86834,0.13229 2.61937,-3.06916 -4.89479,-7.80521 -4.89479,7.52739 2.30187,3.21469 m 2.42094,-11.24479 0.35719,0.0132 q 0.17198,0.0529 0.26458,0.21167 l 4.89479,7.8052 q 0.0926,0.14553 0.0794,0.3175 -0.0132,0.17198 -0.11906,0.30428 l -2.61938,3.06916 -0.19843,0.14552 -0.2249,0.0397 -4.86833,-0.13229 -0.2249,-0.0529 -0.18521,-0.15875 -2.30187,-3.21469 q -0.10583,-0.14552 -0.10583,-0.30427 0,-0.15875 0.0926,-0.30427 l 4.89479,-7.52739 q 0.0926,-0.15875 0.26458,-0.21167"
         id="path15513" />
      <path
         style="fill:#ecdcb8;stroke:none;stroke-width:0.26458332"
         inkscape:connector-curvature="0"
         d="m 15.425215,272.27464 q -0.3175,0 -0.5424,0.21167 -0.21166,0.2249 -0.21166,0.5424 v 1.70656 q 0,0.3175 0.21166,0.52917 0.2249,0.22489 0.5424,0.22489 0.30427,0 0.51594,-0.22489 0.23811,-0.21167 0.23811,-0.52917 v -1.70656 q 0,-0.3175 -0.23811,-0.5424 -0.21167,-0.21167 -0.51594,-0.21167 m 2.42094,4.29948 -4.86835,-0.13229 2.59293,-10.74208 2.27542,10.87437"
         id="path15515" />
      <path
         style="fill:#9c9179;stroke:none;stroke-width:0.26458332"
         inkscape:connector-curvature="0"
         d="m 17.032555,273.88199 q 0,0.30427 -0.21167,0.51594 -0.2249,0.23812 -0.5424,0.23812 h -1.70656 q -0.3175,0 -0.52917,-0.23812 -0.22489,-0.21167 -0.22489,-0.51594 0,-0.3175 0.22489,-0.5424 0.21167,-0.21166 0.52917,-0.21166 h 1.70656 q 0.3175,0 0.5424,0.21166 0.21167,0.2249 0.21167,0.5424"
         id="path15517" />
      <path
         style="fill:#cbbd9e;stroke:none;stroke-width:0.26458332"
         inkscape:connector-curvature="0"
         d="m 12.97781,276.44183 -2.30187,-3.21469 4.89479,-7.5274 4.89479,7.80522 -2.61937,3.06915 -2.27542,-10.87437 -2.59292,10.74209"
         id="path15519" />
      <path
         style="fill:#726a59;stroke:none;stroke-width:0.26458332"
         inkscape:connector-curvature="0"
         d="m 28.33687,283.45329 q 0.0926,0.14552 0.0794,0.3175 -0.0132,0.17198 -0.11906,0.30427 l -2.61937,3.06917 -0.19844,0.14552 -0.2249,0.0397 -4.86833,-0.1323 -0.2249,-0.0529 -0.1852,-0.15875 -2.30188,-3.21469 q -0.10583,-0.14552 -0.10583,-0.30427 0,-0.15875 0.0926,-0.30427 l 4.89479,-7.5274 q 0.0926,-0.15875 0.26458,-0.21166 l 0.35719,0.0132 q 0.17198,0.0529 0.26458,0.21166 l 4.8948,7.80521 m -3.06917,3.34698 2.61937,-3.06917 -4.89479,-7.80521 -4.89479,7.5274 2.30188,3.21469 4.86833,0.13229"
         id="path15521" />
      <path
         style="fill:#cbbd9e;stroke:none;stroke-width:0.26458332"
         inkscape:connector-curvature="0"
         d="m 25.26771,286.80027 -2.27542,-10.87438 -2.59292,10.74209 -2.30187,-3.21469 4.89479,-7.5274 4.89479,7.80521 -2.61937,3.06917"
         id="path15523" />
      <path
         style="fill:#ecdcb8;stroke:none;stroke-width:0.26458332"
         inkscape:connector-curvature="0"
         d="m 25.26771,286.80027 -4.86834,-0.13229 2.59292,-10.74209 2.27542,10.87438"
         id="path15525" />
      <path
         style="fill:#000000;fill-opacity:0.10196078;stroke:none;stroke-width:0.26458332"
         inkscape:connector-curvature="0"
         d="m 10.78177,279.21996 q 0.67469,-0.42334 1.62719,-0.42334 0.9525,0 1.62719,0.42334 0.67468,0.42333 0.67468,1.03187 0,0.60854 -0.67468,1.03188 -0.67469,0.42333 -1.62719,0.42333 -0.9525,0 -1.62719,-0.42333 -0.67469,-0.42334 -0.67469,-1.03188 0,-0.60854 0.67469,-1.03187"
         id="path15527" />
      <path
         style="fill:#ffad00;stroke:none;stroke-width:0.26458332"
         inkscape:connector-curvature="0"
         d="m 12.858745,274.69558 -0.52917,-0.52917 0.51594,-0.51594 0.52917,0.52917 -0.51594,0.51594 m -1.23031,-1.65364 0.54239,0.14551 -0.14552,0.55562 -0.54239,-0.14552 0.14552,-0.55561"
         id="path15529" />
      <path
         style="fill:#db8300;stroke:none;stroke-width:0.26458332"
         inkscape:connector-curvature="0"
         d="m 10.82146,278.29391 q 0,-0.17198 0.10583,-0.30428 l 0.55563,-0.78052 v -1.15093 q 0,-0.2249 0.15875,-0.37042 0.14552,-0.15875 0.37041,-0.15875 h 0.47625 l 0.26459,0.0794 q 0.11906,0.0661 0.19843,0.18521 l 0.87313,1.52136 0.0662,0.26458 v 1.29646 l 0.3175,0.37042 q 0.13229,0.14552 0.13229,0.33072 0,0.18521 -0.10583,0.34396 l -0.74084,0.93927 -0.1852,0.14552 -0.23813,0.0529 h -0.91281 q -0.19844,0 -0.34396,-0.13229 l -0.80698,-0.71438 -0.13229,-0.17197 -0.0529,-0.2249 v -1.52135 m 1.66687,-2.23573 h -0.47625 v 1.32291 l -0.66145,0.91282 v 1.52135 l 0.80697,0.71437 h 0.91282 l 0.74083,-0.93927 -0.44979,-0.51593 v -1.4949 l -0.87313,-1.52135"
         id="path15531" />
      <path
         inkscape:connector-curvature="0"
         style="fill:url(#linearGradient15551);stroke:none;stroke-width:0.26458332"
         d="m 12.48833,276.05819 0.87313,1.52135 v 1.4949 l 0.44979,0.51593 -0.74083,0.93927 H 12.1576 l -0.80698,-0.71437 v -1.52135 l 0.66146,-0.91282 v -1.32291 h 0.47625"
         id="path15533" />
      <path
         style="fill:#855b30;stroke:none;stroke-width:0.26458332"
         inkscape:connector-curvature="0"
         d="m 3.0824,285.23923 q 0.0926,-0.11906 0.25135,-0.17198 l 1.21708,-0.39688 0.0661,-0.0132 1.27,-0.22489 0.10583,-0.0132 1.08479,0.0265 q 0.18521,0 0.33073,0.13229 0.14552,0.11906 0.18521,0.30427 l 0.52917,2.98979 q 0.0265,0.19844 -0.0794,0.37042 l -0.29104,0.23802 -2.35479,0.71438 H 5.11962 l -0.23813,-0.13229 -1.86531,-1.75948 -0.13229,-0.19844 -0.0397,-0.2249 0.11906,-1.34937 q 0.0132,-0.17198 0.11907,-0.29104 m 1.62718,-0.0661 -1.21708,0.39688 -0.11906,1.34937 1.86531,1.75948 2.35479,-0.71437 -0.52917,-2.9898 -1.08479,-0.0265 -1.27,0.22489"
         id="path15535" />
      <path
         style="fill:#af783f;stroke:none;stroke-width:0.26458332"
         inkscape:connector-curvature="0"
         d="m 4.70958,285.17308 -0.0265,0.26459 -1.30969,1.48166 0.11906,-1.34937 1.21708,-0.39688 m 1.4949,1.00542 -0.2249,-1.23031 1.0848,0.0265 0.52916,2.9898 -1.38906,-1.78594"
         id="path15537" />
      <path
         style="fill:#bb8044;stroke:none;stroke-width:0.26458332"
         inkscape:connector-curvature="0"
         d="m 6.20448,286.1785 -0.55563,0.17198 -0.4101,2.32833 -1.86531,-1.75948 1.30968,-1.48166 0.0265,-0.26459 1.27,-0.22489 0.2249,1.23031"
         id="path15539" />
      <path
         style="fill:#cd8c4a;stroke:none;stroke-width:0.26458332"
         inkscape:connector-curvature="0"
         d="m 6.20448,286.1785 1.38906,1.78594 -2.35479,0.71437 0.4101,-2.32833 0.55563,-0.17198"
         id="path15541" />
      <path
         style="fill:#000000;fill-opacity:0.10196078;stroke:none;stroke-width:0.26458332"
         inkscape:connector-curvature="0"
         d="m 4.23333,275.8333 q 0,-0.5424 0.67469,-0.93927 0.67469,-0.38365 1.62719,-0.38365 0.95249,0 1.62718,0.38365 0.67469,0.39687 0.67469,0.93927 0,0.5424 -0.67469,0.92604 -0.67469,0.39688 -1.62718,0.39688 -0.9525,0 -1.62719,-0.39688 -0.67469,-0.38364 -0.67469,-0.92604"
         id="path15543" />
      <path
         style="fill:#1a7741;stroke:none;stroke-width:0.26458332"
         inkscape:connector-curvature="0"
         d="m 5.556235,273.99445 v 1.29645 q 0,0.25136 0.26458,0.42334 0.26459,0.17198 0.64824,0.17198 0.37041,0 0.635,-0.17198 0.26459,-0.17198 0.26459,-0.42334 v -2.02406 h 0.22489 q 0.47625,0 0.80697,-0.33073 h 0.0132 q 0.33072,-0.34396 0.33072,-0.82021 v -1.40229 q 0,-0.22489 -0.15875,-0.38364 -0.15875,-0.15875 -0.38365,-0.15875 -0.22488,0 -0.38363,0.15875 -0.17198,0.15875 -0.17198,0.38364 v 1.40229 l -0.0132,0.0397 -0.0397,0.0265 -0.22488,-0.0132 v -2.43417 q 0,-0.37041 -0.26459,-0.635 -0.26458,-0.27781 -0.63501,-0.27781 -0.38363,0 -0.64822,0.27781 -0.26458,0.26459 -0.26458,0.635 v 3.16178 l -0.11906,0.0132 -0.0397,-0.0132 v -0.0132 l -0.0265,-0.0397 v -1.38906 q 0,-0.23813 -0.15875,-0.39688 -0.15875,-0.15875 -0.38363,-0.15875 -0.2249,0 -0.38366,0.15875 -0.15875,0.15875 -0.15875,0.39688 v 1.38906 q 0,0.47625 0.33073,0.82021 0.34396,0.33073 0.82022,0.33073 h 0.11906 m -0.10584,-5.26521 q 0.42334,-0.43656 1.01864,-0.43656 0.59531,0 1.01865,0.44979 v -0.0132 q 0.38364,0.38364 0.4101,0.92604 h 0.19844 l 0.10584,-0.0132 q 0.44979,0 0.76729,0.3175 0.30428,0.30427 0.30428,0.75406 v 1.40229 q 0,0.68792 -0.47625,1.19063 l -0.0661,0.0661 q -0.37043,0.3175 -0.83344,0.39687 v 1.52135 q 0.0265,0.51594 -0.50272,0.87313 -0.38363,0.25135 -0.92604,0.25135 -0.55561,0 -0.93926,-0.25135 -0.52918,-0.35719 -0.50272,-0.87313 v -0.80697 q -0.43656,-0.10584 -0.76729,-0.43657 l -0.0265,-0.0132 q -0.47625,-0.5027 -0.47625,-1.19062 v -1.38906 q 0,-0.46302 0.3175,-0.7673 0.30428,-0.3175 0.75407,-0.3175 l 0.15875,0.0132 0.0397,0.0132 v -0.66146 q 0,-0.58208 0.41012,-0.99218 l 0.0132,-0.0132"
         id="path15545" />
      <path
         style="fill:#2bc46c;stroke:none;stroke-width:0.26458332"
         inkscape:connector-curvature="0"
         d="M 5.55625,273.99444 H 5.43719 q -0.47625,0 -0.82021,-0.33073 -0.33073,-0.34396 -0.33073,-0.82021 v -1.38906 q 0,-0.23813 0.15875,-0.39688 0.15875,-0.15875 0.38365,-0.15875 0.22489,0 0.38364,0.15875 0.15875,0.15875 0.15875,0.39688 v 1.38906 l 0.0265,0.0397 v 0.0132 l 0.0397,0.0132 0.11906,-0.0132 h 0.10583 q 0.2249,0 0.38365,0.15875 0.17198,0.15875 0.17198,0.38364 0,0.2249 -0.15875,0.38365 -0.15875,0.17198 -0.38365,0.17198 H 5.5563"
         id="path15547" />
      <path
         style="fill:#27ae60;stroke:none;stroke-width:0.26458332"
         inkscape:connector-curvature="0"
         d="m 5.55625,273.99444 h 0.11907 q 0.22489,0 0.38364,-0.17198 0.15875,-0.15875 0.15875,-0.38365 0,-0.22489 -0.17198,-0.38364 -0.15875,-0.15875 -0.38365,-0.15875 H 5.55625 v -3.16178 q 0,-0.37041 0.26458,-0.635 0.26459,-0.27781 0.64823,-0.27781 0.37042,0 0.635,0.27781 0.26459,0.26459 0.26459,0.635 v 2.43417 l 0.22489,0.0132 0.0397,-0.0265 0.0132,-0.0397 v -1.40229 q 0,-0.22489 0.17198,-0.38364 0.15875,-0.15875 0.38364,-0.15875 0.2249,0 0.38365,0.15875 0.15875,0.15875 0.15875,0.38364 v 1.40229 q 0,0.47625 -0.33073,0.82021 h -0.0132 q -0.33073,0.33073 -0.80698,0.33073 H 7.36866 v 2.02406 q 0,0.25135 -0.26459,0.42334 -0.26458,0.17198 -0.635,0.17198 -0.38364,0 -0.64823,-0.17198 -0.26458,-0.1719 -0.26458,-0.42326 v -1.29646"
         id="path15549" />
    </g>
    <g
       id="g103"
       transform="translate(7.9374983,2.64583)">
      <path
         id="path8929"
         d="m 35.467395,272.49957 -0.7276,1.56104 1.15094,0.97896 0.7276,-1.56104 -1.15094,-0.97896 m 21.41802,-9.89541 9.26042,15.875 -9.26042,15.875 h -18.52083 l -9.26042,-15.875 9.26042,-15.875 h 18.52083 m 5.43719,15.58395 -0.7276,1.56105 1.15093,0.97895 0.72761,-1.56104 -1.15094,-0.97896 m -2.9501,7.79198 -1.15094,-0.97896 -0.72761,1.56105 1.15094,0.97895 0.72761,-1.56104 m -4.20688,-1.57427 1.8124,1.54781 1.1377,-2.46062 -1.79916,-1.53458 -1.15094,2.44739 m 3.54542,-13.05719 -1.79917,-1.53458 -1.15094,2.4474 1.8124,1.54781 1.13771,-2.46063 m -10.33198,-5.52979 -1.15094,2.4474 1.8124,1.54781 1.13771,-2.46062 -1.79917,-1.53459 m -3.53219,4.63021 1.8124,1.54781 1.13771,-2.46062 -1.79917,-1.53458 -1.15094,2.44739 m 4.445,0.33073 -0.7276,1.56104 1.15093,0.97896 0.72761,-1.56104 -1.15094,-0.97896 m 0,8.13594 -0.7276,1.56104 1.15093,0.97896 0.72761,-1.56104 -1.15094,-0.97896 m -3.28083,3.43958 1.81239,1.54781 1.13771,-2.46062 -1.79916,-1.53458 -1.15094,2.44739 m -7.80521,-7.31573 0.7276,-1.56104 -1.15093,-0.97896 -0.72761,1.56104 1.15094,0.97896 m 7.0776,-7.54062 0.72761,-1.56104 -1.15094,-0.97896 -0.7276,1.56104 1.15093,0.97896 m -7.0776,17.50218 0.7276,-1.56104 -1.15093,-0.97896 -0.72761,1.56105 1.15094,0.97895 m 4.0349,-0.38364 -1.79917,-1.53458 -1.15094,2.44739 1.8124,1.54781 1.13771,-2.46062 m 6.28385,5.27844 -0.7276,1.56104 1.15093,0.97896 0.72761,-1.56105 -1.15094,-0.97895 m 8.44021,-3.24115 -0.72761,1.56104 1.15094,0.97896 0.7276,-1.56104 -1.15093,-0.97896 m -8.44021,0 -0.7276,1.56104 1.15093,0.97896 0.72761,-1.56104 -1.15094,-0.97896 m -9.525,2.11667 0.7276,-1.56104 -1.15093,-0.97896 -0.72761,1.56104 1.15094,0.97896 m -3.82323,-18.415 1.15094,0.97896 0.7276,-1.56105 -1.15094,-0.97895 -0.7276,1.56104"
         style="fill:#a4afaf;stroke:none;stroke-width:0.26458332"
         inkscape:connector-curvature="0" />
      <path
         id="path8931"
         d="m 35.176355,270.35645 0.7276,-1.56104 1.150939,0.97895 -0.727599,1.56105 -1.15094,-0.97896 m 24.196149,15.62364 -0.72761,1.56105 -1.15094,-0.97896 0.727611,-1.56104 1.150939,0.97895 m 2.950101,-7.79198 1.15094,0.97896 -0.727611,1.56104 -1.15093,-0.97895 0.7276,-1.56105 m -3.61156,-6.83947 -1.13771,2.46062 -1.8124,-1.54781 1.15094,-2.4474 1.79917,1.53459 m -13.42761,-3.84969 -1.15093,-0.97896 0.7276,-1.56104 1.15094,0.97896 -0.72761,1.56104 m -7.0776,7.54062 -1.15094,-0.97896 0.72761,-1.56104 1.15093,0.97896 -0.7276,1.56104 m 7.80521,7.31573 1.15094,-2.44739 1.79916,1.53458 -1.13771,2.46062 -1.81239,-1.54781 m 3.28083,-3.43958 1.15094,0.97896 -0.72761,1.56104 -1.15093,-0.97896 0.7276,-1.56104 m -7.05114,5.70177 -1.13771,2.46062 -1.8124,-1.54781 1.15094,-2.44739 1.79917,1.53458 m 6.28385,2.03729 1.15094,0.97896 -0.72761,1.56104 -1.15093,-0.97896 0.7276,-1.56104"
         style="fill:#9ba6a6;stroke:none;stroke-width:0.26458332"
         inkscape:connector-curvature="0" />
      <path
         id="path8933"
         d="m 55.165625,284.40582 1.15094,-2.44739 1.79916,1.53458 -1.1377,2.46062 -1.8124,-1.54781 m -5.87375,-13.62604 1.15094,0.97896 -0.72761,1.56104 -1.150931,-0.97896 0.7276,-1.56104 m -4.445,-0.33073 1.15094,-2.44739 1.79917,1.53458 -1.13771,2.46062 -1.8124,-1.54781 m 3.53219,-4.63021 1.79917,1.53459 -1.13771,2.46062 -1.8124,-1.54781 1.15094,-2.4474 m -10.17323,19.18229 -1.15094,-0.97895 0.72761,-1.56105 1.15093,0.97896 -0.7276,1.56104 m 18.75896,1.65365 1.15093,0.97896 -0.7276,1.56104 -1.15094,-0.97896 0.727611,-1.56104 m -8.44021,3.24115 1.15094,0.97895 -0.72761,1.56105 -1.150931,-0.97896 0.7276,-1.56104 m -9.524999,-1.12448 -1.15094,-0.97896 0.72761,-1.56104 1.15093,0.97896 -0.7276,1.56104 m -3.53219,-16.27188 1.15094,0.97896 -0.7276,1.56104 -1.15094,-0.97896 0.7276,-1.56104"
         style="fill:#a9b6b6;stroke:none;stroke-width:0.26458332"
         inkscape:connector-curvature="0" />
      <path
         id="path8935"
         d="m 44.357396,277.93676 -0.105834,-0.0926 q -0.687916,-0.68792 -0.714375,-1.61396 v -0.0265 -0.34396 q 0,-2.9501 0.542396,-5.02708 l 0.03969,-0.15875 q 0.277812,-1.07156 0.648229,-1.68011 0.515937,-0.87312 1.203854,-0.80697 0.687917,-0.0661 1.217083,0.8202 0.357188,0.60855 0.64823,1.66688 l 0.03969,0.13229 q 0.529167,2.09021 0.529167,5.05354 v 0.34396 0.0265 q -0.02646,0.92604 -0.701146,1.61396 l -0.07938,0.0794 -0.489479,0.34396 v 0.11906 q 0,0.47625 -0.3175,0.79375 l -0.03969,0.0397 q -0.3175,0.3175 -0.79375,0.3175 h -0.01323 q -0.489479,0 -0.820208,-0.33073 -0.330729,-0.33073 -0.330729,-0.82021 v -0.1191 q -0.251355,-0.14552 -0.463021,-0.33073 m 3.042708,-6.81302 -0.07938,-0.3175 -0.132292,-0.46302 q -0.449783,-1.42875 -1.045096,-1.60073 l -0.171979,-0.0265 -0.171979,0.0265 q -0.595313,0.17198 -1.031875,1.60073 l -0.145521,0.46302 -0.07937,0.3175 -0.291042,1.5875 -0.06615,0.59531 -0.06615,0.82021 -0.05292,1.28323 v 0.18521 0.26458 0.34396 q 0.02646,0.7276 0.555625,1.25677 l 0.343958,0.27781 0.383646,0.18521 v 0.46302 q 0,0.26458 0.171979,0.43656 0.185216,0.18521 0.449799,0.18521 h 0.01323 q 0.264584,0 0.436563,-0.18521 0.185208,-0.17198 0.185208,-0.43656 v -0.46302 l 0.410104,-0.19844 0.304271,-0.26458 q 0.529167,-0.52917 0.555625,-1.25677 v -0.34396 -0.26458 -0.18521 l -0.05292,-1.28323 -0.06614,-0.82021 -0.06615,-0.59531 -0.291042,-1.5875"
         style="fill:#115f32;stroke:none;stroke-width:0.26458332"
         inkscape:connector-curvature="0" />
      <path
         id="path8937"
         d="m 47.400104,271.12374 -0.07938,0.0265 -0.05292,0.0265 -0.251354,0.0529 -0.410104,0.0661 -0.635,0.0265 -0.621771,-0.0265 -0.383646,-0.0529 -0.277812,-0.0661 -0.06615,-0.0265 -0.07937,-0.0265 0.07937,-0.3175 0.145521,-0.46302 q 0.436562,-1.42875 1.031875,-1.60073 l 0.171979,-0.0265 0.171979,0.0265 q 0.595313,0.17198 1.045104,1.60073 l 0.132292,0.46302 0.07938,0.3175 m 0.291042,1.5875 0.06615,0.59531 0.06614,0.82021 q -0.119062,0.29104 -0.502708,0.51594 l -0.304271,0.15875 -0.410104,0.11906 -0.635,0.0662 -0.621771,-0.0662 -0.383646,-0.10584 q -0.185208,-0.0661 -0.343958,-0.17197 -0.383646,-0.2249 -0.502708,-0.51594 l 0.06615,-0.82021 0.06615,-0.59531 0.02646,0.0132 0.343958,0.22489 0.343958,0.13229 0.383646,0.0926 0.621771,0.0529 0.635,-0.0529 0.410104,-0.0926 0.304271,-0.13229 0.357188,-0.22489 0.01323,-0.0132 m 0.185208,2.88396 v 0.26458 0.34396 q -0.02646,0.7276 -0.555625,1.25677 l -0.304271,0.26458 -0.410104,0.19844 -0.635,0.0926 -0.621771,-0.0926 -0.383649,-0.18521 -0.343958,-0.27781 q -0.529167,-0.52917 -0.555625,-1.25677 v -0.34396 -0.26458 q 0.02646,0.58208 0.555625,0.99218 l 0.343958,0.2249 0.383646,0.14552 0.621771,0.0794 0.635,-0.0794 0.410104,-0.15875 0.304271,-0.21167 q 0.529167,-0.4101 0.555625,-0.99218"
         style="fill:#1b914d;stroke:none;stroke-width:0.26458332"
         inkscape:connector-curvature="0" />
      <path
         id="path8939"
         d="m 47.876354,275.5952 q -0.02646,0.58208 -0.555625,0.99218 l -0.304271,0.21167 -0.410104,0.15875 -0.635,0.0794 -0.621771,-0.0794 -0.383646,-0.14552 -0.343958,-0.2249 q -0.529167,-0.4101 -0.555625,-0.99218 v -0.18521 l 0.05292,-1.28323 q 0.119062,0.29104 0.502708,0.51594 0.15875,0.10583 0.343958,0.17197 l 0.383646,0.10584 0.621771,0.0662 0.635,-0.0662 0.410104,-0.11906 0.304271,-0.15875 q 0.383646,-0.2249 0.502708,-0.51594 l 0.05292,1.28323 v 0.18521 m -0.47625,-4.47146 0.291042,1.5875 -0.01323,0.0132 -0.357188,0.22489 -0.304271,0.13229 -0.410104,0.0926 -0.635,0.0529 -0.621771,-0.0529 -0.383645,-0.0926 -0.343959,-0.13229 -0.343958,-0.22489 -0.02646,-0.0132 0.291041,-1.5875 0.07937,0.0265 0.06615,0.0265 0.277813,0.0661 0.383645,0.0529 0.621771,0.0265 0.635,-0.0265 0.410104,-0.0661 0.251355,-0.0529 0.05292,-0.0265 0.07938,-0.0265"
         style="fill:#198a49;stroke:none;stroke-width:0.26458332"
         inkscape:connector-curvature="0" />
      <path
         id="path8941"
         d="m 47.625,277.92353 0.185208,0.0794 q 0.740834,0.39687 0.740834,0.9525 0,0.55562 -0.740834,0.93927 -0.740833,0.39687 -1.799166,0.39687 -1.058334,0 -1.799167,-0.39687 -0.740833,-0.38365 -0.740833,-0.93927 0,-0.55563 0.740833,-0.9525 l 0.145521,-0.0661 q 0.211666,0.18521 0.463021,0.33073 v 0.11906 q 0,0.48948 0.330729,0.82021 0.330729,0.33073 0.820208,0.33073 h 0.01323 q 0.47625,0 0.79375,-0.3175 l 0.03969,-0.0397 q 0.3175,-0.3175 0.3175,-0.79375 v -0.11912 L 47.625,277.92353"
         style="fill:#000000;fill-opacity:0.10196078;stroke:none;stroke-width:0.26458332"
         inkscape:connector-curvature="0" />
      <path
         id="path8943"
         d="m 46.606354,277.92353 v 0.46302 q 0,0.26458 -0.185208,0.43656 -0.171979,0.18521 -0.436563,0.18521 h -0.01323 q -0.264583,0 -0.449792,-0.18521 -0.171979,-0.17198 -0.171979,-0.43656 v -0.46302 l 0.621771,0.0926 0.635,-0.0926"
         style="fill:#bb8044;stroke:none;stroke-width:0.26458332"
         inkscape:connector-curvature="0" />
      <path
         id="path8945"
         d="m 44.158958,280.68842 0.463021,-0.29104 0.05292,-0.0397 q 0.291041,-0.33073 0.304271,-0.78052 v -0.22489 q 0,-1.94469 -0.357188,-3.3073 -0.370417,-1.3626 -0.886354,-1.3626 -0.515938,0 -0.873125,1.3626 -0.370417,1.36261 -0.370417,3.3073 v 0.22489 q 0.01323,0.44979 0.330729,0.78052 l 0.03969,0.0397 q 0.211667,0.21167 0.463021,0.29104 v 0.30428 q 0,0.17197 0.119062,0.29104 l 0.291042,0.11906 h 0.01323 q 0.171979,0 0.277813,-0.11906 0.132291,-0.11907 0.132291,-0.29104 v -0.30428 m -1.799166,-0.0661 q -0.383646,-0.44979 -0.396875,-1.03187 v -0.0132 -0.2249 q 0,-2.02406 0.396875,-3.43958 0.489479,-1.87854 1.375833,-1.75948 0.886354,-0.13229 1.402292,1.75948 0.370416,1.41552 0.370416,3.43958 v 0.2249 0.0132 q -0.01323,0.58208 -0.370416,1.0451 l -0.132292,0.14552 h -0.01323 l -0.304271,0.23813 q 0,0.35719 -0.264583,0.62177 l -0.03969,0.0397 q -0.251354,0.23813 -0.635,0.25135 h -0.01323 q -0.396875,0 -0.661458,-0.26458 -0.264584,-0.26458 -0.277813,-0.64823 l -0.304271,-0.23812 h 0.01323 l -0.14552,-0.15875"
         style="fill:#115f32;stroke:none;stroke-width:0.26458332"
         inkscape:connector-curvature="0" />
      <path
         id="path8947"
         d="m 43.325521,280.68842 q -0.251354,-0.0794 -0.463021,-0.29104 l -0.03969,-0.0397 q -0.3175,-0.33073 -0.330729,-0.78052 v -0.22489 q 0,-1.94469 0.370417,-3.3073 0.357187,-1.3626 0.873125,-1.3626 0.515937,0 0.886354,1.3626 0.357188,1.36261 0.357188,3.3073 v 0.22489 q -0.01323,0.44979 -0.304271,0.78052 l -0.05292,0.0397 -0.463021,0.29104 -0.423333,0.0661 -0.410104,-0.0661"
         style="fill:#1b914d;stroke:none;stroke-width:0.26458332"
         inkscape:connector-curvature="0" />
      <path
         id="path8949"
         d="m 45.137917,280.63551 q 0.396875,0.30427 0.396875,0.71437 0,0.47625 -0.529167,0.82021 -0.515938,0.34396 -1.256771,0.34396 -0.740833,0 -1.27,-0.34396 -0.515937,-0.34396 -0.515937,-0.82021 0,-0.4101 0.396875,-0.7276 l 0.14552,0.15875 h -0.01323 l 0.304271,0.23812 q 0.01323,0.38365 0.277813,0.64823 0.264583,0.26459 0.661458,0.26459 h 0.01323 q 0.383646,-0.0132 0.635,-0.25136 l 0.03969,-0.0397 q 0.264583,-0.26458 0.264583,-0.62177 l 0.304271,-0.23812 h 0.01323 l 0.132292,-0.14552"
         style="fill:#000000;fill-opacity:0.10196078;stroke:none;stroke-width:0.26458332"
         inkscape:connector-curvature="0" />
      <path
         id="path8951"
         d="m 44.158958,280.68842 v 0.30428 q 0,0.17197 -0.132291,0.29104 -0.105834,0.11906 -0.277813,0.11906 h -0.01323 l -0.291042,-0.11906 Q 43.32552,281.16467 43.32552,280.9927 v -0.30428 l 0.410104,0.0661 0.423333,-0.0661"
         style="fill:#bb8044;stroke:none;stroke-width:0.26458332"
         inkscape:connector-curvature="0" />
      <path
         id="path8953"
         d="m 50.680937,280.07988 q -0.383645,-0.44979 -0.396875,-1.03187 v -0.0132 -0.2249 q 0,-2.02406 0.396875,-3.43958 0.48948,-1.87854 1.375834,-1.75948 0.886354,-0.13229 1.402291,1.75948 0.370417,1.41552 0.370417,3.43958 v 0.2249 0.0132 q -0.01323,0.58208 -0.370417,1.0451 l -0.132291,0.14552 h -0.01323 l -0.304271,0.23813 q 0,0.35719 -0.264584,0.62177 l -0.03969,0.0397 q -0.251354,0.23812 -0.635,0.25135 h -0.01323 q -0.396875,0 -0.661459,-0.26458 -0.264583,-0.26458 -0.277812,-0.64823 l -0.304271,-0.23813 h 0.01323 l -0.145521,-0.15875 m 1.799167,0.0661 q 0.251354,-0.0926 0.463021,-0.29104 l 0.05292,-0.0397 q 0.291041,-0.33073 0.30427,-0.78052 v -0.22489 q 0,-1.94469 -0.357187,-3.30729 -0.370417,-1.36261 -0.886354,-1.36261 -0.515938,0 -0.873125,1.36261 -0.370417,1.3626 -0.370417,3.30729 v 0.22489 q 0.01323,0.44979 0.330729,0.78052 l 0.03969,0.0397 0.463021,0.29104 v 0.30428 q 0,0.17197 0.119062,0.29104 0.119063,0.11906 0.291042,0.11906 H 52.07 l 0.277812,-0.11906 q 0.132292,-0.11907 0.132292,-0.29104 v -0.30428"
         style="fill:#115f32;stroke:none;stroke-width:0.26458332"
         inkscape:connector-curvature="0" />
      <path
         id="path8955"
         d="m 52.480104,280.14603 -0.423333,0.0661 -0.410104,-0.0661 -0.463021,-0.29104 -0.03969,-0.0397 q -0.3175,-0.33073 -0.330729,-0.78052 v -0.2249 q 0,-1.94469 0.370417,-3.30729 0.357187,-1.3626 0.873125,-1.3626 0.515937,0 0.886354,1.3626 0.357187,1.3626 0.357187,3.30729 v 0.2249 q -0.01323,0.44979 -0.30427,0.78052 l -0.05292,0.0397 q -0.211667,0.19843 -0.463021,0.29104"
         style="fill:#1b914d;stroke:none;stroke-width:0.26458332"
         inkscape:connector-curvature="0" />
      <path
         id="path8957"
         d="m 53.459062,280.09311 q 0.396875,0.30427 0.396875,0.71438 0,0.47625 -0.529166,0.82021 -0.515938,0.34395 -1.256771,0.34395 -0.740833,0 -1.27,-0.34395 -0.515938,-0.34396 -0.515938,-0.82021 0,-0.41011 0.396875,-0.72761 l 0.145521,0.15875 h -0.01323 l 0.304271,0.23813 q 0.01323,0.38364 0.277812,0.64823 0.264584,0.26458 0.661459,0.26458 H 52.07 q 0.383646,-0.0132 0.635,-0.25135 l 0.03969,-0.0397 q 0.264584,-0.26459 0.264584,-0.62177 l 0.304271,-0.23813 h 0.01323 l 0.132291,-0.14552"
         style="fill:#000000;fill-opacity:0.10196078;stroke:none;stroke-width:0.26458332"
         inkscape:connector-curvature="0" />
      <path
         id="path8959"
         d="m 52.480104,280.14603 v 0.30427 q 0,0.17198 -0.132292,0.29104 L 52.07,280.8604 h -0.01323 q -0.171979,0 -0.291042,-0.11906 -0.119062,-0.11906 -0.119062,-0.29104 v -0.30427 l 0.410104,0.0661 0.423333,-0.0661"
         style="fill:#bb8044;stroke:none;stroke-width:0.26458332"
         inkscape:connector-curvature="0" />
      <path
         id="path8961"
         d="m 50.892604,282.06426 -0.489479,0.34396 v 0.11906 q 0,0.47625 -0.3175,0.79375 l -0.03969,0.0397 q -0.3175,0.3175 -0.79375,0.3175 h -0.01323 q -0.489479,0 -0.820208,-0.33073 -0.330729,-0.33073 -0.330729,-0.82021 v -0.11906 l -0.463018,-0.33074 -0.105833,-0.0926 q -0.687917,-0.68791 -0.714375,-1.61396 v -0.0265 -0.34395 q 0,-2.95011 0.542395,-5.02709 l 0.03969,-0.15875 q 0.277812,-1.07156 0.648229,-1.6801 0.515938,-0.87313 1.203854,-0.80698 0.687917,-0.0661 1.217084,0.82021 0.357187,0.60854 0.648229,1.66687 l 0.03969,0.13229 q 0.529167,2.09021 0.529167,5.05355 v 0.34395 0.0265 q -0.02646,0.92605 -0.701146,1.61396 l -0.07938,0.0794 m -0.224896,-6.79979 -0.07938,-0.3175 -0.132291,-0.46302 q -0.449792,-1.42875 -1.045105,-1.60073 l -0.171979,-0.0265 -0.171979,0.0265 q -0.595312,0.17198 -1.031875,1.60073 l -0.145521,0.46302 -0.07937,0.3175 -0.291041,1.5875 -0.06615,0.59531 -0.06615,0.82021 -0.05292,1.28323 v 0.18521 0.26458 0.34396 q 0.02646,0.72761 0.555625,1.25677 l 0.343959,0.27781 0.383645,0.18521 v 0.46302 q 0,0.26459 0.17198,0.43657 0.185208,0.1852 0.449791,0.1852 h 0.01323 q 0.264584,0 0.436563,-0.1852 0.185208,-0.17198 0.185208,-0.43657 v -0.46302 l 0.410114,-0.19844 0.304271,-0.26458 q 0.529167,-0.52917 0.555625,-1.25677 v -0.34396 -0.26459 -0.1852 l -0.05292,-1.28323 -0.06615,-0.82021 -0.06615,-0.59531 -0.291042,-1.5875"
         style="fill:#115f32;stroke:none;stroke-width:0.26458332"
         inkscape:connector-curvature="0" />
      <path
         id="path8963"
         d="m 50.667708,275.26447 -0.07938,0.0265 -0.05292,0.0265 -0.251355,0.0529 -0.410104,0.0661 -0.635,0.0265 -0.621771,-0.0265 -0.383645,-0.0529 -0.277813,-0.0661 -0.06615,-0.0265 -0.07937,-0.0265 0.07937,-0.3175 0.145521,-0.46302 q 0.436563,-1.42875 1.031875,-1.60073 l 0.171979,-0.0265 0.171979,0.0265 q 0.595313,0.17198 1.045105,1.60073 l 0.132291,0.46302 0.07938,0.3175 m 0.291042,1.5875 0.06615,0.59531 0.06615,0.82021 q -0.119063,0.29104 -0.502709,0.51593 l -0.304271,0.15875 -0.410104,0.11907 -0.635,0.0661 -0.621771,-0.0661 -0.383645,-0.10584 -0.343959,-0.17198 q -0.383646,-0.22489 -0.502708,-0.51593 l 0.06615,-0.82021 0.06615,-0.59531 0.02646,0.0132 0.343958,0.22489 0.343959,0.13229 0.383645,0.0926 0.621771,0.0529 0.635,-0.0529 0.410104,-0.0926 0.304271,-0.13229 0.357188,-0.22489 0.01323,-0.0132 m 0.185208,2.88395 v 0.26459 0.34396 q -0.02646,0.7276 -0.555625,1.25677 l -0.304271,0.26458 -0.410104,0.19844 -0.635,0.0926 -0.621771,-0.0926 -0.383645,-0.18521 -0.343959,-0.27781 q -0.529177,-0.52917 -0.555636,-1.25677 v -0.34396 -0.26459 q 0.02646,0.58209 0.555625,0.99219 l 0.343959,0.2249 0.383645,0.14552 0.621771,0.0794 0.635,-0.0794 0.410104,-0.15875 0.304271,-0.21167 q 0.529167,-0.4101 0.555625,-0.99219"
         style="fill:#1b914d;stroke:none;stroke-width:0.26458332"
         inkscape:connector-curvature="0" />
      <path
         id="path8965"
         d="m 50.667708,275.26447 0.291042,1.5875 -0.01323,0.0132 -0.357188,0.22489 -0.304271,0.13229 -0.410104,0.0926 -0.635,0.0529 -0.621771,-0.0529 -0.383645,-0.0926 -0.343959,-0.13229 -0.343958,-0.22489 -0.02646,-0.0132 0.291041,-1.5875 0.07937,0.0265 0.06615,0.0265 0.277813,0.0661 0.383645,0.0529 0.621771,0.0265 0.635,-0.0265 0.410104,-0.0661 0.251355,-0.0529 0.05292,-0.0265 0.07938,-0.0265 m 0.423334,3.00302 0.05292,1.28323 v 0.1852 q -0.02646,0.58209 -0.555625,0.99219 l -0.304271,0.21167 -0.410104,0.15875 -0.635,0.0794 -0.621771,-0.0794 -0.383645,-0.14552 -0.343959,-0.2249 q -0.529166,-0.4101 -0.555625,-0.99219 v -0.1852 l 0.05292,-1.28323 q 0.119062,0.29104 0.502708,0.51593 l 0.343959,0.17198 0.383645,0.10584 0.621771,0.0661 0.635,-0.0661 0.410104,-0.11907 0.304271,-0.15875 q 0.383646,-0.22489 0.502709,-0.51593"
         style="fill:#198a49;stroke:none;stroke-width:0.26458332"
         inkscape:connector-curvature="0" />
      <path
         id="path8967"
         d="m 49.873958,282.06426 v 0.46302 q 0,0.26458 -0.185208,0.43656 -0.171979,0.18521 -0.436563,0.18521 h -0.01323 q -0.264583,0 -0.449791,-0.18521 -0.17198,-0.17198 -0.17198,-0.43656 v -0.46302 l 0.621771,0.0926 0.635,-0.0926"
         style="fill:#bb8044;stroke:none;stroke-width:0.26458332"
         inkscape:connector-curvature="0" />
      <path
         id="path8969"
         d="m 50.892604,282.06426 0.185208,0.0794 q 0.740834,0.39687 0.740834,0.9525 0,0.55562 -0.740834,0.93927 -0.740833,0.39687 -1.799166,0.39687 -1.058334,0 -1.799167,-0.39687 -0.740833,-0.38365 -0.740833,-0.93927 0,-0.55563 0.740833,-0.9525 l 0.145521,-0.0662 0.463021,0.33073 v 0.11906 q 0,0.48948 0.330729,0.82021 0.330729,0.33073 0.820208,0.33073 h 0.01323 q 0.47625,0 0.79375,-0.3175 l 0.03969,-0.0397 q 0.3175,-0.3175 0.3175,-0.79375 v -0.11907 l 0.489479,-0.34395"
         style="fill:#000000;fill-opacity:0.10196078;stroke:none;stroke-width:0.26458332"
         inkscape:connector-curvature="0" />
      <path
         id="path8971"
         d="m 52.771146,271.05759 q 0.251354,-0.0926 0.463021,-0.29104 l 0.05292,-0.0397 q 0.291042,-0.33073 0.304271,-0.78052 v -0.22489 q 0,-1.94469 -0.357187,-3.3073 -0.370417,-1.3626 -0.886354,-1.3626 -0.515938,0 -0.873125,1.3626 -0.370417,1.36261 -0.370417,3.3073 v 0.22489 q 0.01322,0.44979 0.330725,0.78052 l 0.03969,0.0397 q 0.211666,0.21167 0.46302,0.29105 v 0.30427 q 0,0.17198 0.119063,0.29104 0.119062,0.11906 0.291042,0.11906 h 0.01323 q 0.171979,0 0.277812,-0.11906 0.132292,-0.11906 0.132292,-0.29104 v -0.30427 m -1.799167,-0.0661 q -0.383649,-0.4498 -0.396878,-1.03188 v -0.0132 -0.22489 q 0,-2.02407 0.396875,-3.43959 0.489479,-1.87854 1.375833,-1.75948 0.886355,-0.13229 1.402292,1.75948 0.370417,1.41552 0.370417,3.43959 v 0.22489 0.0132 q -0.01323,0.58208 -0.370417,1.04511 l -0.132292,0.14552 h -0.01323 l -0.30427,0.23812 q 0,0.35719 -0.264583,0.62177 l -0.03969,0.0397 q -0.251355,0.23813 -0.635,0.25136 h -0.01323 q -0.396875,0 -0.661458,-0.26459 -0.26458,-0.26458 -0.277809,-0.64823 l -0.304271,-0.23812 h 0.01323 l -0.145521,-0.15875"
         style="fill:#115f32;stroke:none;stroke-width:0.26458332"
         inkscape:connector-curvature="0" />
      <path
         id="path8973"
         d="m 51.937708,271.05759 q -0.251354,-0.0794 -0.463021,-0.29104 l -0.03969,-0.0397 q -0.3175,-0.33073 -0.330729,-0.78052 v -0.2249 q 0,-1.94468 0.370416,-3.30729 0.357188,-1.3626 0.873125,-1.3626 0.515938,0 0.886355,1.3626 0.357187,1.36261 0.357187,3.30729 v 0.2249 q -0.01323,0.44979 -0.304271,0.78052 l -0.05292,0.0397 q -0.211667,0.19844 -0.463021,0.29104 l -0.423334,0.0661 -0.410104,-0.0661"
         style="fill:#1b914d;stroke:none;stroke-width:0.26458332"
         inkscape:connector-curvature="0" />
      <path
         id="path8975"
         d="m 53.750104,271.00468 q 0.396875,0.30427 0.396875,0.71437 0,0.47625 -0.529167,0.82021 -0.515937,0.34396 -1.25677,0.34396 -0.740834,0 -1.27,-0.34396 -0.515938,-0.34396 -0.515938,-0.82021 0,-0.4101 0.396875,-0.7276 l 0.145521,0.15875 h -0.01323 l 0.304272,0.23812 q 0.01323,0.38365 0.277812,0.64823 0.264583,0.26458 0.661458,0.26458 h 0.01323 q 0.383645,-0.0132 0.635,-0.25135 l 0.03969,-0.0397 q 0.26458,-0.26458 0.26458,-0.62177 l 0.304271,-0.23812 h 0.01323 l 0.132292,-0.14552"
         style="fill:#000000;fill-opacity:0.10196078;stroke:none;stroke-width:0.26458332"
         inkscape:connector-curvature="0" />
      <path
         id="path8977"
         d="m 52.771146,271.05759 v 0.30427 q 0,0.17198 -0.132292,0.29104 -0.105833,0.11907 -0.277812,0.11907 h -0.01323 q -0.171979,0 -0.291041,-0.11907 -0.119063,-0.11906 -0.119063,-0.29104 v -0.30427 l 0.410104,0.0661 0.423334,-0.0661"
         style="fill:#bb8044;stroke:none;stroke-width:0.26458332"
         inkscape:connector-curvature="0" />
      <path
         id="path8979"
         d="M 38.867292,284.49842 38.735,284.64395 h -0.01323 l -0.304271,0.23812 q 0,0.35719 -0.264583,0.62177 l -0.03969,0.0397 q -0.251354,0.23813 -0.635,0.25136 H 37.465 q -0.396875,0 -0.661458,-0.26459 -0.264584,-0.26458 -0.277813,-0.64823 l -0.304271,-0.23812 h 0.01323 l -0.14552,-0.15875 q -0.383646,-0.4498 -0.396875,-1.03188 v -0.0132 -0.2249 q 0,-2.02406 0.396875,-3.43958 0.489479,-1.87854 1.375833,-1.75948 0.886354,-0.13229 1.402292,1.75948 0.370416,1.41552 0.370416,3.43958 v 0.2249 0.0132 q -0.01323,0.58208 -0.370416,1.0451 m -0.978959,0.0529 0.463021,-0.29104 0.05292,-0.0397 q 0.291042,-0.33073 0.304271,-0.78052 v -0.22489 q 0,-1.94469 -0.357187,-3.3073 -0.370417,-1.3626 -0.886355,-1.3626 -0.515937,0 -0.873125,1.3626 -0.370417,1.36261 -0.370417,3.3073 v 0.22489 q 0.01323,0.44979 0.33073,0.78052 l 0.03969,0.0397 q 0.211666,0.21167 0.46302,0.29104 v 0.30428 q 0,0.17197 0.119063,0.29104 0.119062,0.11906 0.291042,0.11906 h 0.01323 q 0.171979,0 0.277812,-0.11906 0.132292,-0.11907 0.132292,-0.29104 v -0.30428"
         style="fill:#115f32;stroke:none;stroke-width:0.26458332"
         inkscape:connector-curvature="0" />
      <path
         id="path8981"
         d="m 37.054896,284.55134 q -0.251354,-0.0794 -0.463021,-0.29104 l -0.03969,-0.0397 q -0.3175,-0.33073 -0.330729,-0.78052 v -0.2249 q 0,-1.94469 0.370417,-3.30729 0.357187,-1.3626 0.873125,-1.3626 0.515937,0 0.886354,1.3626 0.357187,1.3626 0.357187,3.30729 v 0.2249 q -0.01323,0.44979 -0.304271,0.78052 l -0.05292,0.0397 -0.463021,0.29104 -0.423333,0.0661 -0.410104,-0.0661"
         style="fill:#1b914d;stroke:none;stroke-width:0.26458332"
         inkscape:connector-curvature="0" />
      <path
         id="path8983"
         d="m 37.054896,284.55134 0.410104,0.0661 0.423333,-0.0661 v 0.30427 q 0,0.17198 -0.132291,0.29104 -0.105834,0.11907 -0.277813,0.11907 h -0.01323 q -0.171979,0 -0.291042,-0.11907 -0.119062,-0.11906 -0.119062,-0.29104 v -0.30427"
         style="fill:#bb8044;stroke:none;stroke-width:0.26458332"
         inkscape:connector-curvature="0" />
      <path
         id="path8985"
         d="m 38.867292,284.49842 q 0.396875,0.30428 0.396875,0.71438 0,0.47625 -0.529167,0.82021 -0.515938,0.34396 -1.256771,0.34396 -0.740833,0 -1.27,-0.34396 -0.515937,-0.34396 -0.515937,-0.82021 0,-0.4101 0.396875,-0.7276 l 0.145521,0.15875 h -0.01323 l 0.30427,0.23812 q 0.01323,0.38365 0.277813,0.64823 0.264583,0.26458 0.661458,0.26458 h 0.01323 q 0.383646,-0.0132 0.635,-0.25135 l 0.03969,-0.0397 q 0.264584,-0.26458 0.264584,-0.62177 l 0.304271,-0.23812 H 38.735 l 0.132291,-0.14553"
         style="fill:#000000;fill-opacity:0.10196078;stroke:none;stroke-width:0.26458332"
         inkscape:connector-curvature="0" />
      <path
         id="path8987"
         d="m 53.803021,284.85561 q 0.251354,-0.0926 0.463021,-0.29104 l 0.05292,-0.0397 q 0.291038,-0.33073 0.304267,-0.78052 v -0.22489 q 0,-1.94469 -0.357187,-3.3073 -0.370417,-1.3626 -0.886355,-1.3626 -0.515937,0 -0.873125,1.3626 -0.370416,1.36261 -0.370416,3.3073 v 0.22489 q 0.01323,0.44979 0.330729,0.78052 l 0.03969,0.0397 q 0.211667,0.21167 0.463021,0.29104 v 0.30427 q 0,0.17198 0.119063,0.29105 0.119062,0.11906 0.291041,0.11906 h 0.01323 l 0.277812,-0.11906 q 0.132292,-0.11907 0.132292,-0.29105 v -0.30427 m -1.799167,-0.0661 q -0.383646,-0.44979 -0.396875,-1.03187 v -0.0132 -0.2249 q 0,-2.02406 0.396875,-3.43958 0.489479,-1.87854 1.375833,-1.75948 0.886355,-0.13229 1.402292,1.75948 0.370417,1.41552 0.370417,3.43958 v 0.2249 0.0132 q -0.01323,0.58208 -0.370417,1.0451 l -0.132292,0.14552 h -0.01323 l -0.304271,0.23813 q 0,0.35719 -0.264583,0.62177 l -0.03969,0.0397 q -0.251355,0.23813 -0.635,0.25135 h -0.01323 q -0.396875,0 -0.661458,-0.26458 -0.264583,-0.26458 -0.277812,-0.64823 l -0.304271,-0.23812 h 0.01323 l -0.145521,-0.15875"
         style="fill:#115f32;stroke:none;stroke-width:0.26458332"
         inkscape:connector-curvature="0" />
      <path
         id="path8989"
         d="m 52.969583,284.85561 q -0.251354,-0.0794 -0.463021,-0.29104 l -0.03969,-0.0397 q -0.3175,-0.33073 -0.330729,-0.78052 v -0.2249 q 0,-1.94468 0.370416,-3.30729 0.357188,-1.3626 0.873125,-1.3626 0.515938,0 0.886355,1.3626 0.357187,1.36261 0.357187,3.30729 v 0.2249 q -0.01323,0.44979 -0.304271,0.78052 l -0.05292,0.0397 q -0.211667,0.19844 -0.463021,0.29104 l -0.423334,0.0661 -0.410104,-0.0661"
         style="fill:#1b914d;stroke:none;stroke-width:0.26458332"
         inkscape:connector-curvature="0" />
      <path
         id="path8991"
         d="m 54.781979,284.8027 q 0.396875,0.30427 0.396875,0.71437 0,0.47625 -0.529167,0.82021 -0.515937,0.34396 -1.25677,0.34396 -0.740834,0 -1.27,-0.34396 -0.515938,-0.34396 -0.515938,-0.82021 0,-0.4101 0.396875,-0.7276 l 0.145521,0.15875 h -0.01323 l 0.304271,0.23812 q 0.01323,0.38365 0.277812,0.64823 0.264583,0.26458 0.661458,0.26458 h 0.01323 q 0.383645,-0.0132 0.635,-0.25135 l 0.03969,-0.0397 q 0.264583,-0.26458 0.264583,-0.62177 l 0.304271,-0.23813 h 0.01323 l 0.132292,-0.14552"
         style="fill:#000000;fill-opacity:0.10196078;stroke:none;stroke-width:0.26458332"
         inkscape:connector-curvature="0" />
      <path
         id="path8993"
         d="m 53.803021,284.85561 v 0.30427 q 0,0.17198 -0.132292,0.29104 l -0.277812,0.11907 h -0.01323 q -0.171979,0 -0.291041,-0.11907 -0.119063,-0.11906 -0.119063,-0.29104 v -0.30427 l 0.410104,0.0661 0.423334,-0.0661"
         style="fill:#bb8044;stroke:none;stroke-width:0.26458332"
         inkscape:connector-curvature="0" />
    </g>
  </g>
</svg>
