<?xml version="1.0" encoding="UTF-8" standalone="no"?>
<svg
   xmlns:dc="http://purl.org/dc/elements/1.1/"
   xmlns:cc="http://creativecommons.org/ns#"
   xmlns:rdf="http://www.w3.org/1999/02/22-rdf-syntax-ns#"
   xmlns:svg="http://www.w3.org/2000/svg"
   xmlns="http://www.w3.org/2000/svg"
   xmlns:xlink="http://www.w3.org/1999/xlink"
   id="svg15497"
   version="1.1"
   viewBox="0 0 63.499998 37.041668"
   height="140"
   width="240">
  <defs
     id="defs15491">
    <linearGradient
       spreadMethod="pad"
       x2="819.20001"
       x1="-819.20001"
       gradientTransform="matrix(0,0.00150185,-0.00272916,0,12.58094,278.29391)"
       gradientUnits="userSpaceOnUse"
       id="linearGradient15551"
       xlink:href="#gradient264" />
    <linearGradient
       id="gradient264"
       gradientTransform="matrix(0,0.00567627,-0.01031494,0,1347.55,1419.3)"
       spreadMethod="pad"
       x2="819.20001"
       x1="-819.20001"
       gradientUnits="userSpaceOnUse">
      <stop
         id="stop1330"
         stop-color="#FFCC00"
         offset="0" />
      <stop
         id="stop1332"
         stop-color="#FF9900"
         offset="1" />
    </linearGradient>
  </defs>
  <metadata
     id="metadata15494">
    <rdf:RDF>
      <cc:Work
         rdf:about="">
        <dc:format>image/svg+xml</dc:format>
        <dc:type
           rdf:resource="http://purl.org/dc/dcmitype/StillImage" />
        <dc:title></dc:title>
      </cc:Work>
    </rdf:RDF>
  </metadata>
  <g
     transform="translate(0,-259.95832)"
     id="layer1">
    <path
       style="fill:#e5d5b2;stroke:none;stroke-width:0.26458332"
       d="m 16.54969,264.6811 q 0.51593,-0.89958 0.88635,-1.94468 l 5.27844,3.08239 -0.74083,0.23813 0.0132,0.0132 q -3.91584,0.96572 -6.12511,4.14072 -1.12448,1.61396 -1.79917,3.78355 -0.25135,0.99218 -0.635,1.86531 l -0.52916,1.0451 q -2.06375,3.58511 -6.82625,5.05354 l 0.0132,0.0132 q -2.63261,0.64829 -4.49792,2.30194 v -5.82083 l 0.2249,-0.78053 q 0.30427,-0.9525 0.70114,-1.81239 2.2225,-4.89479 7.28927,-6.15156 l -0.0132,-0.0132 q 3.99521,-1.24354 6.07219,-3.98198 l 0.68792,-1.03188 m -3.77032,0.29104 1.15094,-0.1852 0.18521,1.15093 -1.15094,0.18521 -0.18521,-1.15094 m 8.20209,5.66209 -0.11906,0.82021 -0.83344,-0.10584 0.10583,-0.83343 0.84667,0.11906 m -0.19844,-1.95792 1.05833,-0.48948 0.46302,1.05834 -1.05833,0.48947 -0.46302,-1.05833 m 4.90802,1.03188 -0.0132,-0.0132 q 1.19063,-0.37042 2.20927,-0.8599 l 1.4949,0.87313 h -0.0132 q 0.35719,0.19843 0.58208,0.56885 0.21167,0.37042 0.21167,0.79375 v 2.30188 l -0.21167,0.62177 q -0.23812,0.99218 -0.635,1.86531 l -0.52916,1.0451 q -2.06375,3.58511 -6.81303,5.05354 l 0.0132,0.0132 q -3.91583,0.96573 -6.1251,4.1275 -1.12448,1.61396 -1.79917,3.79677 -0.25135,0.99219 -0.635,1.85209 l -0.52916,1.0451 -0.26459,0.44979 -8.01687,-4.66989 q 2.03729,-2.18281 5.18583,-2.96334 l -0.0132,-0.0132 q 3.99521,-1.24355 6.07219,-3.98198 l 0.68792,-1.03188 q 0.75406,-1.30969 1.16416,-2.91042 0.29105,-0.9525 0.68792,-1.81239 2.2225,-4.89479 7.28927,-6.15156 m -23.24364,2.6326 0.52916,-0.23812 0.2249,0.54239 -0.52917,0.25136 -0.22489,-0.55563 m 1.15093,-0.75406 -0.7276,-0.99219 0.99219,-0.74083 0.75406,0.99218 -1.01865,0.74084 m 2.92365,-1.48167 -0.84667,0.68792 -0.68791,-0.8599 0.85989,-0.68791 0.67469,0.85989 m 1.71979,13.62604 -0.26458,1.07157 -1.07156,-0.26459 0.26458,-1.05833 1.07156,0.25135 m 0.0529,-0.39687 0.93927,-1.77271 1.74625,0.93927 -0.9525,1.75948 -1.73302,-0.92604 m 21.66937,-4.25979 -0.19843,1.73302 -1.73303,-0.19844 0.19844,-1.74625 1.73302,0.21167 m -5.78114,3.65125 -0.33073,0.76729 -0.76729,-0.3175 0.3175,-0.78052 0.78052,0.33073 m -1.11125,1.29645 h 1.21708 v 1.20386 h -1.20385 l -0.0132,-1.20386 m 2.61937,1.5875 -0.0132,-0.0132 q 2.67229,-0.83344 4.48469,-2.32834 v 2.63261 q 0,0.4101 -0.21167,0.78052 -0.22489,0.37041 -0.58208,0.58208 h 0.0132 l -11.8401,6.90563 0.17197,-0.60855 q 0.29105,-0.9525 0.68792,-1.81239 2.2225,-4.88156 7.28927,-6.13834 m -11.35062,-9.3927 h 1.21708 v 1.20385 h -1.20385 l -0.0132,-1.20385 m 0.99218,2.77812 0.27782,1.85208 -1.87855,0.29105 -0.27781,-1.85209 1.87854,-0.29104 m 4.9874,5.15938 1.62719,0.64823 -0.64823,1.61395 -1.62719,-0.635 0.64823,-1.62718 m -3.57188,3.78354 -0.30427,0.51594 -0.50271,-0.26459 0.27782,-0.51594 0.52916,0.26459 m 0.38365,4.45823 -1.05833,0.48948 -0.46302,-1.05834 1.05833,-0.48948 0.46302,1.05834"
       id="path15499" />
    <path
       style="fill:#ecdcb8;stroke:none;stroke-width:0.26458332"
       d="m 17.13177,292.39621 -0.46302,-1.05834 -1.05833,0.48948 0.46302,1.05834 1.05833,-0.48948 m -0.58208,-27.71511 -0.68792,1.03188 q -2.07698,2.73844 -6.07219,3.98198 l 0.0132,0.0132 q -5.06677,1.25677 -7.28927,6.15156 -0.39687,0.85989 -0.70114,1.81239 l -0.2249,0.78056 v 5.82083 q 1.86531,-1.65365 4.49792,-2.30188 l -0.0132,-0.0132 q 4.7625,-1.46843 6.82625,-5.05354 l 0.52916,-1.0451 q 0.38365,-0.87313 0.635,-1.86531 0.67469,-2.16959 1.79917,-3.78355 2.20927,-3.175 6.1251,-4.14072 l -0.0132,-0.0132 0.74084,-0.23813 -5.27844,-3.08239 q -0.37042,1.0451 -0.88635,1.94468 m -11.69459,1.70657 7.27604,-4.24657 h 0.0132 l 3.73063,-2.18281 15.875,9.26042 V 287.7396 L 15.875,296.99996 0,287.73954 v -18.52083 l 4.56406,-2.65907 0.0132,-0.0132 h 0.0132 l 0.26458,-0.15875 m 15.92792,2.28864 0.46302,1.05833 1.05833,-0.48947 -0.46302,-1.05834 -1.05833,0.48948 m 0.19844,1.95792 -0.84667,-0.11906 -0.10583,0.83343 0.83344,0.10584 0.11906,-0.82021 m -8.20209,-5.66209 0.18521,1.15094 1.15094,-0.18521 -0.18521,-1.15093 -1.15094,0.1852 m 12.91167,4.73605 q -5.06677,1.25677 -7.28927,6.15156 -0.39687,0.85989 -0.68792,1.81239 -0.4101,1.60073 -1.16416,2.91042 l -0.68792,1.03188 q -2.07698,2.73843 -6.07219,3.98198 l 0.0132,0.0132 q -3.14854,0.78053 -5.18583,2.96334 l 8.01687,4.66989 0.26459,-0.44979 0.52916,-1.0451 q 0.38365,-0.8599 0.635,-1.85209 0.67469,-2.18281 1.79917,-3.79677 2.20927,-3.16177 6.1251,-4.1275 l -0.0132,-0.0132 q 4.74928,-1.46843 6.81303,-5.05354 l 0.52916,-1.0451 q 0.39688,-0.87313 0.635,-1.86531 l 0.21167,-0.6218 v -2.30188 q 0,-0.42333 -0.21167,-0.79375 -0.22489,-0.37042 -0.58208,-0.56885 h 0.0132 l -1.4949,-0.87313 q -1.01864,0.48948 -2.20927,0.8599 l 0.0132,0.0132 m -2.61937,14.31395 0.0132,1.20386 h 1.20385 v -1.20386 h -1.21708 m 1.11125,-1.29645 -0.78052,-0.33073 -0.3175,0.78052 0.76729,0.3175 0.33073,-0.76729 m 5.78114,-3.65125 -1.73302,-0.21167 -0.19843,1.74625 1.73302,0.19844 0.19843,-1.73302 m -21.66937,4.25979 1.73302,0.92604 0.9525,-1.75948 -1.74625,-0.93927 -0.93927,1.77271 m -0.0529,0.39687 -1.07156,-0.25135 -0.26458,1.05833 1.07156,0.26459 0.26458,-1.07157 m -1.71979,-13.62604 -0.67469,-0.85989 -0.85989,0.68791 0.68791,0.8599 0.84667,-0.68792 m -2.92365,1.48167 1.01865,-0.74084 -0.75406,-0.99218 -0.99219,0.74083 0.7276,0.99219 m -1.15093,0.75406 0.22489,0.55563 0.52917,-0.25136 -0.2249,-0.54239 -0.52916,0.23812 m 23.24364,13.26885 q -5.06677,1.25678 -7.28927,6.13834 -0.39687,0.85989 -0.68791,1.81239 l -0.17198,0.60855 11.8401,-6.90563 h -0.0132 q 0.35719,-0.21167 0.58208,-0.58208 0.21167,-0.37042 0.21167,-0.78052 v -2.63261 q -1.8124,1.4949 -4.48469,2.32834 l 0.0132,0.0132 m -8.94291,2.32834 -0.52917,-0.26459 -0.27781,0.51594 0.5027,0.26459 0.30428,-0.51594 m 3.57187,-3.78354 -0.64823,1.62718 1.62719,0.635 0.64823,-1.61395 -1.62719,-0.64818 m -4.9874,-5.15938 -1.87854,0.29104 0.27781,1.85209 1.87855,-0.29105 -0.27782,-1.85208 m -0.99218,-2.77812 0.0132,1.20385 h 1.20385 v -1.20385 h -1.21708"
       id="path15501" />
    <path
       style="fill:#e0d1af;stroke:none;stroke-width:0.26458332"
       d="m 4.57729,266.54642 0.27781,-0.15875 -0.26458,0.15875 h -0.0132"
       id="path15503" />
    <path
       style="fill:#855b30;stroke:none;stroke-width:0.26458332"
       d="m 20.17448,268.82183 -1.27,0.2249 -1.21708,0.39687 -0.11907,1.34938 1.86532,1.75948 2.35479,-0.71438 -0.52917,-2.98979 -1.08479,-0.0265 m 0.0132,-0.52916 1.08479,0.0264 q 0.18521,0 0.33073,0.1323 0.14552,0.11906 0.18521,0.30427 l 0.52916,2.98979 q 0.0265,0.19844 -0.0794,0.37041 l -0.29104,0.23813 -2.35479,0.71437 h -0.27781 q -0.14552,-0.0397 -0.23813,-0.13229 l -1.86531,-1.75948 -0.13229,-0.19843 -0.0397,-0.2249 0.11906,-1.34937 q 0.0132,-0.17198 0.11906,-0.29105 0.0926,-0.11906 0.25136,-0.17198 l 1.21708,-0.39687 0.0661,-0.0132 1.27,-0.2249 0.10583,-0.0132"
       id="path15505" />
    <path
       style="fill:#af783f;stroke:none;stroke-width:0.26458332"
       d="m 20.17448,268.82183 1.08479,0.0265 0.52917,2.98979 -1.38907,-1.78594 -0.22489,-1.23031 m -2.60615,1.97115 0.11907,-1.34938 1.21708,-0.39687 -0.0265,0.26458 -1.30969,1.48167"
       id="path15507" />
    <path
       style="fill:#bb8044;stroke:none;stroke-width:0.26458332"
       d="m 17.56833,270.79298 1.30969,-1.48167 0.0265,-0.26458 1.27,-0.2249 0.2249,1.23031 -0.55563,0.17198 -0.4101,2.32834 -1.86532,-1.75948"
       id="path15509" />
    <path
       style="fill:#cd8c4a;stroke:none;stroke-width:0.26458332"
       d="m 21.78844,271.83808 -2.35479,0.71438 0.4101,-2.32834 0.55562,-0.17198 1.38907,1.78594"
       id="path15511" />
    <path
       style="fill:#726a59;stroke:none;stroke-width:0.26458332"
       d="m 12.97781,276.44183 4.86834,0.13229 2.61937,-3.06916 -4.89479,-7.80521 -4.89479,7.52739 2.30187,3.21469 m 2.42094,-11.24479 0.35719,0.0132 q 0.17198,0.0529 0.26458,0.21167 l 4.89479,7.8052 q 0.0926,0.14553 0.0794,0.3175 -0.0132,0.17198 -0.11906,0.30428 l -2.61938,3.06916 -0.19843,0.14552 -0.2249,0.0397 -4.86833,-0.13229 -0.2249,-0.0529 -0.18521,-0.15875 -2.30187,-3.21469 q -0.10583,-0.14552 -0.10583,-0.30427 0,-0.15875 0.0926,-0.30427 l 4.89479,-7.52739 q 0.0926,-0.15875 0.26458,-0.21167"
       id="path15513" />
    <path
       style="fill:#ecdcb8;stroke:none;stroke-width:0.26458332"
       d="m 15.42521,272.27464 q -0.3175,0 -0.5424,0.21167 -0.21166,0.2249 -0.21166,0.5424 v 1.70656 q 0,0.3175 0.21166,0.52917 0.2249,0.22489 0.5424,0.22489 0.30427,0 0.51594,-0.22489 0.23812,-0.21167 0.23812,-0.52917 v -1.70656 q 0,-0.3175 -0.23812,-0.5424 -0.21167,-0.21167 -0.51594,-0.21167 m 2.42094,4.29948 -4.86834,-0.13229 2.59292,-10.74208 2.27542,10.87437"
       id="path15515" />
    <path
       style="fill:#9c9179;stroke:none;stroke-width:0.26458332"
       d="m 15.42521,272.27464 q 0.30427,0 0.51594,0.21167 0.23812,0.2249 0.23812,0.5424 v 1.70656 q 0,0.3175 -0.23812,0.52917 -0.21167,0.22489 -0.51594,0.22489 -0.3175,0 -0.5424,-0.22489 -0.21166,-0.21167 -0.21166,-0.52917 v -1.70656 q 0,-0.3175 0.21166,-0.5424 0.2249,-0.21167 0.5424,-0.21167"
       id="path15517" />
    <path
       style="fill:#cbbd9e;stroke:none;stroke-width:0.26458332"
       d="m 12.97781,276.44183 -2.30187,-3.21469 4.89479,-7.52739 4.89479,7.80521 -2.61937,3.06916 -2.27542,-10.87437 -2.59292,10.74208"
       id="path15519" />
    <path
       style="fill:#726a59;stroke:none;stroke-width:0.26458332"
       d="m 28.33687,283.45329 q 0.0926,0.14552 0.0794,0.3175 -0.0132,0.17198 -0.11906,0.30427 l -2.61937,3.06917 -0.19844,0.14552 -0.2249,0.0397 -4.86833,-0.1323 -0.2249,-0.0529 -0.1852,-0.15875 -2.30188,-3.21469 q -0.10583,-0.14552 -0.10583,-0.30427 0,-0.15875 0.0926,-0.30427 l 4.89479,-7.5274 q 0.0926,-0.15875 0.26458,-0.21166 l 0.35719,0.0132 q 0.17198,0.0529 0.26458,0.21166 l 4.8948,7.80521 m -3.06917,3.34698 2.61937,-3.06917 -4.89479,-7.80521 -4.89479,7.5274 2.30188,3.21469 4.86833,0.13229"
       id="path15521" />
    <path
       style="fill:#cbbd9e;stroke:none;stroke-width:0.26458332"
       d="m 25.26771,286.80027 -2.27542,-10.87438 -2.59292,10.74209 -2.30187,-3.21469 4.89479,-7.5274 4.89479,7.80521 -2.61937,3.06917"
       id="path15523" />
    <path
       style="fill:#ecdcb8;stroke:none;stroke-width:0.26458332"
       d="m 25.26771,286.80027 -4.86834,-0.13229 2.59292,-10.74209 2.27542,10.87438"
       id="path15525" />
    <path
       style="fill:#000000;fill-opacity:0.10196078;stroke:none;stroke-width:0.26458332"
       d="m 10.78177,279.21996 q 0.67469,-0.42334 1.62719,-0.42334 0.9525,0 1.62719,0.42334 0.67468,0.42333 0.67468,1.03187 0,0.60854 -0.67468,1.03188 -0.67469,0.42333 -1.62719,0.42333 -0.9525,0 -1.62719,-0.42333 -0.67469,-0.42334 -0.67469,-1.03188 0,-0.60854 0.67469,-1.03187"
       id="path15527" />
    <path
       style="fill:#ffad00;stroke:none;stroke-width:0.26458332"
       d="m 13.25562,273.43881 -0.52916,0.52917 -0.51594,-0.51594 0.52917,-0.52917 0.51593,0.51594 m -1.65364,1.23031 0.14552,-0.54239 0.55562,0.14552 -0.14552,0.54239 -0.55562,-0.14552"
       id="path15529" />
    <path
       style="fill:#db8300;stroke:none;stroke-width:0.26458332"
       d="m 10.82146,278.29392 q 0,-0.17198 0.10583,-0.30428 l 0.55563,-0.78052 v -1.15093 q 0,-0.2249 0.15875,-0.37042 0.14552,-0.15875 0.37041,-0.15875 h 0.47625 l 0.26459,0.0794 q 0.11906,0.0661 0.19843,0.18521 l 0.87313,1.52136 0.0662,0.26458 v 1.29646 l 0.3175,0.37042 q 0.13229,0.14552 0.13229,0.33072 0,0.18521 -0.10583,0.34396 l -0.74084,0.93927 -0.1852,0.14552 -0.23813,0.0529 h -0.91281 q -0.19844,0 -0.34396,-0.13229 l -0.80698,-0.71438 -0.13229,-0.17197 -0.0529,-0.2249 v -1.52135 m 1.66687,-2.23573 h -0.47625 v 1.32291 l -0.66145,0.91282 v 1.52135 l 0.80697,0.71437 h 0.91282 l 0.74083,-0.93927 -0.44979,-0.51593 v -1.4949 L 12.4884,276.0582"
       id="path15531" />
    <path
       style="fill:url(#linearGradient15551);stroke:none;stroke-width:0.26458332"
       d="m 12.48833,276.05819 0.87313,1.52135 v 1.4949 l 0.44979,0.51593 -0.74083,0.93927 H 12.1576 l -0.80698,-0.71437 v -1.52135 l 0.66146,-0.91282 v -1.32291 h 0.47625"
       id="path15533" />
    <path
       style="fill:#855b30;stroke:none;stroke-width:0.26458332"
       d="m 3.0824,285.23923 q 0.0926,-0.11906 0.25135,-0.17198 l 1.21708,-0.39688 0.0661,-0.0132 1.27,-0.22489 0.10583,-0.0132 1.08479,0.0265 q 0.18521,0 0.33073,0.13229 0.14552,0.11906 0.18521,0.30427 l 0.52917,2.98979 q 0.0265,0.19844 -0.0794,0.37042 l -0.29104,0.23802 -2.35479,0.71438 H 5.11962 l -0.23813,-0.13229 -1.86531,-1.75948 -0.13229,-0.19844 -0.0397,-0.2249 0.11906,-1.34937 q 0.0132,-0.17198 0.11907,-0.29104 m 1.62718,-0.0661 -1.21708,0.39688 -0.11906,1.34937 1.86531,1.75948 2.35479,-0.71437 -0.52917,-2.9898 -1.08479,-0.0265 -1.27,0.22489"
       id="path15535" />
    <path
       style="fill:#af783f;stroke:none;stroke-width:0.26458332"
       d="m 4.70958,285.17308 -0.0265,0.26459 -1.30969,1.48166 0.11906,-1.34937 1.21708,-0.39688 m 1.4949,1.00542 -0.2249,-1.23031 1.0848,0.0265 0.52916,2.9898 -1.38906,-1.78594"
       id="path15537" />
    <path
       style="fill:#bb8044;stroke:none;stroke-width:0.26458332"
       d="m 6.20448,286.1785 -0.55563,0.17198 -0.4101,2.32833 -1.86531,-1.75948 1.30968,-1.48166 0.0265,-0.26459 1.27,-0.22489 0.2249,1.23031"
       id="path15539" />
    <path
       style="fill:#cd8c4a;stroke:none;stroke-width:0.26458332"
       d="m 6.20448,286.1785 1.38906,1.78594 -2.35479,0.71437 0.4101,-2.32833 0.55563,-0.17198"
       id="path15541" />
    <path
       style="fill:#000000;fill-opacity:0.10196078;stroke:none;stroke-width:0.26458332"
       d="m 4.23333,275.83329 q 0,-0.5424 0.67469,-0.93927 0.67469,-0.38365 1.62719,-0.38365 0.9525,0 1.62719,0.38365 0.67468,0.39687 0.67468,0.93927 0,0.5424 -0.67468,0.92604 -0.67469,0.39688 -1.62719,0.39688 -0.9525,0 -1.62719,-0.39688 -0.67469,-0.38364 -0.67469,-0.92604"
       id="path15543" />
    <path
       style="fill:#1a7741;stroke:none;stroke-width:0.26458332"
       d="m 5.55625,273.99444 v 1.29645 q 0,0.25136 0.26458,0.42334 0.26459,0.17198 0.64823,0.17198 0.37042,0 0.635,-0.17198 0.26459,-0.17198 0.26459,-0.42334 v -2.02406 h 0.22489 q 0.47625,0 0.80698,-0.33073 h 0.0132 q 0.33073,-0.34396 0.33073,-0.82021 v -1.40229 q 0,-0.22489 -0.15875,-0.38364 -0.15875,-0.15875 -0.38365,-0.15875 -0.22489,0 -0.38364,0.15875 -0.17198,0.15875 -0.17198,0.38364 v 1.40229 l -0.0132,0.0397 -0.0397,0.0265 -0.22489,-0.0132 v -2.43417 q 0,-0.37041 -0.26459,-0.635 -0.26458,-0.27781 -0.635,-0.27781 -0.38364,0 -0.64823,0.27781 -0.26458,0.26459 -0.26458,0.635 v 3.16178 l -0.11906,0.0132 -0.0397,-0.0132 v -0.0132 l -0.0265,-0.0397 v -1.38906 q 0,-0.23813 -0.15875,-0.39688 -0.15875,-0.15875 -0.38364,-0.15875 -0.2249,0 -0.38365,0.15875 -0.15875,0.15875 -0.15875,0.39688 v 1.38906 q 0,0.47625 0.33073,0.82021 0.34396,0.33073 0.82021,0.33073 h 0.11906 m -0.10583,-5.26521 q 0.42333,-0.43656 1.01864,-0.43656 0.59531,0 1.01865,0.44979 v -0.0132 q 0.38364,0.38364 0.4101,0.92604 h 0.19844 l 0.10583,-0.0132 q 0.44979,0 0.76729,0.3175 0.30428,0.30427 0.30428,0.75406 v 1.40229 q 0,0.68792 -0.47625,1.19063 l -0.0661,0.0661 q -0.37042,0.3175 -0.83344,0.39687 v 1.52135 q 0.0265,0.51594 -0.50271,0.87313 -0.38364,0.25135 -0.92604,0.25135 -0.55562,0 -0.93927,-0.25135 -0.52917,-0.35719 -0.50271,-0.87313 v -0.80697 q -0.43656,-0.10584 -0.76729,-0.43657 l -0.0265,-0.0132 q -0.47625,-0.5027 -0.47625,-1.19062 v -1.38906 q 0,-0.46302 0.3175,-0.7673 0.30427,-0.3175 0.75407,-0.3175 l 0.15875,0.0132 0.0397,0.0132 v -0.66146 q 0,-0.58208 0.41011,-0.99218 l 0.0132,-0.0132"
       id="path15545" />
    <path
       style="fill:#2bc46c;stroke:none;stroke-width:0.26458332"
       d="M 5.55625,273.99444 H 5.43719 q -0.47625,0 -0.82021,-0.33073 -0.33073,-0.34396 -0.33073,-0.82021 v -1.38906 q 0,-0.23813 0.15875,-0.39688 0.15875,-0.15875 0.38365,-0.15875 0.22489,0 0.38364,0.15875 0.15875,0.15875 0.15875,0.39688 v 1.38906 l 0.0265,0.0397 v 0.0132 l 0.0397,0.0132 0.11906,-0.0132 h 0.10583 q 0.2249,0 0.38365,0.15875 0.17198,0.15875 0.17198,0.38364 0,0.2249 -0.15875,0.38365 -0.15875,0.17198 -0.38365,0.17198 H 5.5563"
       id="path15547" />
    <path
       style="fill:#27ae60;stroke:none;stroke-width:0.26458332"
       d="m 5.55625,273.99444 h 0.11906 q 0.2249,0 0.38365,-0.17198 0.15875,-0.15875 0.15875,-0.38365 0,-0.22489 -0.17198,-0.38364 -0.15875,-0.15875 -0.38365,-0.15875 H 5.55625 v -3.16178 q 0,-0.37041 0.26458,-0.635 0.26459,-0.27781 0.64823,-0.27781 0.37042,0 0.635,0.27781 0.26459,0.26459 0.26459,0.635 v 2.43417 l 0.22489,0.0132 0.0397,-0.0265 0.0132,-0.0397 v -1.40229 q 0,-0.22489 0.17198,-0.38364 0.15875,-0.15875 0.38364,-0.15875 0.2249,0 0.38365,0.15875 0.15875,0.15875 0.15875,0.38364 v 1.40229 q 0,0.47625 -0.33073,0.82021 h -0.0132 q -0.33073,0.33073 -0.80698,0.33073 H 7.36866 v 2.02406 q 0,0.25136 -0.26459,0.42334 -0.26458,0.17198 -0.635,0.17198 -0.38364,0 -0.64823,-0.17198 -0.26458,-0.1719 -0.26458,-0.42326 v -1.29645"
       id="path15549" />
    <path
       id="path8929"
       d="m 41.645417,290.63676 1.561041,0.7276 0.978959,-1.15094 -1.561042,-0.7276 -0.978958,1.15094 M 31.75,269.21874 47.625,259.95832 63.5,269.21874 v 18.52083 l -15.875,9.26042 -15.875,-9.26042 v -18.52083 m 15.583958,-5.43719 1.561042,0.7276 0.978958,-1.15093 -1.561041,-0.72761 -0.978959,1.15094 m 7.791979,2.9501 -0.978958,1.15094 1.561042,0.72761 0.978958,-1.15094 -1.561042,-0.72761 m -1.57427,4.20688 1.547812,-1.8124 -2.460625,-1.1377 -1.534583,1.79916 2.447396,1.15094 m -13.057188,-3.54542 -1.534583,1.79917 2.447396,1.15094 1.547812,-1.8124 -2.460625,-1.13771 m -5.529791,10.33198 2.447395,1.15094 1.547813,-1.8124 -2.460625,-1.13771 -1.534583,1.79917 m 4.630208,3.53219 1.547812,-1.8124 -2.460625,-1.13771 -1.534583,1.79917 2.447396,1.15094 m 0.330729,-4.445 1.561042,0.7276 0.978958,-1.15093 -1.561042,-0.72761 -0.978958,1.15094 m 8.135937,0 1.561042,0.7276 0.978958,-1.15093 -1.561041,-0.72761 -0.978959,1.15094 m 3.439584,3.28083 1.547812,-1.81239 -2.460625,-1.13771 -1.534583,1.79916 2.447396,1.15094 m -7.315729,7.80521 -1.561042,-0.7276 -0.978958,1.15093 1.561041,0.72761 0.978959,-1.15094 m -7.540625,-7.0776 -1.561042,-0.72761 -0.978958,1.15094 1.561041,0.7276 0.978959,-1.15093 m 17.502187,7.0776 -1.561042,-0.7276 -0.978958,1.15093 1.561042,0.72761 0.978958,-1.15094 m -0.383646,-4.0349 -1.534583,1.79917 2.447396,1.15094 1.547812,-1.8124 -2.460625,-1.13771 m 5.278438,-6.28385 1.561041,0.7276 0.978959,-1.15093 -1.561042,-0.72761 -0.978958,1.15094 m -3.241146,-8.44021 1.561042,0.72761 0.978958,-1.15094 -1.561042,-0.7276 -0.978958,1.15093 m 0,8.44021 1.561042,0.7276 0.978958,-1.15093 -1.561042,-0.72761 -0.978958,1.15094 m 2.116667,9.525 -1.561042,-0.7276 -0.978958,1.15093 1.561041,0.72761 0.978959,-1.15094 m -18.415,3.82323 0.978958,-1.15094 -1.561042,-0.7276 -0.978958,1.15094 1.561042,0.7276"
       style="fill:#a4afaf;stroke:none;stroke-width:0.26458332" />
    <path
       id="path8931"
       d="m 39.502292,290.9278 -1.561042,-0.7276 0.978958,-1.15094 1.561042,0.7276 -0.978958,1.15094 m 15.623645,-24.19615 1.561042,0.72761 -0.978958,1.15094 -1.561042,-0.72761 0.978958,-1.15094 m -7.791979,-2.9501 0.978959,-1.15094 1.561041,0.72761 -0.978958,1.15093 -1.561042,-0.7276 m -6.839479,3.61156 2.460625,1.13771 -1.547812,1.8124 -2.447396,-1.15094 1.534583,-1.79917 m -3.849687,13.42761 -0.978959,1.15093 -1.561041,-0.7276 0.978958,-1.15094 1.561042,0.72761 m 7.540625,7.0776 -0.978959,1.15094 -1.561041,-0.72761 0.978958,-1.15093 1.561042,0.7276 m 7.315729,-7.80521 -2.447396,-1.15094 1.534583,-1.79916 2.460625,1.13771 -1.547812,1.81239 m -3.439584,-3.28083 0.978959,-1.15094 1.561041,0.72761 -0.978958,1.15093 -1.561042,-0.7276 m 5.701771,7.05114 2.460625,1.13771 -1.547812,1.8124 -2.447396,-1.15094 1.534583,-1.79917 m 2.037292,-6.28385 0.978958,-1.15094 1.561042,0.72761 -0.978958,1.15093 -1.561042,-0.7276"
       style="fill:#9ba6a6;stroke:none;stroke-width:0.26458332" />
    <path
       id="path8933"
       d="m 53.551667,270.93853 -2.447396,-1.15094 1.534583,-1.79916 2.460625,1.1377 -1.547812,1.8124 m -13.626042,5.87375 0.978958,-1.15094 1.561042,0.72761 -0.978958,1.15093 -1.561042,-0.7276 m -0.330729,4.445 -2.447396,-1.15094 1.534583,-1.79917 2.460625,1.13771 -1.547812,1.8124 m -4.630208,-3.53219 1.534583,-1.79917 2.460625,1.13771 -1.547813,1.8124 -2.447395,-1.15094 m 19.182291,10.17323 -0.978958,1.15094 -1.561042,-0.72761 0.978958,-1.15093 1.561042,0.7276 m 1.653646,-18.75896 0.978958,-1.15093 1.561042,0.7276 -0.978958,1.15094 -1.561042,-0.72761 m 3.241146,8.44021 0.978958,-1.15094 1.561042,0.72761 -0.978959,1.15093 -1.561041,-0.7276 m -1.124479,9.525 -0.978959,1.15094 -1.561041,-0.72761 0.978958,-1.15093 1.561042,0.7276 m -16.271875,3.53219 0.978958,-1.15094 1.561042,0.7276 -0.978959,1.15094 -1.561041,-0.7276"
       style="fill:#a9b6b6;stroke:none;stroke-width:0.26458332" />
    <path
       id="path8935"
       d="m 44.357396,277.93676 -0.105834,-0.0926 q -0.687916,-0.68792 -0.714375,-1.61396 v -0.0265 -0.34396 q 0,-2.9501 0.542396,-5.02708 l 0.03969,-0.15875 q 0.277812,-1.07156 0.648229,-1.68011 0.515937,-0.87312 1.203854,-0.80697 0.687917,-0.0661 1.217083,0.8202 0.357188,0.60855 0.64823,1.66688 l 0.03969,0.13229 q 0.529167,2.09021 0.529167,5.05354 v 0.34396 0.0265 q -0.02646,0.92604 -0.701146,1.61396 l -0.07938,0.0794 -0.489479,0.34396 v 0.11906 q 0,0.47625 -0.3175,0.79375 l -0.03969,0.0397 q -0.3175,0.3175 -0.79375,0.3175 h -0.01323 q -0.489479,0 -0.820208,-0.33073 -0.330729,-0.33073 -0.330729,-0.82021 v -0.1191 q -0.251355,-0.14552 -0.463021,-0.33073 m 3.042708,-6.81302 -0.07938,-0.3175 -0.132292,-0.46302 q -0.449783,-1.42875 -1.045096,-1.60073 l -0.171979,-0.0265 -0.171979,0.0265 q -0.595313,0.17198 -1.031875,1.60073 l -0.145521,0.46302 -0.07937,0.3175 -0.291042,1.5875 -0.06615,0.59531 -0.06615,0.82021 -0.05292,1.28323 v 0.18521 0.26458 0.34396 q 0.02646,0.7276 0.555625,1.25677 l 0.343958,0.27781 0.383646,0.18521 v 0.46302 q 0,0.26458 0.171979,0.43656 0.185216,0.18521 0.449799,0.18521 h 0.01323 q 0.264584,0 0.436563,-0.18521 0.185208,-0.17198 0.185208,-0.43656 v -0.46302 l 0.410104,-0.19844 0.304271,-0.26458 q 0.529167,-0.52917 0.555625,-1.25677 v -0.34396 -0.26458 -0.18521 l -0.05292,-1.28323 -0.06614,-0.82021 -0.06615,-0.59531 -0.291042,-1.5875"
       style="fill:#115f32;stroke:none;stroke-width:0.26458332" />
    <path
       id="path8937"
       d="m 47.400104,271.12374 -0.07938,0.0265 -0.05292,0.0265 -0.251354,0.0529 -0.410104,0.0661 -0.635,0.0265 -0.621771,-0.0265 -0.383646,-0.0529 -0.277812,-0.0661 -0.06615,-0.0265 -0.07937,-0.0265 0.07937,-0.3175 0.145521,-0.46302 q 0.436562,-1.42875 1.031875,-1.60073 l 0.171979,-0.0265 0.171979,0.0265 q 0.595313,0.17198 1.045104,1.60073 l 0.132292,0.46302 0.07938,0.3175 m 0.291042,1.5875 0.06615,0.59531 0.06614,0.82021 q -0.119062,0.29104 -0.502708,0.51594 l -0.304271,0.15875 -0.410104,0.11906 -0.635,0.0662 -0.621771,-0.0662 -0.383646,-0.10584 q -0.185208,-0.0661 -0.343958,-0.17197 -0.383646,-0.2249 -0.502708,-0.51594 l 0.06615,-0.82021 0.06615,-0.59531 0.02646,0.0132 0.343958,0.22489 0.343958,0.13229 0.383646,0.0926 0.621771,0.0529 0.635,-0.0529 0.410104,-0.0926 0.304271,-0.13229 0.357188,-0.22489 0.01323,-0.0132 m 0.185208,2.88396 v 0.26458 0.34396 q -0.02646,0.7276 -0.555625,1.25677 l -0.304271,0.26458 -0.410104,0.19844 -0.635,0.0926 -0.621771,-0.0926 -0.383649,-0.18521 -0.343958,-0.27781 q -0.529167,-0.52917 -0.555625,-1.25677 v -0.34396 -0.26458 q 0.02646,0.58208 0.555625,0.99218 l 0.343958,0.2249 0.383646,0.14552 0.621771,0.0794 0.635,-0.0794 0.410104,-0.15875 0.304271,-0.21167 q 0.529167,-0.4101 0.555625,-0.99218"
       style="fill:#1b914d;stroke:none;stroke-width:0.26458332" />
    <path
       id="path8939"
       d="m 47.876354,275.5952 q -0.02646,0.58208 -0.555625,0.99218 l -0.304271,0.21167 -0.410104,0.15875 -0.635,0.0794 -0.621771,-0.0794 -0.383646,-0.14552 -0.343958,-0.2249 q -0.529167,-0.4101 -0.555625,-0.99218 v -0.18521 l 0.05292,-1.28323 q 0.119062,0.29104 0.502708,0.51594 0.15875,0.10583 0.343958,0.17197 l 0.383646,0.10584 0.621771,0.0662 0.635,-0.0662 0.410104,-0.11906 0.304271,-0.15875 q 0.383646,-0.2249 0.502708,-0.51594 l 0.05292,1.28323 v 0.18521 m -0.47625,-4.47146 0.291042,1.5875 -0.01323,0.0132 -0.357188,0.22489 -0.304271,0.13229 -0.410104,0.0926 -0.635,0.0529 -0.621771,-0.0529 -0.383645,-0.0926 -0.343959,-0.13229 -0.343958,-0.22489 -0.02646,-0.0132 0.291041,-1.5875 0.07937,0.0265 0.06615,0.0265 0.277813,0.0661 0.383645,0.0529 0.621771,0.0265 0.635,-0.0265 0.410104,-0.0661 0.251355,-0.0529 0.05292,-0.0265 0.07938,-0.0265"
       style="fill:#198a49;stroke:none;stroke-width:0.26458332" />
    <path
       id="path8941"
       d="m 47.625,277.92353 0.185208,0.0794 q 0.740834,0.39687 0.740834,0.9525 0,0.55562 -0.740834,0.93927 -0.740833,0.39687 -1.799166,0.39687 -1.058334,0 -1.799167,-0.39687 -0.740833,-0.38365 -0.740833,-0.93927 0,-0.55563 0.740833,-0.9525 l 0.145521,-0.0661 q 0.211666,0.18521 0.463021,0.33073 v 0.11906 q 0,0.48948 0.330729,0.82021 0.330729,0.33073 0.820208,0.33073 h 0.01323 q 0.47625,0 0.79375,-0.3175 l 0.03969,-0.0397 q 0.3175,-0.3175 0.3175,-0.79375 v -0.11912 L 47.625,277.92353"
       style="fill:#000000;fill-opacity:0.10196078;stroke:none;stroke-width:0.26458332" />
    <path
       id="path8943"
       d="m 46.606354,277.92353 v 0.46302 q 0,0.26458 -0.185208,0.43656 -0.171979,0.18521 -0.436563,0.18521 h -0.01323 q -0.264583,0 -0.449792,-0.18521 -0.171979,-0.17198 -0.171979,-0.43656 v -0.46302 l 0.621771,0.0926 0.635,-0.0926"
       style="fill:#bb8044;stroke:none;stroke-width:0.26458332" />
    <path
       id="path8945"
       d="m 44.158958,280.68842 0.463021,-0.29104 0.05292,-0.0397 q 0.291041,-0.33073 0.304271,-0.78052 v -0.22489 q 0,-1.94469 -0.357188,-3.3073 -0.370417,-1.3626 -0.886354,-1.3626 -0.515938,0 -0.873125,1.3626 -0.370417,1.36261 -0.370417,3.3073 v 0.22489 q 0.01323,0.44979 0.330729,0.78052 l 0.03969,0.0397 q 0.211667,0.21167 0.463021,0.29104 v 0.30428 q 0,0.17197 0.119062,0.29104 l 0.291042,0.11906 h 0.01323 q 0.171979,0 0.277813,-0.11906 0.132291,-0.11907 0.132291,-0.29104 v -0.30428 m -1.799166,-0.0661 q -0.383646,-0.44979 -0.396875,-1.03187 v -0.0132 -0.2249 q 0,-2.02406 0.396875,-3.43958 0.489479,-1.87854 1.375833,-1.75948 0.886354,-0.13229 1.402292,1.75948 0.370416,1.41552 0.370416,3.43958 v 0.2249 0.0132 q -0.01323,0.58208 -0.370416,1.0451 l -0.132292,0.14552 h -0.01323 l -0.304271,0.23813 q 0,0.35719 -0.264583,0.62177 l -0.03969,0.0397 q -0.251354,0.23813 -0.635,0.25135 h -0.01323 q -0.396875,0 -0.661458,-0.26458 -0.264584,-0.26458 -0.277813,-0.64823 l -0.304271,-0.23812 h 0.01323 l -0.14552,-0.15875"
       style="fill:#115f32;stroke:none;stroke-width:0.26458332" />
    <path
       id="path8947"
       d="m 43.325521,280.68842 q -0.251354,-0.0794 -0.463021,-0.29104 l -0.03969,-0.0397 q -0.3175,-0.33073 -0.330729,-0.78052 v -0.22489 q 0,-1.94469 0.370417,-3.3073 0.357187,-1.3626 0.873125,-1.3626 0.515937,0 0.886354,1.3626 0.357188,1.36261 0.357188,3.3073 v 0.22489 q -0.01323,0.44979 -0.304271,0.78052 l -0.05292,0.0397 -0.463021,0.29104 -0.423333,0.0661 -0.410104,-0.0661"
       style="fill:#1b914d;stroke:none;stroke-width:0.26458332" />
    <path
       id="path8949"
       d="m 45.137917,280.63551 q 0.396875,0.30427 0.396875,0.71437 0,0.47625 -0.529167,0.82021 -0.515938,0.34396 -1.256771,0.34396 -0.740833,0 -1.27,-0.34396 -0.515937,-0.34396 -0.515937,-0.82021 0,-0.4101 0.396875,-0.7276 l 0.14552,0.15875 h -0.01323 l 0.304271,0.23812 q 0.01323,0.38365 0.277813,0.64823 0.264583,0.26459 0.661458,0.26459 h 0.01323 q 0.383646,-0.0132 0.635,-0.25136 l 0.03969,-0.0397 q 0.264583,-0.26458 0.264583,-0.62177 l 0.304271,-0.23812 h 0.01323 l 0.132292,-0.14552"
       style="fill:#000000;fill-opacity:0.10196078;stroke:none;stroke-width:0.26458332" />
    <path
       id="path8951"
       d="m 44.158958,280.68842 v 0.30428 q 0,0.17197 -0.132291,0.29104 -0.105834,0.11906 -0.277813,0.11906 h -0.01323 l -0.291042,-0.11906 Q 43.32552,281.16467 43.32552,280.9927 v -0.30428 l 0.410104,0.0661 0.423333,-0.0661"
       style="fill:#bb8044;stroke:none;stroke-width:0.26458332" />
    <path
       id="path8953"
       d="m 50.680937,280.07988 q -0.383645,-0.44979 -0.396875,-1.03187 v -0.0132 -0.2249 q 0,-2.02406 0.396875,-3.43958 0.48948,-1.87854 1.375834,-1.75948 0.886354,-0.13229 1.402291,1.75948 0.370417,1.41552 0.370417,3.43958 v 0.2249 0.0132 q -0.01323,0.58208 -0.370417,1.0451 l -0.132291,0.14552 h -0.01323 l -0.304271,0.23813 q 0,0.35719 -0.264584,0.62177 l -0.03969,0.0397 q -0.251354,0.23812 -0.635,0.25135 h -0.01323 q -0.396875,0 -0.661459,-0.26458 -0.264583,-0.26458 -0.277812,-0.64823 l -0.304271,-0.23813 h 0.01323 l -0.145521,-0.15875 m 1.799167,0.0661 q 0.251354,-0.0926 0.463021,-0.29104 l 0.05292,-0.0397 q 0.291041,-0.33073 0.30427,-0.78052 v -0.22489 q 0,-1.94469 -0.357187,-3.30729 -0.370417,-1.36261 -0.886354,-1.36261 -0.515938,0 -0.873125,1.36261 -0.370417,1.3626 -0.370417,3.30729 v 0.22489 q 0.01323,0.44979 0.330729,0.78052 l 0.03969,0.0397 0.463021,0.29104 v 0.30428 q 0,0.17197 0.119062,0.29104 0.119063,0.11906 0.291042,0.11906 H 52.07 l 0.277812,-0.11906 q 0.132292,-0.11907 0.132292,-0.29104 v -0.30428"
       style="fill:#115f32;stroke:none;stroke-width:0.26458332" />
    <path
       id="path8955"
       d="m 52.480104,280.14603 -0.423333,0.0661 -0.410104,-0.0661 -0.463021,-0.29104 -0.03969,-0.0397 q -0.3175,-0.33073 -0.330729,-0.78052 v -0.2249 q 0,-1.94469 0.370417,-3.30729 0.357187,-1.3626 0.873125,-1.3626 0.515937,0 0.886354,1.3626 0.357187,1.3626 0.357187,3.30729 v 0.2249 q -0.01323,0.44979 -0.30427,0.78052 l -0.05292,0.0397 q -0.211667,0.19843 -0.463021,0.29104"
       style="fill:#1b914d;stroke:none;stroke-width:0.26458332" />
    <path
       id="path8957"
       d="m 53.459062,280.09311 q 0.396875,0.30427 0.396875,0.71438 0,0.47625 -0.529166,0.82021 -0.515938,0.34395 -1.256771,0.34395 -0.740833,0 -1.27,-0.34395 -0.515938,-0.34396 -0.515938,-0.82021 0,-0.41011 0.396875,-0.72761 l 0.145521,0.15875 h -0.01323 l 0.304271,0.23813 q 0.01323,0.38364 0.277812,0.64823 0.264584,0.26458 0.661459,0.26458 H 52.07 q 0.383646,-0.0132 0.635,-0.25135 l 0.03969,-0.0397 q 0.264584,-0.26459 0.264584,-0.62177 l 0.304271,-0.23813 h 0.01323 l 0.132291,-0.14552"
       style="fill:#000000;fill-opacity:0.10196078;stroke:none;stroke-width:0.26458332" />
    <path
       id="path8959"
       d="m 52.480104,280.14603 v 0.30427 q 0,0.17198 -0.132292,0.29104 L 52.07,280.8604 h -0.01323 q -0.171979,0 -0.291042,-0.11906 -0.119062,-0.11906 -0.119062,-0.29104 v -0.30427 l 0.410104,0.0661 0.423333,-0.0661"
       style="fill:#bb8044;stroke:none;stroke-width:0.26458332" />
    <path
       id="path8961"
       d="m 50.892604,282.06426 -0.489479,0.34396 v 0.11906 q 0,0.47625 -0.3175,0.79375 l -0.03969,0.0397 q -0.3175,0.3175 -0.79375,0.3175 h -0.01323 q -0.489479,0 -0.820208,-0.33073 -0.330729,-0.33073 -0.330729,-0.82021 v -0.11906 l -0.463018,-0.33074 -0.105833,-0.0926 q -0.687917,-0.68791 -0.714375,-1.61396 v -0.0265 -0.34395 q 0,-2.95011 0.542395,-5.02709 l 0.03969,-0.15875 q 0.277812,-1.07156 0.648229,-1.6801 0.515938,-0.87313 1.203854,-0.80698 0.687917,-0.0661 1.217084,0.82021 0.357187,0.60854 0.648229,1.66687 l 0.03969,0.13229 q 0.529167,2.09021 0.529167,5.05355 v 0.34395 0.0265 q -0.02646,0.92605 -0.701146,1.61396 l -0.07938,0.0794 m -0.224896,-6.79979 -0.07938,-0.3175 -0.132291,-0.46302 q -0.449792,-1.42875 -1.045105,-1.60073 l -0.171979,-0.0265 -0.171979,0.0265 q -0.595312,0.17198 -1.031875,1.60073 l -0.145521,0.46302 -0.07937,0.3175 -0.291041,1.5875 -0.06615,0.59531 -0.06615,0.82021 -0.05292,1.28323 v 0.18521 0.26458 0.34396 q 0.02646,0.72761 0.555625,1.25677 l 0.343959,0.27781 0.383645,0.18521 v 0.46302 q 0,0.26459 0.17198,0.43657 0.185208,0.1852 0.449791,0.1852 h 0.01323 q 0.264584,0 0.436563,-0.1852 0.185208,-0.17198 0.185208,-0.43657 v -0.46302 l 0.410114,-0.19844 0.304271,-0.26458 q 0.529167,-0.52917 0.555625,-1.25677 v -0.34396 -0.26459 -0.1852 l -0.05292,-1.28323 -0.06615,-0.82021 -0.06615,-0.59531 -0.291042,-1.5875"
       style="fill:#115f32;stroke:none;stroke-width:0.26458332" />
    <path
       id="path8963"
       d="m 50.667708,275.26447 -0.07938,0.0265 -0.05292,0.0265 -0.251355,0.0529 -0.410104,0.0661 -0.635,0.0265 -0.621771,-0.0265 -0.383645,-0.0529 -0.277813,-0.0661 -0.06615,-0.0265 -0.07937,-0.0265 0.07937,-0.3175 0.145521,-0.46302 q 0.436563,-1.42875 1.031875,-1.60073 l 0.171979,-0.0265 0.171979,0.0265 q 0.595313,0.17198 1.045105,1.60073 l 0.132291,0.46302 0.07938,0.3175 m 0.291042,1.5875 0.06615,0.59531 0.06615,0.82021 q -0.119063,0.29104 -0.502709,0.51593 l -0.304271,0.15875 -0.410104,0.11907 -0.635,0.0661 -0.621771,-0.0661 -0.383645,-0.10584 -0.343959,-0.17198 q -0.383646,-0.22489 -0.502708,-0.51593 l 0.06615,-0.82021 0.06615,-0.59531 0.02646,0.0132 0.343958,0.22489 0.343959,0.13229 0.383645,0.0926 0.621771,0.0529 0.635,-0.0529 0.410104,-0.0926 0.304271,-0.13229 0.357188,-0.22489 0.01323,-0.0132 m 0.185208,2.88395 v 0.26459 0.34396 q -0.02646,0.7276 -0.555625,1.25677 l -0.304271,0.26458 -0.410104,0.19844 -0.635,0.0926 -0.621771,-0.0926 -0.383645,-0.18521 -0.343959,-0.27781 q -0.529177,-0.52917 -0.555636,-1.25677 v -0.34396 -0.26459 q 0.02646,0.58209 0.555625,0.99219 l 0.343959,0.2249 0.383645,0.14552 0.621771,0.0794 0.635,-0.0794 0.410104,-0.15875 0.304271,-0.21167 q 0.529167,-0.4101 0.555625,-0.99219"
       style="fill:#1b914d;stroke:none;stroke-width:0.26458332" />
    <path
       id="path8965"
       d="m 50.667708,275.26447 0.291042,1.5875 -0.01323,0.0132 -0.357188,0.22489 -0.304271,0.13229 -0.410104,0.0926 -0.635,0.0529 -0.621771,-0.0529 -0.383645,-0.0926 -0.343959,-0.13229 -0.343958,-0.22489 -0.02646,-0.0132 0.291041,-1.5875 0.07937,0.0265 0.06615,0.0265 0.277813,0.0661 0.383645,0.0529 0.621771,0.0265 0.635,-0.0265 0.410104,-0.0661 0.251355,-0.0529 0.05292,-0.0265 0.07938,-0.0265 m 0.423334,3.00302 0.05292,1.28323 v 0.1852 q -0.02646,0.58209 -0.555625,0.99219 l -0.304271,0.21167 -0.410104,0.15875 -0.635,0.0794 -0.621771,-0.0794 -0.383645,-0.14552 -0.343959,-0.2249 q -0.529166,-0.4101 -0.555625,-0.99219 v -0.1852 l 0.05292,-1.28323 q 0.119062,0.29104 0.502708,0.51593 l 0.343959,0.17198 0.383645,0.10584 0.621771,0.0661 0.635,-0.0661 0.410104,-0.11907 0.304271,-0.15875 q 0.383646,-0.22489 0.502709,-0.51593"
       style="fill:#198a49;stroke:none;stroke-width:0.26458332" />
    <path
       id="path8967"
       d="m 49.873958,282.06426 v 0.46302 q 0,0.26458 -0.185208,0.43656 -0.171979,0.18521 -0.436563,0.18521 h -0.01323 q -0.264583,0 -0.449791,-0.18521 -0.17198,-0.17198 -0.17198,-0.43656 v -0.46302 l 0.621771,0.0926 0.635,-0.0926"
       style="fill:#bb8044;stroke:none;stroke-width:0.26458332" />
    <path
       id="path8969"
       d="m 50.892604,282.06426 0.185208,0.0794 q 0.740834,0.39687 0.740834,0.9525 0,0.55562 -0.740834,0.93927 -0.740833,0.39687 -1.799166,0.39687 -1.058334,0 -1.799167,-0.39687 -0.740833,-0.38365 -0.740833,-0.93927 0,-0.55563 0.740833,-0.9525 l 0.145521,-0.0662 0.463021,0.33073 v 0.11906 q 0,0.48948 0.330729,0.82021 0.330729,0.33073 0.820208,0.33073 h 0.01323 q 0.47625,0 0.79375,-0.3175 l 0.03969,-0.0397 q 0.3175,-0.3175 0.3175,-0.79375 v -0.11907 l 0.489479,-0.34395"
       style="fill:#000000;fill-opacity:0.10196078;stroke:none;stroke-width:0.26458332" />
    <path
       id="path8971"
       d="m 52.771146,271.05759 q 0.251354,-0.0926 0.463021,-0.29104 l 0.05292,-0.0397 q 0.291042,-0.33073 0.304271,-0.78052 v -0.22489 q 0,-1.94469 -0.357187,-3.3073 -0.370417,-1.3626 -0.886354,-1.3626 -0.515938,0 -0.873125,1.3626 -0.370417,1.36261 -0.370417,3.3073 v 0.22489 q 0.01322,0.44979 0.330725,0.78052 l 0.03969,0.0397 q 0.211666,0.21167 0.46302,0.29105 v 0.30427 q 0,0.17198 0.119063,0.29104 0.119062,0.11906 0.291042,0.11906 h 0.01323 q 0.171979,0 0.277812,-0.11906 0.132292,-0.11906 0.132292,-0.29104 v -0.30427 m -1.799167,-0.0661 q -0.383649,-0.4498 -0.396878,-1.03188 v -0.0132 -0.22489 q 0,-2.02407 0.396875,-3.43959 0.489479,-1.87854 1.375833,-1.75948 0.886355,-0.13229 1.402292,1.75948 0.370417,1.41552 0.370417,3.43959 v 0.22489 0.0132 q -0.01323,0.58208 -0.370417,1.04511 l -0.132292,0.14552 h -0.01323 l -0.30427,0.23812 q 0,0.35719 -0.264583,0.62177 l -0.03969,0.0397 q -0.251355,0.23813 -0.635,0.25136 h -0.01323 q -0.396875,0 -0.661458,-0.26459 -0.26458,-0.26458 -0.277809,-0.64823 l -0.304271,-0.23812 h 0.01323 l -0.145521,-0.15875"
       style="fill:#115f32;stroke:none;stroke-width:0.26458332" />
    <path
       id="path8973"
       d="m 51.937708,271.05759 q -0.251354,-0.0794 -0.463021,-0.29104 l -0.03969,-0.0397 q -0.3175,-0.33073 -0.330729,-0.78052 v -0.2249 q 0,-1.94468 0.370416,-3.30729 0.357188,-1.3626 0.873125,-1.3626 0.515938,0 0.886355,1.3626 0.357187,1.36261 0.357187,3.30729 v 0.2249 q -0.01323,0.44979 -0.304271,0.78052 l -0.05292,0.0397 q -0.211667,0.19844 -0.463021,0.29104 l -0.423334,0.0661 -0.410104,-0.0661"
       style="fill:#1b914d;stroke:none;stroke-width:0.26458332" />
    <path
       id="path8975"
       d="m 53.750104,271.00468 q 0.396875,0.30427 0.396875,0.71437 0,0.47625 -0.529167,0.82021 -0.515937,0.34396 -1.25677,0.34396 -0.740834,0 -1.27,-0.34396 -0.515938,-0.34396 -0.515938,-0.82021 0,-0.4101 0.396875,-0.7276 l 0.145521,0.15875 h -0.01323 l 0.304272,0.23812 q 0.01323,0.38365 0.277812,0.64823 0.264583,0.26458 0.661458,0.26458 h 0.01323 q 0.383645,-0.0132 0.635,-0.25135 l 0.03969,-0.0397 q 0.26458,-0.26458 0.26458,-0.62177 l 0.304271,-0.23812 h 0.01323 l 0.132292,-0.14552"
       style="fill:#000000;fill-opacity:0.10196078;stroke:none;stroke-width:0.26458332" />
    <path
       id="path8977"
       d="m 52.771146,271.05759 v 0.30427 q 0,0.17198 -0.132292,0.29104 -0.105833,0.11907 -0.277812,0.11907 h -0.01323 q -0.171979,0 -0.291041,-0.11907 -0.119063,-0.11906 -0.119063,-0.29104 v -0.30427 l 0.410104,0.0661 0.423334,-0.0661"
       style="fill:#bb8044;stroke:none;stroke-width:0.26458332" />
    <path
       id="path8979"
       d="M 38.867292,284.49842 38.735,284.64395 h -0.01323 l -0.304271,0.23812 q 0,0.35719 -0.264583,0.62177 l -0.03969,0.0397 q -0.251354,0.23813 -0.635,0.25136 H 37.465 q -0.396875,0 -0.661458,-0.26459 -0.264584,-0.26458 -0.277813,-0.64823 l -0.304271,-0.23812 h 0.01323 l -0.14552,-0.15875 q -0.383646,-0.4498 -0.396875,-1.03188 v -0.0132 -0.2249 q 0,-2.02406 0.396875,-3.43958 0.489479,-1.87854 1.375833,-1.75948 0.886354,-0.13229 1.402292,1.75948 0.370416,1.41552 0.370416,3.43958 v 0.2249 0.0132 q -0.01323,0.58208 -0.370416,1.0451 m -0.978959,0.0529 0.463021,-0.29104 0.05292,-0.0397 q 0.291042,-0.33073 0.304271,-0.78052 v -0.22489 q 0,-1.94469 -0.357187,-3.3073 -0.370417,-1.3626 -0.886355,-1.3626 -0.515937,0 -0.873125,1.3626 -0.370417,1.36261 -0.370417,3.3073 v 0.22489 q 0.01323,0.44979 0.33073,0.78052 l 0.03969,0.0397 q 0.211666,0.21167 0.46302,0.29104 v 0.30428 q 0,0.17197 0.119063,0.29104 0.119062,0.11906 0.291042,0.11906 h 0.01323 q 0.171979,0 0.277812,-0.11906 0.132292,-0.11907 0.132292,-0.29104 v -0.30428"
       style="fill:#115f32;stroke:none;stroke-width:0.26458332" />
    <path
       id="path8981"
       d="m 37.054896,284.55134 q -0.251354,-0.0794 -0.463021,-0.29104 l -0.03969,-0.0397 q -0.3175,-0.33073 -0.330729,-0.78052 v -0.2249 q 0,-1.94469 0.370417,-3.30729 0.357187,-1.3626 0.873125,-1.3626 0.515937,0 0.886354,1.3626 0.357187,1.3626 0.357187,3.30729 v 0.2249 q -0.01323,0.44979 -0.304271,0.78052 l -0.05292,0.0397 -0.463021,0.29104 -0.423333,0.0661 -0.410104,-0.0661"
       style="fill:#1b914d;stroke:none;stroke-width:0.26458332" />
    <path
       id="path8983"
       d="m 37.054896,284.55134 0.410104,0.0661 0.423333,-0.0661 v 0.30427 q 0,0.17198 -0.132291,0.29104 -0.105834,0.11907 -0.277813,0.11907 h -0.01323 q -0.171979,0 -0.291042,-0.11907 -0.119062,-0.11906 -0.119062,-0.29104 v -0.30427"
       style="fill:#bb8044;stroke:none;stroke-width:0.26458332" />
    <path
       id="path8985"
       d="m 38.867292,284.49842 q 0.396875,0.30428 0.396875,0.71438 0,0.47625 -0.529167,0.82021 -0.515938,0.34396 -1.256771,0.34396 -0.740833,0 -1.27,-0.34396 -0.515937,-0.34396 -0.515937,-0.82021 0,-0.4101 0.396875,-0.7276 l 0.145521,0.15875 h -0.01323 l 0.30427,0.23812 q 0.01323,0.38365 0.277813,0.64823 0.264583,0.26458 0.661458,0.26458 h 0.01323 q 0.383646,-0.0132 0.635,-0.25135 l 0.03969,-0.0397 q 0.264584,-0.26458 0.264584,-0.62177 l 0.304271,-0.23812 H 38.735 l 0.132291,-0.14553"
       style="fill:#000000;fill-opacity:0.10196078;stroke:none;stroke-width:0.26458332" />
    <path
       id="path8987"
       d="m 53.803021,284.85561 q 0.251354,-0.0926 0.463021,-0.29104 l 0.05292,-0.0397 q 0.291038,-0.33073 0.304267,-0.78052 v -0.22489 q 0,-1.94469 -0.357187,-3.3073 -0.370417,-1.3626 -0.886355,-1.3626 -0.515937,0 -0.873125,1.3626 -0.370416,1.36261 -0.370416,3.3073 v 0.22489 q 0.01323,0.44979 0.330729,0.78052 l 0.03969,0.0397 q 0.211667,0.21167 0.463021,0.29104 v 0.30427 q 0,0.17198 0.119063,0.29105 0.119062,0.11906 0.291041,0.11906 h 0.01323 l 0.277812,-0.11906 q 0.132292,-0.11907 0.132292,-0.29105 v -0.30427 m -1.799167,-0.0661 q -0.383646,-0.44979 -0.396875,-1.03187 v -0.0132 -0.2249 q 0,-2.02406 0.396875,-3.43958 0.489479,-1.87854 1.375833,-1.75948 0.886355,-0.13229 1.402292,1.75948 0.370417,1.41552 0.370417,3.43958 v 0.2249 0.0132 q -0.01323,0.58208 -0.370417,1.0451 l -0.132292,0.14552 h -0.01323 l -0.304271,0.23813 q 0,0.35719 -0.264583,0.62177 l -0.03969,0.0397 q -0.251355,0.23813 -0.635,0.25135 h -0.01323 q -0.396875,0 -0.661458,-0.26458 -0.264583,-0.26458 -0.277812,-0.64823 l -0.304271,-0.23812 h 0.01323 l -0.145521,-0.15875"
       style="fill:#115f32;stroke:none;stroke-width:0.26458332" />
    <path
       id="path8989"
       d="m 52.969583,284.85561 q -0.251354,-0.0794 -0.463021,-0.29104 l -0.03969,-0.0397 q -0.3175,-0.33073 -0.330729,-0.78052 v -0.2249 q 0,-1.94468 0.370416,-3.30729 0.357188,-1.3626 0.873125,-1.3626 0.515938,0 0.886355,1.3626 0.357187,1.36261 0.357187,3.30729 v 0.2249 q -0.01323,0.44979 -0.304271,0.78052 l -0.05292,0.0397 q -0.211667,0.19844 -0.463021,0.29104 l -0.423334,0.0661 -0.410104,-0.0661"
       style="fill:#1b914d;stroke:none;stroke-width:0.26458332" />
    <path
       id="path8991"
       d="m 54.781979,284.8027 q 0.396875,0.30427 0.396875,0.71437 0,0.47625 -0.529167,0.82021 -0.515937,0.34396 -1.25677,0.34396 -0.740834,0 -1.27,-0.34396 -0.515938,-0.34396 -0.515938,-0.82021 0,-0.4101 0.396875,-0.7276 l 0.145521,0.15875 h -0.01323 l 0.304271,0.23812 q 0.01323,0.38365 0.277812,0.64823 0.264583,0.26458 0.661458,0.26458 h 0.01323 q 0.383645,-0.0132 0.635,-0.25135 l 0.03969,-0.0397 q 0.264583,-0.26458 0.264583,-0.62177 l 0.304271,-0.23813 h 0.01323 l 0.132292,-0.14552"
       style="fill:#000000;fill-opacity:0.10196078;stroke:none;stroke-width:0.26458332" />
    <path
       id="path8993"
       d="m 53.803021,284.85561 v 0.30427 q 0,0.17198 -0.132292,0.29104 l -0.277812,0.11907 h -0.01323 q -0.171979,0 -0.291041,-0.11907 -0.119063,-0.11906 -0.119063,-0.29104 v -0.30427 l 0.410104,0.0661 0.423334,-0.0661"
       style="fill:#bb8044;stroke:none;stroke-width:0.26458332" />
  </g>
</svg>
