<?xml version="1.0" encoding="UTF-8"?>
<!-- Created with Inkscape (http://www.inkscape.org/) -->
<svg id="svg614" width="480" height="840" version="1.1" viewBox="0 0 127 222.25001" xmlns="http://www.w3.org/2000/svg" xmlns:cc="http://creativecommons.org/ns#" xmlns:dc="http://purl.org/dc/elements/1.1/" xmlns:rdf="http://www.w3.org/1999/02/22-rdf-syntax-ns#"><metadata id="metadata611"><rdf:RDF><cc:Work rdf:about=""><dc:format>image/svg+xml</dc:format><dc:type rdf:resource="http://purl.org/dc/dcmitype/StillImage"/><dc:title/></cc:Work></rdf:RDF></metadata><g id="layer1" transform="translate(0 -74.75)"><g id="g4792" transform="translate(32.054)"><path id="path4790" d="m2.7525 106.72v-1.2802h19.844v2.5605h-19.844z" fill="#fc0" stroke="#fff" stroke-width=".26458"/></g><path id="path4926" d="m66.253 106.72v-1.2802h13.229v2.5605h-13.229z" fill="#ff0" stroke="#fff" stroke-width=".26458"/><g id="g5064" transform="translate(95.25)"><path id="path5062" d="m2.7525 106.72v-1.2802h6.6146v2.5605h-6.6146z" fill="#d40000" stroke="#fff" stroke-width=".26458"/></g><g id="g4656"><path id="path4453" d="m2.7525 106.72v-1.2802h26.245v2.5605h-26.245z" fill="#aad400" stroke="#fff" stroke-width=".26458"/></g><g id="g3485"><g id="g3129" transform="matrix(.055824 0 0 .055824 21.637 96.38)"><g id="g2296" transform="matrix(1.7502 0 0 1.7502 603.43 -20.15)"><g stroke="#000" stroke-width=".26458px"><path id="path2220" d="m-538.48 36.272c1.2761 5.5981 10.817 3.8255 15.783 6.2149 7.0133 1.6904 14.027 3.3808 21.04 5.0712-2.4549-5.6748-11.029-4.009-16.306-6.3468-6.839-1.6464-13.678-3.2928-20.517-4.9393z" fill="#2d2e2d"/><path id="path2222" d="m-517.84 72.128c-3.802-8.1745 11.878-1.2938 8.8909-10.795-.2419-7.5395 2.3692-12.052 10.098-11.133 10.849-1.2573 21.697-2.5146 32.546-3.7719 4.218 4.2192 12.741 1.1484 9.6675 10.284-.1097 3.9755 1.0747 9.1178-4.6621 8.0194-18.847 2.4655-37.694 4.9311-56.54 7.3966z" fill="#343734"/><path id="path2224" d="m-490.85 57.123c12 .84147 27.515-1.9404 37.335 1.1478 3.8817 7.4537-.53646 10.977-7.5052 9.2117-11.219-.20123-22.437-.40246-33.656-.60369.14009-3.4767.2455-7.9417 3.8258-9.7558z" fill="#6c786f"/></g><g id="g2234" transform="rotate(-3.2589 3976.1 310.06)" stroke="#000"><path id="path2226" d="m-349.75-162.06c12.669 2.6682 23.406-3.902 25.855-16.913 4.5544-14.019-.88393-33.617-16.27-37.99-7.4143-1.2767-17.528-1.0817-13.177 9.0556 1.1974 15.282 2.3947 30.564 3.5921 45.847z" fill="#5c6062" stroke-width=".26189px"/><g><path id="ellipse2228" d="m-333.89-189.54c.0353 10.394-3.1429 25.307-15.246 27.351-9.9278-.28196-14.381-11.906-15.734-20.302-1.1863-9.9143.36053-20.547 5.2685-29.244 11.27-13.05 26.034 2.4576 25.26 15.592.30191 2.1873.44498 4.3955.45177 6.6031z" fill="#545452" stroke-width=".2758px"/><path id="ellipse2230" d="m-341.67-191.15c2.1856 9.5665-10.641 22.836-17.214 10.56-6.9608-8.3202-1.0516-31.655 11.911-24.501 3.7241 3.4982 5.4328 8.9211 5.303 13.942z" fill="#53544d" stroke-width=".16587px"/><path id="ellipse2232" d="m-344.14-189.99c1.214 17.038-16.339 7.5123-10.704-4.376 2.598-11.234 12.009-4.2146 10.704 4.376z" fill="#202626" stroke-width=".18507px"/></g></g><path id="path2236" d="m-447.87 57.423c25.327-1.9905 50.654-3.9809 75.981-5.9714 8.5737 9.4408-5.1133 11.95-12.364 11.369-20.774 1.7251-41.548 3.4503-62.322 5.1754-.43165-3.5245-.86331-7.0489-1.295-10.573z" fill="#353a37" stroke="#000" stroke-width=".23811px"/><path id="path2238" d="m-445.05 9.3028c-2.0009 6.6306-4.0019 13.261-6.0028 19.892 4.5459 11.485 13.449 19.049 24.326 24.273 4.512 4.057 10.113 3.5403 15.645 2.9233 8.6637-.55831 17.327-1.1166 25.991-1.6749 2.7445-8.0548 10.32-16.303 5.1705-24.788-1.7006-4.9624-3.4012-9.9248-5.1019-14.887-8.7798-3.2732-16.855-10.24-26.152-11.076-11.292 1.7792-22.584 3.5584-33.876 5.3376z" fill="#464e48" stroke="#000" stroke-width=".27101"/><g id="g2248" transform="translate(-21.424 246.38)" stroke="#000"><path id="path2240" d="m-426.58-148.9c11.954 1.4389 23.524-1.1847 25.024-15.022 3.735-13.459 1.5856-29.371-7.8668-39.992-8.0936-7.4352-23.026-5.7202-17.921 7.9657.25459 15.683.50917 31.365.76376 47.048z" fill="#4b4f50" stroke-width=".26458px"/><g><path id="ellipse2242" d="m-412.82-178.26c-.50927 10.252-1.295 25.409-13.07 28.829-10.259-.16989-13.254-13.471-14.544-21.773-.87217-10.067.55544-20.522 4.1891-29.882 7.9407-12.973 21.915-1.9766 21.987 9.782 1.0053 4.2696 1.4124 8.6632 1.4376 13.044z" fill="#474a4d" stroke-width=".26807px"/><path id="ellipse2244" d="m-416.27-177.31c2.4689 9.6319-8.7967 28.811-16.85 14.193-4.5957-10.049-5.3712-27.511 5.1434-33.655 10.662-1.3064 11.224 12.078 11.707 19.462z" fill="#404245" stroke-width=".18713px"/><path id="ellipse2246" d="m-417.71-177.5c3.105 12.432-14.088 21.482-15.599 5.0647-4.1468-9.2832 6.7647-29.546 14.31-13.863 1.2101 2.7561 1.0724 5.8604 1.2897 8.7986z" fill="#666a6d" stroke-width=".26458px"/></g></g><g stroke="#000"><g stroke-width=".26458px"><path id="path2250" d="m-423.15 39.8c11.451 9.0269 26.182-8.3216 13.905-17.638-8.2497-5.2664-5.7995 5.0265-3.4105 9.2944-1.9948 5.8292-10.608.39011-10.494 8.3438z" fill="#1f2524"/><path id="path2252" d="m-361.34-8.7593c-21.281 11.813-42.562 23.626-63.844 35.439-.12107 11.876 12.456 7.9915 18.719 3.5675 16.53-8.3581 33.059-16.716 49.589-25.074-1.4879-4.644-2.9758-9.288-4.4637-13.932z" fill="#3d3f3e"/><path id="path2254" d="m-429.78 16.805c-13.633 3.6825 2.9951 29.488 8.2722 18.826-5.2987-5.8938-10.532-12.01-.14117-15.717 3.8405-13.358-4.4212-2.612-8.1311-3.1086z" fill="#564c48"/><path id="path2256" d="m-412.23-12.507c14.812-.3022 29.609-1.0934 44.398-1.9336-10.888 8.7219-22.849 16.408-35.925 21.211-4.6092-4.2201-21.585-1.5673-15.59-10.696 8.593-1.3523-2.6629-5.6488 5.6361-7.5977z" fill="#59665f"/><path id="path2258" d="m-398.81-19.039c-2.0585 9.1047 5.4768 8.4606 11.743 7.8554 7.8071-.18591 15.614-.37182 23.421-.55772 4.2535-11.603-9.8538-8.5513-16.83-8.2-6.1115.30077-12.223.60155-18.334.90232z" fill="#7a8781"/><path id="path2260" d="m-375.32-20.415c3.4942 2.3232 6.7333 10.094 5.6413.80737-.79424-2.5492-4.1972-3.2784-5.6413-.80737z" fill="#5c6464"/><path id="path2262" d="m-426.67 15.182c-6.8257 8.2534 3.5606 16.671 10.124 7.8117 18.432-10.239 36.864-20.479 55.295-30.718-5.0767-16.25-17.75-1.2958-27.065 2.2047-12.785 6.9006-25.57 13.801-38.354 20.702z" fill="#292d2d"/><path id="path2264" d="m-366.51-17.289c20.075-11.675 40.15-23.35 60.224-35.025 2.8249 6.3193 6.5345 12.645-2.6874 14.548-17.426 10.014-34.851 20.028-52.276 30.041-2.8233-2.4201-4.7662-5.8691-5.2605-9.5645z" fill="#635753"/><path id="path2266" d="m-439.11 1.5767c-7.8108 13.165 10.877 13.716 18.772 11.35 8.5143-5.9327.41474-19.951-9.1958-13.026-3.1921.5585-6.3842 1.117-9.5763 1.6755z" fill="#757f7c"/></g><g><path id="ellipse2268" d="m-414.84 4.2235c2.2722 16.77-12.366-5.0004-2.3324-5.3503 1.4898 1.4049 1.8038 3.4874 2.3324 5.3503z" fill="#666f6c" stroke-width=".26458px"/><path id="path2270" d="m-417.64 2.3999c-1.8637 10.237 23.294-.95999 8.6344-.80113-2.8781.26704-5.7563.53409-8.6344.80113z" fill="#757f7c" stroke-width=".26458px"/><path id="ellipse2272" d="m-357.59-1.961c5.0209 15.483-12.56-2.6162-3.1234-4.6647 1.6505 1.0747 2.3042 2.992 3.1234 4.6647z" fill="#363837" stroke-width=".24328px"/></g><path id="path2274" d="m-360.17-4.4781c4.7342-3.0209 9.4683-6.0417 14.203-9.0626 5.4644 6.9458.1064 10.685-6.1466 13.014-4.7926 3.1354-9.1212 4.9605-8.0559-3.9515z" fill="#292a2d" stroke-width=".26458px"/><path id="ellipse2276" d="m-342.61-10.125c.89185 15.115-7.9226-11.65 0 0z" fill="#18191b" stroke-width=".26119px"/><g stroke-width=".26458px"><path id="path2278" d="m-306.29-52.314c.39081-7.0028 11.758-11.425 10.377-1.5338 5.2168 4.2182 8.2072 10.014-.77875 11.873-5.5011 1.3616-9.828-5.5465-9.5981-10.34z" fill="#303534"/><path id="path2280" d="m-296.69-61.094c6.2988-7.0227 19.252-19.046 23.407-4.1043 5.3714 5.7792 6.6725 10.311-1.9092 12.964-8.956 8.0787-23.376 5.6653-21.498-8.8597z" fill="#5b6369"/><path id="path2282" d="m-294.92-58.536c2.8714-10.681 8.0879 8.32 6.6656 6.9994-4.1058.82518-8.2611-2.6715-6.6656-6.9994z" fill="#262a2b"/><path id="ellipse2284" d="m-270.46-67.646c6.3376 5.4048 2.0139 16.353-5.0204 7.1155-6.7373-4.466-5.3611-19.953 3.1902-9.3932l1.1061 1.2931z" fill="#3d4246"/></g></g><path id="ellipse2286" d="m-396.79-14.778c-4.054 12.269-3.3545-11.773 0 0z" fill="#7a8990" fill-opacity=".99251" stroke="#544328" stroke-opacity=".98431" stroke-width=".27212"/><g stroke="#000" stroke-width=".26458px"><path id="path2288" d="m-393.81-19.502c3.4942 2.3232 6.7333 10.094 5.6413.80737-.79424-2.5492-4.1972-3.2784-5.6413-.80737z" fill="#5c6464"/><path id="path2290" d="m-404.52 1.1825c7.3426-.67404-.8547 7.9271 0 0z" fill="#646d6a"/><path id="path2292" d="m-501.18 50.428c-12.604 3.4502 10.718 25.391 8.6262 7.228.86412-3.1632-6.4544-4.8009-8.6262-7.228z" fill="#636664"/><path id="path2294" d="m-503.9 50.486c-2.4127-7.7553 1.2202-11.97 8.6975-9.4779 4.9474-1.2811 13.659 3.5727 8.8902 7.9207-5.8631-.09875-11.734 1.103-17.588 1.5572z" fill="#21262b"/></g></g></g></g><g id="g7235" transform="translate(31.75)"><g id="g7233" transform="matrix(.055824 0 0 .055824 21.637 96.38)"><g id="g7231" transform="matrix(1.7502 0 0 1.7502 603.43 -20.15)"><g stroke="#000" stroke-width=".26458px"><path id="path7155" d="m-538.48 36.272c1.2761 5.5981 10.817 3.8255 15.783 6.2149 7.0133 1.6904 14.027 3.3808 21.04 5.0712-2.4549-5.6748-11.029-4.009-16.306-6.3468-6.839-1.6464-13.678-3.2928-20.517-4.9393z" fill="#2d2e2d"/><path id="path7157" d="m-517.84 72.128c-3.802-8.1745 11.878-1.2938 8.8909-10.795-.2419-7.5395 2.3692-12.052 10.098-11.133 10.849-1.2573 21.697-2.5146 32.546-3.7719 4.218 4.2192 12.741 1.1484 9.6675 10.284-.1097 3.9755 1.0747 9.1178-4.6621 8.0194-18.847 2.4655-37.694 4.9311-56.54 7.3966z" fill="#343734"/><path id="path7159" d="m-490.85 57.123c12 .84147 27.515-1.9404 37.335 1.1478 3.8817 7.4537-.53646 10.977-7.5052 9.2117-11.219-.20123-22.437-.40246-33.656-.60369.14009-3.4767.2455-7.9417 3.8258-9.7558z" fill="#6c786f"/></g><g id="g7169" transform="rotate(-3.2589 3976.1 310.06)" stroke="#000"><path id="path7161" d="m-349.75-162.06c12.669 2.6682 23.406-3.902 25.855-16.913 4.5544-14.019-.88393-33.617-16.27-37.99-7.4143-1.2767-17.528-1.0817-13.177 9.0556 1.1974 15.282 2.3947 30.564 3.5921 45.847z" fill="#5c6062" stroke-width=".26189px"/><g><path id="path7163" d="m-333.89-189.54c.0353 10.394-3.1429 25.307-15.246 27.351-9.9278-.28196-14.381-11.906-15.734-20.302-1.1863-9.9143.36053-20.547 5.2685-29.244 11.27-13.05 26.034 2.4576 25.26 15.592.30191 2.1873.44498 4.3955.45177 6.6031z" fill="#545452" stroke-width=".2758px"/><path id="path7165" d="m-341.67-191.15c2.1856 9.5665-10.641 22.836-17.214 10.56-6.9608-8.3202-1.0516-31.655 11.911-24.501 3.7241 3.4982 5.4328 8.9211 5.303 13.942z" fill="#53544d" stroke-width=".16587px"/><path id="path7167" d="m-344.14-189.99c1.214 17.038-16.339 7.5123-10.704-4.376 2.598-11.234 12.009-4.2146 10.704 4.376z" fill="#202626" stroke-width=".18507px"/></g></g><path id="path7171" d="m-447.87 57.423c25.327-1.9905 50.654-3.9809 75.981-5.9714 8.5737 9.4408-5.1133 11.95-12.364 11.369-20.774 1.7251-41.548 3.4503-62.322 5.1754-.43165-3.5245-.86331-7.0489-1.295-10.573z" fill="#353a37" stroke="#000" stroke-width=".23811px"/><path id="path7173" d="m-445.05 9.3028c-2.0009 6.6306-4.0019 13.261-6.0028 19.892 4.5459 11.485 13.449 19.049 24.326 24.273 4.512 4.057 10.113 3.5403 15.645 2.9233 8.6637-.55831 17.327-1.1166 25.991-1.6749 2.7445-8.0548 10.32-16.303 5.1705-24.788-1.7006-4.9624-3.4012-9.9248-5.1019-14.887-8.7798-3.2732-16.855-10.24-26.152-11.076-11.292 1.7792-22.584 3.5584-33.876 5.3376z" fill="#464e48" stroke="#000" stroke-width=".27101"/><g id="g7183" transform="translate(-21.424 246.38)" stroke="#000"><path id="path7175" d="m-426.58-148.9c11.954 1.4389 23.524-1.1847 25.024-15.022 3.735-13.459 1.5856-29.371-7.8668-39.992-8.0936-7.4352-23.026-5.7202-17.921 7.9657.25459 15.683.50917 31.365.76376 47.048z" fill="#4b4f50" stroke-width=".26458px"/><g><path id="path7177" d="m-412.82-178.26c-.50927 10.252-1.295 25.409-13.07 28.829-10.259-.16989-13.254-13.471-14.544-21.773-.87217-10.067.55544-20.522 4.1891-29.882 7.9407-12.973 21.915-1.9766 21.987 9.782 1.0053 4.2696 1.4124 8.6632 1.4376 13.044z" fill="#474a4d" stroke-width=".26807px"/><path id="path7179" d="m-416.27-177.31c2.4689 9.6319-8.7967 28.811-16.85 14.193-4.5957-10.049-5.3712-27.511 5.1434-33.655 10.662-1.3064 11.224 12.078 11.707 19.462z" fill="#404245" stroke-width=".18713px"/><path id="path7181" d="m-417.71-177.5c3.105 12.432-14.088 21.482-15.599 5.0647-4.1468-9.2832 6.7647-29.546 14.31-13.863 1.2101 2.7561 1.0724 5.8604 1.2897 8.7986z" fill="#666a6d" stroke-width=".26458px"/></g></g><g stroke="#000"><g stroke-width=".26458px"><path id="path7185" d="m-423.15 39.8c11.451 9.0269 26.182-8.3216 13.905-17.638-8.2497-5.2664-5.7995 5.0265-3.4105 9.2944-1.9948 5.8292-10.608.39011-10.494 8.3438z" fill="#1f2524"/><path id="path7187" d="m-361.34-8.7593c-21.281 11.813-42.562 23.626-63.844 35.439-.12107 11.876 12.456 7.9915 18.719 3.5675 16.53-8.3581 33.059-16.716 49.589-25.074-1.4879-4.644-2.9758-9.288-4.4637-13.932z" fill="#3d3f3e"/><path id="path7189" d="m-429.78 16.805c-13.633 3.6825 2.9951 29.488 8.2722 18.826-5.2987-5.8938-10.532-12.01-.14117-15.717 3.8405-13.358-4.4212-2.612-8.1311-3.1086z" fill="#564c48"/><path id="path7191" d="m-412.23-12.507c14.812-.3022 29.609-1.0934 44.398-1.9336-10.888 8.7219-22.849 16.408-35.925 21.211-4.6092-4.2201-21.585-1.5673-15.59-10.696 8.593-1.3523-2.6629-5.6488 5.6361-7.5977z" fill="#59665f"/><path id="path7193" d="m-398.81-19.039c-2.0585 9.1047 5.4768 8.4606 11.743 7.8554 7.8071-.18591 15.614-.37182 23.421-.55772 4.2535-11.603-9.8538-8.5513-16.83-8.2-6.1115.30077-12.223.60155-18.334.90232z" fill="#7a8781"/><path id="path7195" d="m-375.32-20.415c3.4942 2.3232 6.7333 10.094 5.6413.80737-.79424-2.5492-4.1972-3.2784-5.6413-.80737z" fill="#5c6464"/><path id="path7197" d="m-426.67 15.182c-6.8257 8.2534 3.5606 16.671 10.124 7.8117 18.432-10.239 36.864-20.479 55.295-30.718-5.0767-16.25-17.75-1.2958-27.065 2.2047-12.785 6.9006-25.57 13.801-38.354 20.702z" fill="#292d2d"/><path id="path7199" d="m-366.51-17.289c20.075-11.675 40.15-23.35 60.224-35.025 2.8249 6.3193 6.5345 12.645-2.6874 14.548-17.426 10.014-34.851 20.028-52.276 30.041-2.8233-2.4201-4.7662-5.8691-5.2605-9.5645z" fill="#635753"/><path id="path7201" d="m-439.11 1.5767c-7.8108 13.165 10.877 13.716 18.772 11.35 8.5143-5.9327.41474-19.951-9.1958-13.026-3.1921.5585-6.3842 1.117-9.5763 1.6755z" fill="#757f7c"/></g><g><path id="path7203" d="m-414.84 4.2235c2.2722 16.77-12.366-5.0004-2.3324-5.3503 1.4898 1.4049 1.8038 3.4874 2.3324 5.3503z" fill="#666f6c" stroke-width=".26458px"/><path id="path7205" d="m-417.64 2.3999c-1.8637 10.237 23.294-.95999 8.6344-.80113-2.8781.26704-5.7563.53409-8.6344.80113z" fill="#757f7c" stroke-width=".26458px"/><path id="path7207" d="m-357.59-1.961c5.0209 15.483-12.56-2.6162-3.1234-4.6647 1.6505 1.0747 2.3042 2.992 3.1234 4.6647z" fill="#363837" stroke-width=".24328px"/></g><path id="path7209" d="m-360.17-4.4781c4.7342-3.0209 9.4683-6.0417 14.203-9.0626 5.4644 6.9458.1064 10.685-6.1466 13.014-4.7926 3.1354-9.1212 4.9605-8.0559-3.9515z" fill="#292a2d" stroke-width=".26458px"/><path id="path7211" d="m-342.61-10.125c.89185 15.115-7.9226-11.65 0 0z" fill="#18191b" stroke-width=".26119px"/><g stroke-width=".26458px"><path id="path7213" d="m-306.29-52.314c.39081-7.0028 11.758-11.425 10.377-1.5338 5.2168 4.2182 8.2072 10.014-.77875 11.873-5.5011 1.3616-9.828-5.5465-9.5981-10.34z" fill="#303534"/><path id="path7215" d="m-296.69-61.094c6.2988-7.0227 19.252-19.046 23.407-4.1043 5.3714 5.7792 6.6725 10.311-1.9092 12.964-8.956 8.0787-23.376 5.6653-21.498-8.8597z" fill="#5b6369"/><path id="path7217" d="m-294.92-58.536c2.8714-10.681 8.0879 8.32 6.6656 6.9994-4.1058.82518-8.2611-2.6715-6.6656-6.9994z" fill="#262a2b"/><path id="path7219" d="m-270.46-67.646c6.3376 5.4048 2.0139 16.353-5.0204 7.1155-6.7373-4.466-5.3611-19.953 3.1902-9.3932l1.1061 1.2931z" fill="#3d4246"/></g></g><path id="path7221" d="m-396.79-14.778c-4.054 12.269-3.3545-11.773 0 0z" fill="#7a8990" fill-opacity=".99251" stroke="#544328" stroke-opacity=".98431" stroke-width=".27212"/><g stroke="#000" stroke-width=".26458px"><path id="path7223" d="m-393.81-19.502c3.4942 2.3232 6.7333 10.094 5.6413.80737-.79424-2.5492-4.1972-3.2784-5.6413-.80737z" fill="#5c6464"/><path id="path7225" d="m-404.52 1.1825c7.3426-.67404-.8547 7.9271 0 0z" fill="#646d6a"/><path id="path7227" d="m-501.18 50.428c-12.604 3.4502 10.718 25.391 8.6262 7.228.86412-3.1632-6.4544-4.8009-8.6262-7.228z" fill="#636664"/><path id="path7229" d="m-503.9 50.486c-2.4127-7.7553 1.2202-11.97 8.6975-9.4779 4.9474-1.2811 13.659 3.5727 8.8902 7.9207-5.8631-.09875-11.734 1.103-17.588 1.5572z" fill="#21262b"/></g></g></g></g><g id="g7317" transform="translate(63.5)"><g id="g7315" transform="matrix(.055824 0 0 .055824 21.637 96.38)"><g id="g7313" transform="matrix(1.7502 0 0 1.7502 603.43 -20.15)"><g stroke="#000" stroke-width=".26458px"><path id="path7237" d="m-538.48 36.272c1.2761 5.5981 10.817 3.8255 15.783 6.2149 7.0133 1.6904 14.027 3.3808 21.04 5.0712-2.4549-5.6748-11.029-4.009-16.306-6.3468-6.839-1.6464-13.678-3.2928-20.517-4.9393z" fill="#2d2e2d"/><path id="path7239" d="m-517.84 72.128c-3.802-8.1745 11.878-1.2938 8.8909-10.795-.2419-7.5395 2.3692-12.052 10.098-11.133 10.849-1.2573 21.697-2.5146 32.546-3.7719 4.218 4.2192 12.741 1.1484 9.6675 10.284-.1097 3.9755 1.0747 9.1178-4.6621 8.0194-18.847 2.4655-37.694 4.9311-56.54 7.3966z" fill="#343734"/><path id="path7241" d="m-490.85 57.123c12 .84147 27.515-1.9404 37.335 1.1478 3.8817 7.4537-.53646 10.977-7.5052 9.2117-11.219-.20123-22.437-.40246-33.656-.60369.14009-3.4767.2455-7.9417 3.8258-9.7558z" fill="#6c786f"/></g><g id="g7251" transform="rotate(-3.2589 3976.1 310.06)" stroke="#000"><path id="path7243" d="m-349.75-162.06c12.669 2.6682 23.406-3.902 25.855-16.913 4.5544-14.019-.88393-33.617-16.27-37.99-7.4143-1.2767-17.528-1.0817-13.177 9.0556 1.1974 15.282 2.3947 30.564 3.5921 45.847z" fill="#5c6062" stroke-width=".26189px"/><g><path id="path7245" d="m-333.89-189.54c.0353 10.394-3.1429 25.307-15.246 27.351-9.9278-.28196-14.381-11.906-15.734-20.302-1.1863-9.9143.36053-20.547 5.2685-29.244 11.27-13.05 26.034 2.4576 25.26 15.592.30191 2.1873.44498 4.3955.45177 6.6031z" fill="#545452" stroke-width=".2758px"/><path id="path7247" d="m-341.67-191.15c2.1856 9.5665-10.641 22.836-17.214 10.56-6.9608-8.3202-1.0516-31.655 11.911-24.501 3.7241 3.4982 5.4328 8.9211 5.303 13.942z" fill="#53544d" stroke-width=".16587px"/><path id="path7249" d="m-344.14-189.99c1.214 17.038-16.339 7.5123-10.704-4.376 2.598-11.234 12.009-4.2146 10.704 4.376z" fill="#202626" stroke-width=".18507px"/></g></g><path id="path7253" d="m-447.87 57.423c25.327-1.9905 50.654-3.9809 75.981-5.9714 8.5737 9.4408-5.1133 11.95-12.364 11.369-20.774 1.7251-41.548 3.4503-62.322 5.1754-.43165-3.5245-.86331-7.0489-1.295-10.573z" fill="#353a37" stroke="#000" stroke-width=".23811px"/><path id="path7255" d="m-445.05 9.3028c-2.0009 6.6306-4.0019 13.261-6.0028 19.892 4.5459 11.485 13.449 19.049 24.326 24.273 4.512 4.057 10.113 3.5403 15.645 2.9233 8.6637-.55831 17.327-1.1166 25.991-1.6749 2.7445-8.0548 10.32-16.303 5.1705-24.788-1.7006-4.9624-3.4012-9.9248-5.1019-14.887-8.7798-3.2732-16.855-10.24-26.152-11.076-11.292 1.7792-22.584 3.5584-33.876 5.3376z" fill="#464e48" stroke="#000" stroke-width=".27101"/><g id="g7265" transform="translate(-21.424 246.38)" stroke="#000"><path id="path7257" d="m-426.58-148.9c11.954 1.4389 23.524-1.1847 25.024-15.022 3.735-13.459 1.5856-29.371-7.8668-39.992-8.0936-7.4352-23.026-5.7202-17.921 7.9657.25459 15.683.50917 31.365.76376 47.048z" fill="#4b4f50" stroke-width=".26458px"/><g><path id="path7259" d="m-412.82-178.26c-.50927 10.252-1.295 25.409-13.07 28.829-10.259-.16989-13.254-13.471-14.544-21.773-.87217-10.067.55544-20.522 4.1891-29.882 7.9407-12.973 21.915-1.9766 21.987 9.782 1.0053 4.2696 1.4124 8.6632 1.4376 13.044z" fill="#474a4d" stroke-width=".26807px"/><path id="path7261" d="m-416.27-177.31c2.4689 9.6319-8.7967 28.811-16.85 14.193-4.5957-10.049-5.3712-27.511 5.1434-33.655 10.662-1.3064 11.224 12.078 11.707 19.462z" fill="#404245" stroke-width=".18713px"/><path id="path7263" d="m-417.71-177.5c3.105 12.432-14.088 21.482-15.599 5.0647-4.1468-9.2832 6.7647-29.546 14.31-13.863 1.2101 2.7561 1.0724 5.8604 1.2897 8.7986z" fill="#666a6d" stroke-width=".26458px"/></g></g><g stroke="#000"><g stroke-width=".26458px"><path id="path7267" d="m-423.15 39.8c11.451 9.0269 26.182-8.3216 13.905-17.638-8.2497-5.2664-5.7995 5.0265-3.4105 9.2944-1.9948 5.8292-10.608.39011-10.494 8.3438z" fill="#1f2524"/><path id="path7269" d="m-361.34-8.7593c-21.281 11.813-42.562 23.626-63.844 35.439-.12107 11.876 12.456 7.9915 18.719 3.5675 16.53-8.3581 33.059-16.716 49.589-25.074-1.4879-4.644-2.9758-9.288-4.4637-13.932z" fill="#3d3f3e"/><path id="path7271" d="m-429.78 16.805c-13.633 3.6825 2.9951 29.488 8.2722 18.826-5.2987-5.8938-10.532-12.01-.14117-15.717 3.8405-13.358-4.4212-2.612-8.1311-3.1086z" fill="#564c48"/><path id="path7273" d="m-412.23-12.507c14.812-.3022 29.609-1.0934 44.398-1.9336-10.888 8.7219-22.849 16.408-35.925 21.211-4.6092-4.2201-21.585-1.5673-15.59-10.696 8.593-1.3523-2.6629-5.6488 5.6361-7.5977z" fill="#59665f"/><path id="path7275" d="m-398.81-19.039c-2.0585 9.1047 5.4768 8.4606 11.743 7.8554 7.8071-.18591 15.614-.37182 23.421-.55772 4.2535-11.603-9.8538-8.5513-16.83-8.2-6.1115.30077-12.223.60155-18.334.90232z" fill="#7a8781"/><path id="path7277" d="m-375.32-20.415c3.4942 2.3232 6.7333 10.094 5.6413.80737-.79424-2.5492-4.1972-3.2784-5.6413-.80737z" fill="#5c6464"/><path id="path7279" d="m-426.67 15.182c-6.8257 8.2534 3.5606 16.671 10.124 7.8117 18.432-10.239 36.864-20.479 55.295-30.718-5.0767-16.25-17.75-1.2958-27.065 2.2047-12.785 6.9006-25.57 13.801-38.354 20.702z" fill="#292d2d"/><path id="path7281" d="m-366.51-17.289c20.075-11.675 40.15-23.35 60.224-35.025 2.8249 6.3193 6.5345 12.645-2.6874 14.548-17.426 10.014-34.851 20.028-52.276 30.041-2.8233-2.4201-4.7662-5.8691-5.2605-9.5645z" fill="#635753"/><path id="path7283" d="m-439.11 1.5767c-7.8108 13.165 10.877 13.716 18.772 11.35 8.5143-5.9327.41474-19.951-9.1958-13.026-3.1921.5585-6.3842 1.117-9.5763 1.6755z" fill="#757f7c"/></g><g><path id="path7285" d="m-414.84 4.2235c2.2722 16.77-12.366-5.0004-2.3324-5.3503 1.4898 1.4049 1.8038 3.4874 2.3324 5.3503z" fill="#666f6c" stroke-width=".26458px"/><path id="path7287" d="m-417.64 2.3999c-1.8637 10.237 23.294-.95999 8.6344-.80113-2.8781.26704-5.7563.53409-8.6344.80113z" fill="#757f7c" stroke-width=".26458px"/><path id="path7289" d="m-357.59-1.961c5.0209 15.483-12.56-2.6162-3.1234-4.6647 1.6505 1.0747 2.3042 2.992 3.1234 4.6647z" fill="#363837" stroke-width=".24328px"/></g><path id="path7291" d="m-360.17-4.4781c4.7342-3.0209 9.4683-6.0417 14.203-9.0626 5.4644 6.9458.1064 10.685-6.1466 13.014-4.7926 3.1354-9.1212 4.9605-8.0559-3.9515z" fill="#292a2d" stroke-width=".26458px"/><path id="path7293" d="m-342.61-10.125c.89185 15.115-7.9226-11.65 0 0z" fill="#18191b" stroke-width=".26119px"/><g stroke-width=".26458px"><path id="path7295" d="m-306.29-52.314c.39081-7.0028 11.758-11.425 10.377-1.5338 5.2168 4.2182 8.2072 10.014-.77875 11.873-5.5011 1.3616-9.828-5.5465-9.5981-10.34z" fill="#303534"/><path id="path7297" d="m-296.69-61.094c6.2988-7.0227 19.252-19.046 23.407-4.1043 5.3714 5.7792 6.6725 10.311-1.9092 12.964-8.956 8.0787-23.376 5.6653-21.498-8.8597z" fill="#5b6369"/><path id="path7299" d="m-294.92-58.536c2.8714-10.681 8.0879 8.32 6.6656 6.9994-4.1058.82518-8.2611-2.6715-6.6656-6.9994z" fill="#262a2b"/><path id="path7301" d="m-270.46-67.646c6.3376 5.4048 2.0139 16.353-5.0204 7.1155-6.7373-4.466-5.3611-19.953 3.1902-9.3932l1.1061 1.2931z" fill="#3d4246"/></g></g><path id="path7303" d="m-396.79-14.778c-4.054 12.269-3.3545-11.773 0 0z" fill="#7a8990" fill-opacity=".99251" stroke="#544328" stroke-opacity=".98431" stroke-width=".27212"/><g stroke="#000" stroke-width=".26458px"><path id="path7305" d="m-393.81-19.502c3.4942 2.3232 6.7333 10.094 5.6413.80737-.79424-2.5492-4.1972-3.2784-5.6413-.80737z" fill="#5c6464"/><path id="path7307" d="m-404.52 1.1825c7.3426-.67404-.8547 7.9271 0 0z" fill="#646d6a"/><path id="path7309" d="m-501.18 50.428c-12.604 3.4502 10.718 25.391 8.6262 7.228.86412-3.1632-6.4544-4.8009-8.6262-7.228z" fill="#636664"/><path id="path7311" d="m-503.9 50.486c-2.4127-7.7553 1.2202-11.97 8.6975-9.4779 4.9474-1.2811 13.659 3.5727 8.8902 7.9207-5.8631-.09875-11.734 1.103-17.588 1.5572z" fill="#21262b"/></g></g></g></g><g id="g7399" transform="translate(95.25)"><g id="g7397" transform="matrix(.055824 0 0 .055824 21.637 96.38)"><g id="g7395" transform="matrix(1.7502 0 0 1.7502 603.43 -20.15)"><g stroke="#000" stroke-width=".26458px"><path id="path7319" d="m-538.48 36.272c1.2761 5.5981 10.817 3.8255 15.783 6.2149 7.0133 1.6904 14.027 3.3808 21.04 5.0712-2.4549-5.6748-11.029-4.009-16.306-6.3468-6.839-1.6464-13.678-3.2928-20.517-4.9393z" fill="#2d2e2d"/><path id="path7321" d="m-517.84 72.128c-3.802-8.1745 11.878-1.2938 8.8909-10.795-.2419-7.5395 2.3692-12.052 10.098-11.133 10.849-1.2573 21.697-2.5146 32.546-3.7719 4.218 4.2192 12.741 1.1484 9.6675 10.284-.1097 3.9755 1.0747 9.1178-4.6621 8.0194-18.847 2.4655-37.694 4.9311-56.54 7.3966z" fill="#343734"/><path id="path7323" d="m-490.85 57.123c12 .84147 27.515-1.9404 37.335 1.1478 3.8817 7.4537-.53646 10.977-7.5052 9.2117-11.219-.20123-22.437-.40246-33.656-.60369.14009-3.4767.2455-7.9417 3.8258-9.7558z" fill="#6c786f"/></g><g id="g7333" transform="rotate(-3.2589 3976.1 310.06)" stroke="#000"><path id="path7325" d="m-349.75-162.06c12.669 2.6682 23.406-3.902 25.855-16.913 4.5544-14.019-.88393-33.617-16.27-37.99-7.4143-1.2767-17.528-1.0817-13.177 9.0556 1.1974 15.282 2.3947 30.564 3.5921 45.847z" fill="#5c6062" stroke-width=".26189px"/><g><path id="path7327" d="m-333.89-189.54c.0353 10.394-3.1429 25.307-15.246 27.351-9.9278-.28196-14.381-11.906-15.734-20.302-1.1863-9.9143.36053-20.547 5.2685-29.244 11.27-13.05 26.034 2.4576 25.26 15.592.30191 2.1873.44498 4.3955.45177 6.6031z" fill="#545452" stroke-width=".2758px"/><path id="path7329" d="m-341.67-191.15c2.1856 9.5665-10.641 22.836-17.214 10.56-6.9608-8.3202-1.0516-31.655 11.911-24.501 3.7241 3.4982 5.4328 8.9211 5.303 13.942z" fill="#53544d" stroke-width=".16587px"/><path id="path7331" d="m-344.14-189.99c1.214 17.038-16.339 7.5123-10.704-4.376 2.598-11.234 12.009-4.2146 10.704 4.376z" fill="#202626" stroke-width=".18507px"/></g></g><path id="path7335" d="m-447.87 57.423c25.327-1.9905 50.654-3.9809 75.981-5.9714 8.5737 9.4408-5.1133 11.95-12.364 11.369-20.774 1.7251-41.548 3.4503-62.322 5.1754-.43165-3.5245-.86331-7.0489-1.295-10.573z" fill="#353a37" stroke="#000" stroke-width=".23811px"/><path id="path7337" d="m-445.05 9.3028c-2.0009 6.6306-4.0019 13.261-6.0028 19.892 4.5459 11.485 13.449 19.049 24.326 24.273 4.512 4.057 10.113 3.5403 15.645 2.9233 8.6637-.55831 17.327-1.1166 25.991-1.6749 2.7445-8.0548 10.32-16.303 5.1705-24.788-1.7006-4.9624-3.4012-9.9248-5.1019-14.887-8.7798-3.2732-16.855-10.24-26.152-11.076-11.292 1.7792-22.584 3.5584-33.876 5.3376z" fill="#464e48" stroke="#000" stroke-width=".27101"/><g id="g7347" transform="translate(-21.424 246.38)" stroke="#000"><path id="path7339" d="m-426.58-148.9c11.954 1.4389 23.524-1.1847 25.024-15.022 3.735-13.459 1.5856-29.371-7.8668-39.992-8.0936-7.4352-23.026-5.7202-17.921 7.9657.25459 15.683.50917 31.365.76376 47.048z" fill="#4b4f50" stroke-width=".26458px"/><g><path id="path7341" d="m-412.82-178.26c-.50927 10.252-1.295 25.409-13.07 28.829-10.259-.16989-13.254-13.471-14.544-21.773-.87217-10.067.55544-20.522 4.1891-29.882 7.9407-12.973 21.915-1.9766 21.987 9.782 1.0053 4.2696 1.4124 8.6632 1.4376 13.044z" fill="#474a4d" stroke-width=".26807px"/><path id="path7343" d="m-416.27-177.31c2.4689 9.6319-8.7967 28.811-16.85 14.193-4.5957-10.049-5.3712-27.511 5.1434-33.655 10.662-1.3064 11.224 12.078 11.707 19.462z" fill="#404245" stroke-width=".18713px"/><path id="path7345" d="m-417.71-177.5c3.105 12.432-14.088 21.482-15.599 5.0647-4.1468-9.2832 6.7647-29.546 14.31-13.863 1.2101 2.7561 1.0724 5.8604 1.2897 8.7986z" fill="#666a6d" stroke-width=".26458px"/></g></g><g stroke="#000"><g stroke-width=".26458px"><path id="path7349" d="m-423.15 39.8c11.451 9.0269 26.182-8.3216 13.905-17.638-8.2497-5.2664-5.7995 5.0265-3.4105 9.2944-1.9948 5.8292-10.608.39011-10.494 8.3438z" fill="#1f2524"/><path id="path7351" d="m-361.34-8.7593c-21.281 11.813-42.562 23.626-63.844 35.439-.12107 11.876 12.456 7.9915 18.719 3.5675 16.53-8.3581 33.059-16.716 49.589-25.074-1.4879-4.644-2.9758-9.288-4.4637-13.932z" fill="#3d3f3e"/><path id="path7353" d="m-429.78 16.805c-13.633 3.6825 2.9951 29.488 8.2722 18.826-5.2987-5.8938-10.532-12.01-.14117-15.717 3.8405-13.358-4.4212-2.612-8.1311-3.1086z" fill="#564c48"/><path id="path7355" d="m-412.23-12.507c14.812-.3022 29.609-1.0934 44.398-1.9336-10.888 8.7219-22.849 16.408-35.925 21.211-4.6092-4.2201-21.585-1.5673-15.59-10.696 8.593-1.3523-2.6629-5.6488 5.6361-7.5977z" fill="#59665f"/><path id="path7357" d="m-398.81-19.039c-2.0585 9.1047 5.4768 8.4606 11.743 7.8554 7.8071-.18591 15.614-.37182 23.421-.55772 4.2535-11.603-9.8538-8.5513-16.83-8.2-6.1115.30077-12.223.60155-18.334.90232z" fill="#7a8781"/><path id="path7359" d="m-375.32-20.415c3.4942 2.3232 6.7333 10.094 5.6413.80737-.79424-2.5492-4.1972-3.2784-5.6413-.80737z" fill="#5c6464"/><path id="path7361" d="m-426.67 15.182c-6.8257 8.2534 3.5606 16.671 10.124 7.8117 18.432-10.239 36.864-20.479 55.295-30.718-5.0767-16.25-17.75-1.2958-27.065 2.2047-12.785 6.9006-25.57 13.801-38.354 20.702z" fill="#292d2d"/><path id="path7363" d="m-366.51-17.289c20.075-11.675 40.15-23.35 60.224-35.025 2.8249 6.3193 6.5345 12.645-2.6874 14.548-17.426 10.014-34.851 20.028-52.276 30.041-2.8233-2.4201-4.7662-5.8691-5.2605-9.5645z" fill="#635753"/><path id="path7365" d="m-439.11 1.5767c-7.8108 13.165 10.877 13.716 18.772 11.35 8.5143-5.9327.41474-19.951-9.1958-13.026-3.1921.5585-6.3842 1.117-9.5763 1.6755z" fill="#757f7c"/></g><g><path id="path7367" d="m-414.84 4.2235c2.2722 16.77-12.366-5.0004-2.3324-5.3503 1.4898 1.4049 1.8038 3.4874 2.3324 5.3503z" fill="#666f6c" stroke-width=".26458px"/><path id="path7369" d="m-417.64 2.3999c-1.8637 10.237 23.294-.95999 8.6344-.80113-2.8781.26704-5.7563.53409-8.6344.80113z" fill="#757f7c" stroke-width=".26458px"/><path id="path7371" d="m-357.59-1.961c5.0209 15.483-12.56-2.6162-3.1234-4.6647 1.6505 1.0747 2.3042 2.992 3.1234 4.6647z" fill="#363837" stroke-width=".24328px"/></g><path id="path7373" d="m-360.17-4.4781c4.7342-3.0209 9.4683-6.0417 14.203-9.0626 5.4644 6.9458.1064 10.685-6.1466 13.014-4.7926 3.1354-9.1212 4.9605-8.0559-3.9515z" fill="#292a2d" stroke-width=".26458px"/><path id="path7375" d="m-342.61-10.125c.89185 15.115-7.9226-11.65 0 0z" fill="#18191b" stroke-width=".26119px"/><g stroke-width=".26458px"><path id="path7377" d="m-306.29-52.314c.39081-7.0028 11.758-11.425 10.377-1.5338 5.2168 4.2182 8.2072 10.014-.77875 11.873-5.5011 1.3616-9.828-5.5465-9.5981-10.34z" fill="#303534"/><path id="path7379" d="m-296.69-61.094c6.2988-7.0227 19.252-19.046 23.407-4.1043 5.3714 5.7792 6.6725 10.311-1.9092 12.964-8.956 8.0787-23.376 5.6653-21.498-8.8597z" fill="#5b6369"/><path id="path7381" d="m-294.92-58.536c2.8714-10.681 8.0879 8.32 6.6656 6.9994-4.1058.82518-8.2611-2.6715-6.6656-6.9994z" fill="#262a2b"/><path id="path7383" d="m-270.46-67.646c6.3376 5.4048 2.0139 16.353-5.0204 7.1155-6.7373-4.466-5.3611-19.953 3.1902-9.3932l1.1061 1.2931z" fill="#3d4246"/></g></g><path id="path7385" d="m-396.79-14.778c-4.054 12.269-3.3545-11.773 0 0z" fill="#7a8990" fill-opacity=".99251" stroke="#544328" stroke-opacity=".98431" stroke-width=".27212"/><g stroke="#000" stroke-width=".26458px"><path id="path7387" d="m-393.81-19.502c3.4942 2.3232 6.7333 10.094 5.6413.80737-.79424-2.5492-4.1972-3.2784-5.6413-.80737z" fill="#5c6464"/><path id="path7389" d="m-404.52 1.1825c7.3426-.67404-.8547 7.9271 0 0z" fill="#646d6a"/><path id="path7391" d="m-501.18 50.428c-12.604 3.4502 10.718 25.391 8.6262 7.228.86412-3.1632-6.4544-4.8009-8.6262-7.228z" fill="#636664"/><path id="path7393" d="m-503.9 50.486c-2.4127-7.7553 1.2202-11.97 8.6975-9.4779 4.9474-1.2811 13.659 3.5727 8.8902 7.9207-5.8631-.09875-11.734 1.103-17.588 1.5572z" fill="#21262b"/></g></g></g></g></g></svg>
