<?xml version="1.0" encoding="UTF-8"?>
<!-- Created with Inkscape (http://www.inkscape.org/) -->
<svg id="svg614" width="480" height="840" version="1.1" viewBox="0 0 127 222.25001" xmlns="http://www.w3.org/2000/svg" xmlns:cc="http://creativecommons.org/ns#" xmlns:dc="http://purl.org/dc/elements/1.1/" xmlns:rdf="http://www.w3.org/1999/02/22-rdf-syntax-ns#"><metadata id="metadata611"><rdf:RDF><cc:Work rdf:about=""><dc:format>image/svg+xml</dc:format><dc:type rdf:resource="http://purl.org/dc/dcmitype/StillImage"/><dc:title/></cc:Work></rdf:RDF></metadata><g id="layer1" transform="translate(0 -74.75)"><g id="g4792" transform="translate(32.054)"><path id="path4790" d="m2.7525 106.72v-1.2802h19.844v2.5605h-19.844z" fill="#fc0" stroke="#fff" stroke-width=".26458"/></g><path id="path4926" d="m66.253 106.72v-1.2802h13.229v2.5605h-13.229z" fill="#ff0" stroke="#fff" stroke-width=".26458"/><g id="g5064" transform="translate(95.25)"><path id="path5062" d="m2.7525 106.72v-1.2802h6.6146v2.5605h-6.6146z" fill="#d40000" stroke="#fff" stroke-width=".26458"/></g><g id="g4656"><path id="path4453" d="m2.7525 106.72v-1.2802h26.245v2.5605h-26.245z" fill="#aad400" stroke="#fff" stroke-width=".26458"/></g><g id="g4520" transform="matrix(-.057875 .15058 -.15058 -.057875 22.129 90.743)"><g stroke="#000" stroke-width=".26458px"><path id="path6396" d="m95.37-.13045c7.7019-3.0143 12.181 5.2267 7.2809 10.951-4.9623 1.2203-9.1311-.22383-7.4406-5.7457.05324-1.7349.10648-3.4699.15972-5.2048z" fill="#50524b"/><path id="path6398" d="m96.166 57.634c7.7019-3.0143 12.181 5.2267 7.2809 10.951-4.9623 1.2203-9.1311-.22383-7.4406-5.7457l.15972-5.2048z" fill="#50524b"/><path id="path6400" d="m-34.266 11.151c.17629 15.955.35259 31.909.52888 47.864 9.9606.44073 19.921.88147 29.882 1.3222.26444-17.189.52889-34.377.79333-51.566-10.401.79333-20.803 1.5867-31.204 2.38z" fill="#a5895a"/><path id="path6402" d="m-25.343 20.497c-1.9257 5.6723 15.377 3.0881 9.4037 0h-9.4037z" fill="#281e1d"/><path id="path6404" d="m-12.067 15.822c-8.3915-.47084-2.5806 19.101.25145 9.5648-.49397-3.1521-.14907-6.3818-.25145-9.5648z" fill="#8f8b6e"/></g><path id="path6406" d="m-12.053 12.209c10.49-2.997 20.979-5.994 31.469-8.991 5.612 1.1866 5.2062 6.093 4.7588 10.544-.61666 17.729-1.2333 35.458-1.85 53.187-11.812-3.0852-23.623-6.1703-35.435-9.2555.35259-15.161.70517-30.323 1.0578-45.484z" fill="#7f7542" fill-opacity=".98214" stroke="#000" stroke-width=".26458px"/><g stroke="#000" stroke-width=".26458px"><path id="path6408" d="m-41.331-2.1289c.06233 4.2384.12466 8.4768.18699 12.715h8.321c-.91877-4.9725 3.3327-15.191-4.8486-12.795-1.2198.026521-2.4396.053041-3.6594.079562z" fill="#af9665"/><path id="path6410" d="m-32.729-2.3159c7.7912.12466 15.582.24933 23.374.37399.3584 4.0982.71679 8.1963 1.0752 12.294-8.1807.07791-16.361.15582-24.542.23373.03117-4.3007.06233-8.6015.0935-12.902z" fill="#b7a074"/><path id="path6412" d="m-9.3555-1.9419c10.362.023133 20.723.046267 31.085.0694v9.3877c-10.003.94579-20.007 1.8916-30.01 2.8374-.3584-4.0981-.71679-8.1963-1.0752-12.294z" fill="#aa8f5b"/></g><path id="path6414" d="m21.73-1.8725c12.513.22618 25.027.45237 37.54.67855 2.326 6.7229-1.8079 12.609-8.9782 9.7411-9.5212-.32515-19.041-.67857-28.562-1.0319-3e-6-3.1292-7e-6-6.2585-1e-5-9.3877z" fill="#967d4e" fill-opacity=".97143" stroke="#000" stroke-width=".26458px"/><g stroke="#000" stroke-width=".26458px"><path id="path6416" d="m33.167-2.9302c-2.0582 6.3191 4.0655 5.2583 8.0828 5.4044 4.1151.15981 8.2302.31962 12.345.47943 1.5969-6.3796-4.3211-5.4917-8.482-5.529-3.982-.11828-7.9641-.23656-11.946-.35484z" fill="#78412f"/><path id="path6418" d="m47.645-2.4013c-1.8298 6.2606 4.2554 5.7722 1.7135-.13342l-.65968-.11586z" fill="#8a7745"/><path id="path6420" d="m59.269-1.1939c10.559-.027833 21.119-.055667 31.678-.0835-.33075 4.7748 2.46 12.697-4.8099 10.475-8.9303-.18605-17.861-.3721-26.791-.55816-.02569-3.2777-.05137-6.5554-.07706-9.833z" fill="#867046"/><path id="path6422" d="m91.013-.31886c7.0549-3.2747 6.5806 14.702.13266 8.9272-.27521-2.9457.0176-5.9527-.13266-8.9272z" fill="#aa8f5b"/><path id="path6424" d="m46.256 3.9453c15.955.17629 31.909.35259 47.864.52888v34.047c-18.775-.22037-37.551-.44074-56.326-.66111 2.8207-11.305 5.6414-22.61 8.4621-33.915z" fill="#7f7542"/><path id="path6426" d="m96.854 42.655l.56097 26.552c-4.9057 1.8999-11.898 2.4562-8.6232-4.8251 2.4548-6.938.47332-17.444 5.5928-22.305.89698-.12414 1.6201.48844 2.4694.57818z" fill="#645c3f"/><path id="path6428" d="m94.12 38.521c-.90758 9.0797 2.3245 19.911-1.484 27.642-3.2453 2.5123-8.2705-2.5905-13.003-1.0542-9.583-.13593-19.166-.27186-28.749-.4078-4.3633-8.9469-8.7266-17.894-13.09-26.841 18.775.22037 37.551.44074 56.326.66111z" fill="#6f673a"/><path id="path6432" d="m95.826 9.5579c3.2013 8.2105.89937 17.645 1.7817 26.375 1.952 3.3077-2.5756 11.692-3.3685 4.7467.21783-10.416-.09655-20.855-.08528-31.28.55735.052837 1.1147.10567 1.6721.15851z" fill="#47423b"/><path id="path6434" d="m97.789 16.103c5.0883 3.4086 1.0959 12.443 2.4093 18.123 1.9064 3.8292-3.201 8.7246-2.6839 2.5067.16182-6.8723.169-13.754.27464-20.63z" fill="#5a3b32"/><path id="path6436" d="m50.884 64.701c-1.9109 1.9385-3.8217 3.8769-5.7326 5.8154 14.367-.03117 28.734-.06233 43.101-.0935.04155-4.6319.90339-10.174-5.2116-7.9754-10.719.75116-21.438 1.5023-32.157 2.2535z" fill="#6f5d3a"/><path id="path6438" d="m-6.5507 59.344c.046747 3.7865.093493 7.573.14024 11.36 15.224.06234 30.448.12467 45.672.18701-15.271-3.8488-30.541-7.6977-45.812-11.547z" fill="#937a4d"/><path id="path6440" d="m-33.737 59.015c.11787 4.0362.23574 8.0724.35361 12.109 8.991-.14025 17.982-.28049 26.973-.42074-.046747-3.7865-.093493-7.573-.14024-11.36-9.0622-.10944-18.124-.21888-27.186-.32832z" fill="#b7a074"/><path id="path6442" d="m-33.737 59.015c-7.3309-2.9551-8.1561 11.747-2.2355 12.201 4.6501.355 1.67-5.7204 2.3398-8.6269-.0348-1.1913-.06959-2.3826-.10439-3.5739z" fill="#af9665"/></g><path id="path6444" d="m1.7642 27.811c-9.0442 2.8965-10.755-7.2008-8.6368-13.483 2.8361-3.8393 8.0123-1.6675 12.008-2.1851" fill="none" stroke="#5d583b" stroke-width=".79375"/><path id="path6446" d="m-5.9708 15.448c7.2646-5.7581 14.262 1.1081 11.219 9.0177-2.7392 4.7533-12.992 2.8798-11.174-3.5909-.014946-1.8089-.029892-3.6179-.044838-5.4268z" fill="#726c48" stroke="#000" stroke-width=".26458px"/><g id="g6452" transform="translate(103.77 -364.39)"><path id="path6448" d="m-101.55 422.6c-9.0442 2.8965-10.755-7.2008-8.6368-13.483 2.8361-3.8393 8.0123-1.6675 12.008-2.1851" fill="none" stroke="#5d583b" stroke-width=".79375"/><path id="path6450" d="m-109.29 410.24c7.2646-5.7581 14.263 1.108 11.219 9.0177-4.2018 5.9298-14.179 1.2234-11.195-6.14-.008-.95921-.0159-1.9184-.0238-2.8776z" fill="#726c48" stroke="#000" stroke-width=".26458px"/></g><g id="g6530" transform="rotate(-6.4538 -4636.1 -322.73)" stroke="#000"><path id="path6430" d="m-57.873 541.3h46.841c-.5825 6.1278-.07398 10.258 5.2819 13.327 3.0922 6.935.99182 15.645-3.6888 20.415.25803 5.1171-1.1225 10.228-6.9857 8.5172h-41.448c0-14.086 1e-6-28.173 1e-6-42.259z" fill="#c3b88b" stroke-width=".29191px"/><g id="g6502" transform="translate(33.658 160.81)"><g stroke-width=".26458px"><path id="path6454" d="m-47.028 385.63c6.6611 1.6118 18.217-3.2224 21.521 2.8054 1.3452 5.2962 4.365 10.665 2.4396 16.171-.69418 3.7096-1.3884 7.4191-2.0826 11.129-6.9501-.52709-17.771 2.9934-22.415.0545.17899-10.053.35798-20.106.53697-30.16z" fill="#b6a871"/><path id="path6456" d="m-95.084 410.5c6.7592-.30103-.68001 15.318 9.6499 10.72 11.649.13537 23.373.0458 34.709-2.9619 8.1533-1.8034 16.589-2.3841 24.865-2.3147-5.0999 3.9301-10.223 9.528-16.804 11.238-8.0929 1.3616-16.24 6.8139-24.454 4.0012-8.6328-2.0368-17.401-3.6967-25.722-6.8454-.74795-4.6124-1.4959-9.2248-2.2439-13.837z" fill="#3b3826"/><path id="path6458" d="m-95.084 389.93c7.8459 3.6731 3.3911-12.026 12.361-8.0191 9.6119-.21511 19.548-1.8616 28.717 1.9192 3.7734 1.8162 17.665 2.6964 6.7247.32705-9.1167-1.9142-18.055-5.7484-27.321-6.3691-5.2064.4634-10.413.9268-15.619 1.3902-1.6206 3.5839-3.2411 7.1679-4.8617 10.752z" fill="#675d35"/></g><g fill="#978b4e" stroke-width=".26458px"><path id="path6460" d="m-87.23 421.07c7.3802-2.2766-1.8471 11.111-1.2116 2.1522l.76834-.94548z"/><path id="path6462" d="m-70.214 420.13c-.74795 3.8956-1.4959 7.7912-2.2439 11.687 5.4324.61424 6.5489-9.5048 4.824-11.81l-1.2901.0614-1.2901.0614z"/><path id="path6464" d="m-49.467 417.46c1.3851 2.7507 5.9555 14.646 7.4822 7.7687-2.5392-2.5406-2.4328-10.352-7.4822-7.7687z"/></g><path id="path6466" d="m-95.084 389.93c1.6206-3.5839 3.2411-7.1679 4.8617-10.752 8.2704-.38804 16.792-2.8114 24.836.14314 6.7117 1.6664 13.423 3.3327 20.135 4.999.5486 5.0579 7.395 1.425 10.964 1.9749 1.9815-.52837 8.3811.2378 7.1207-1.2405-6.1994-4.2375-11.371-10.727-19.244-11.624-9.7933-3.1171-19.782-5.9423-29.724-1.6998-8.0223 1.8452-18.317 1.6138-18.479 12.103-.56049 1.9968-.47685 4.0552-.46977 6.0965z" fill="#3b3826" stroke-width=".26458px"/><g fill="#978b4e"><path id="path6468" d="m-70.588 370.28c1.0037 3.8381 2.0075 7.6762 3.0112 11.514 5.0876.84256 1.2562-12.754-2.3627-11.704l-.43128.12629z" stroke-width=".24798px"/><path id="path6470" d="m-88.165 374.58c-.54502 3.676 4.4183 12.648 4.5716 5.1676-1.1784-2.1183-.52695-7.8028-4.5716-5.1676z" stroke-width=".27928px"/><path id="path6472" d="m-44.426 373.03c-.40181 3.5966-8.98 13.024-2.9032 12.588 1.2362-3.6166 9.2626-10.534 2.9489-12.566z" stroke-width=".26458px"/><path id="path6474" d="m-94.803 383.86c-2.426 2.6839-1.5295 9.3964.72958 3.4208 2.3793-5.0344-.29967-13.871 7.6323-13.214 7.6217-1.7219 15.243-3.4437 22.865-5.1656 8.6574 3.0791 18.766 3.1999 26.385 8.4653 4.8226 4.1281 11.975 6.9456 12.589 14.054 1.3491 4.2966 3.1287 8.728 1.5344 13.193-.69418 3.7096-1.3884 7.4191-2.0826 11.129-6.5275 4.2784-11.892 11.008-19.998 12.132-7.8889 1.7655-15.875 6.2372-23.927 2.9868-8.0287-1.7303-16.144-3.3716-23.766-6.5174-1.4491-3.7902.06338-13.106-3.7434-13.419 2.4385 6.1352-1.4063 16.965 8.3419 17.679 8.7613 1.8514 17.16 5.8537 26.109 6.5526 8.7667-1.7178 18.854-2.2182 25.88-8.0779 5.9324-5.2285 14.582-8.6829 14.47-17.746 2.6157-6.6043 1.7395-13.196-.80124-19.643-.99251-7.556-8.9931-10.223-13.996-14.89-8.0276-4.7935-17.849-6.182-26.779-8.9727-10.076 2.3962-20.153 4.7924-30.229 7.1886-.40514 3.6151-.81028 7.2302-1.2154 10.845z" stroke-width=".26458px"/></g><g stroke-width=".26458px"><path id="path6476" d="m-172.15 400.13h47.203c1.5534 5.9974-6.005 3.3037-9.437 3.8344h-37.898c.0441-1.2781.0882-2.5563.13222-3.8344z" fill="#7f7542"/><path id="path6478" d="m-179.49 398.72c-9.132-3.1182-3.5044 12.346.0599 4.7148-.02-1.5716-.04-3.1433-.0599-4.7148z" fill="#a8a381"/><path id="path6480" d="m-176.11 399.67c-.87307 11.428 9.6746-.78769 0 0z" fill="#91854b"/><path id="path6482" d="m-176.11 399.67c-6.4868-5.9825-3.5166 12.321.0548 3.1788-.0183-1.0596-.0364-2.1193-.0548-3.1788z" fill="#99946c"/><path id="path6484" d="m-100.79 390.12c-2.0029 6.6491 7.785 3.0166 4.3309 10.072-.02837 3.4327-.25772 6.8736-.40418 10.31 6.2744 1.8631 4.4021-5.2871 4.8534-8.9802.15858-3.894.31716-7.788.47574-11.682-3.0855-.0843-6.1925-.17967-9.2559.28046z" fill="#664a32"/><g><path id="path6486" d="m-89.941 389.93c.43631 9.9416.87261 19.883 1.3089 29.825-5.6576 3.0898-2.6504-10.157-3.6092-13.568 1.1385-4.3726-1.2474-14.915 2.3003-16.257z" fill="#9d8e51"/><path id="path6488" d="m-126.27 398.15c-1.5764 5.3632 1.19 8.0218 6.2914 6.8755h11.03c1.5764-5.3632-1.19-8.0218-6.2914-6.8755h-11.03z" fill="#90854b"/><path id="path6490" d="m-110.7 394.79v13.463h14.024c.18699-4.5501.37398-9.1001.56096-13.65-4.8617.0623-9.7234.12465-14.585.18698z" fill="#9f7a3b"/></g></g><g id="g6498" transform="translate(6.35)"><path id="ellipse6492" d="m-45.996 403.97c.71176 9.8675-14.864 13.42-18.324 3.9609-3.8432-8.0833 6.2142-17.455 13.748-12.181 2.7709 1.7365 4.6745 4.9113 4.5761 8.2202z" fill="#4c321f" stroke-width=".20744px"/><path id="ellipse6494" d="m-46.744 403.97c.70026 9.6443-14.935 12.284-17.253 2.7016-3.5034-10.342 13.05-16.64 16.674-5.8931l.44491 1.5596z" fill="#735331" stroke-width=".19117px"/><path id="ellipse6496" d="m-50.524 403.97c-.25616 9.872-15.83 2.4927-8.0759-3.8751 3.1391-2.9653 8.2075-.15453 8.0759 3.8751z" fill="#856038" stroke-width=".10895px"/></g><path id="ellipse6500" d="m-69.828 391.01c-.25616 9.872-15.83 2.4927-8.0759-3.8751 3.1391-2.9653 8.2075-.15453 8.0759 3.8751z" fill="#a79756" stroke-width=".10895px"/></g></g></g><g id="g7811" transform="matrix(-.057875 .15058 -.15058 -.057875 53.879 90.743)"><g stroke="#000" stroke-width=".26458px"><path id="path7656" d="m95.37-.13045c7.7019-3.0143 12.181 5.2267 7.2809 10.951-4.9623 1.2203-9.1311-.22383-7.4406-5.7457.05324-1.7349.10648-3.4699.15972-5.2048z" fill="#50524b"/><path id="path7659" d="m96.166 57.634c7.7019-3.0143 12.181 5.2267 7.2809 10.951-4.9623 1.2203-9.1311-.22383-7.4406-5.7457l.15972-5.2048z" fill="#50524b"/><path id="path7662" d="m-34.266 11.151c.17629 15.955.35259 31.909.52888 47.864 9.9606.44073 19.921.88147 29.882 1.3222.26444-17.189.52889-34.377.79333-51.566-10.401.79333-20.803 1.5867-31.204 2.38z" fill="#a5895a"/><path id="path7672" d="m-25.343 20.497c-1.9257 5.6723 15.377 3.0881 9.4037 0h-9.4037z" fill="#281e1d"/><path id="path7677" d="m-12.067 15.822c-8.3915-.47084-2.5806 19.101.25145 9.5648-.49397-3.1521-.14907-6.3818-.25145-9.5648z" fill="#8f8b6e"/></g><path id="path7680" d="m-12.053 12.209c10.49-2.997 20.979-5.994 31.469-8.991 5.612 1.1866 5.2062 6.093 4.7588 10.544-.61666 17.729-1.2333 35.458-1.85 53.187-11.812-3.0852-23.623-6.1703-35.435-9.2555.35259-15.161.70517-30.323 1.0578-45.484z" fill="#7f7542" fill-opacity=".98214" stroke="#000" stroke-width=".26458px"/><g stroke="#000" stroke-width=".26458px"><path id="path7688" d="m-41.331-2.1289c.06233 4.2384.12466 8.4768.18699 12.715h8.321c-.91877-4.9725 3.3327-15.191-4.8486-12.795-1.2198.026521-2.4396.053041-3.6594.079562z" fill="#af9665"/><path id="path7695" d="m-32.729-2.3159c7.7912.12466 15.582.24933 23.374.37399.3584 4.0982.71679 8.1963 1.0752 12.294-8.1807.07791-16.361.15582-24.542.23373.03117-4.3007.06233-8.6015.0935-12.902z" fill="#b7a074"/><path id="path7704" d="m-9.3555-1.9419c10.362.023133 20.723.046267 31.085.0694v9.3877c-10.003.94579-20.007 1.8916-30.01 2.8374-.3584-4.0981-.71679-8.1963-1.0752-12.294z" fill="#aa8f5b"/></g><path id="path7709" d="m21.73-1.8725c12.513.22618 25.027.45237 37.54.67855 2.326 6.7229-1.8079 12.609-8.9782 9.7411-9.5212-.32515-19.041-.67857-28.562-1.0319-3e-6-3.1292-7e-6-6.2585-1e-5-9.3877z" fill="#967d4e" fill-opacity=".97143" stroke="#000" stroke-width=".26458px"/><g stroke="#000" stroke-width=".26458px"><path id="path7711" d="m33.167-2.9302c-2.0582 6.3191 4.0655 5.2583 8.0828 5.4044 4.1151.15981 8.2302.31962 12.345.47943 1.5969-6.3796-4.3211-5.4917-8.482-5.529-3.982-.11828-7.9641-.23656-11.946-.35484z" fill="#78412f"/><path id="path7713" d="m47.645-2.4013c-1.8298 6.2606 4.2554 5.7722 1.7135-.13342l-.65968-.11586z" fill="#8a7745"/><path id="path7715" d="m59.269-1.1939c10.559-.027833 21.119-.055667 31.678-.0835-.33075 4.7748 2.46 12.697-4.8099 10.475-8.9303-.18605-17.861-.3721-26.791-.55816-.02569-3.2777-.05137-6.5554-.07706-9.833z" fill="#867046"/><path id="path7717" d="m91.013-.31886c7.0549-3.2747 6.5806 14.702.13266 8.9272-.27521-2.9457.0176-5.9527-.13266-8.9272z" fill="#aa8f5b"/><path id="path7719" d="m46.256 3.9453c15.955.17629 31.909.35259 47.864.52888v34.047c-18.775-.22037-37.551-.44074-56.326-.66111 2.8207-11.305 5.6414-22.61 8.4621-33.915z" fill="#7f7542"/><path id="path7721" d="m96.854 42.655l.56097 26.552c-4.9057 1.8999-11.898 2.4562-8.6232-4.8251 2.4548-6.938.47332-17.444 5.5928-22.305.89698-.12414 1.6201.48844 2.4694.57818z" fill="#645c3f"/><path id="path7723" d="m94.12 38.521c-.90758 9.0797 2.3245 19.911-1.484 27.642-3.2453 2.5123-8.2705-2.5905-13.003-1.0542-9.583-.13593-19.166-.27186-28.749-.4078-4.3633-8.9469-8.7266-17.894-13.09-26.841 18.775.22037 37.551.44074 56.326.66111z" fill="#6f673a"/><path id="path7725" d="m95.826 9.5579c3.2013 8.2105.89937 17.645 1.7817 26.375 1.952 3.3077-2.5756 11.692-3.3685 4.7467.21783-10.416-.09655-20.855-.08528-31.28.55735.052837 1.1147.10567 1.6721.15851z" fill="#47423b"/><path id="path7727" d="m97.789 16.103c5.0883 3.4086 1.0959 12.443 2.4093 18.123 1.9064 3.8292-3.201 8.7246-2.6839 2.5067.16182-6.8723.169-13.754.27464-20.63z" fill="#5a3b32"/><path id="path7729" d="m50.884 64.701c-1.9109 1.9385-3.8217 3.8769-5.7326 5.8154 14.367-.03117 28.734-.06233 43.101-.0935.04155-4.6319.90339-10.174-5.2116-7.9754-10.719.75116-21.438 1.5023-32.157 2.2535z" fill="#6f5d3a"/><path id="path7731" d="m-6.5507 59.344c.046747 3.7865.093493 7.573.14024 11.36 15.224.06234 30.448.12467 45.672.18701-15.271-3.8488-30.541-7.6977-45.812-11.547z" fill="#937a4d"/><path id="path7733" d="m-33.737 59.015c.11787 4.0362.23574 8.0724.35361 12.109 8.991-.14025 17.982-.28049 26.973-.42074-.046747-3.7865-.093493-7.573-.14024-11.36-9.0622-.10944-18.124-.21888-27.186-.32832z" fill="#b7a074"/><path id="path7735" d="m-33.737 59.015c-7.3309-2.9551-8.1561 11.747-2.2355 12.201 4.6501.355 1.67-5.7204 2.3398-8.6269-.0348-1.1913-.06959-2.3826-.10439-3.5739z" fill="#af9665"/></g><path id="path7737" d="m1.7642 27.811c-9.0442 2.8965-10.755-7.2008-8.6368-13.483 2.8361-3.8393 8.0123-1.6675 12.008-2.1851" fill="none" stroke="#5d583b" stroke-width=".79375"/><path id="path7739" d="m-5.9708 15.448c7.2646-5.7581 14.262 1.1081 11.219 9.0177-2.7392 4.7533-12.992 2.8798-11.174-3.5909-.014946-1.8089-.029892-3.6179-.044838-5.4268z" fill="#726c48" stroke="#000" stroke-width=".26458px"/><g id="g7746" transform="translate(103.77 -364.39)"><path id="path7742" d="m-101.55 422.6c-9.0442 2.8965-10.755-7.2008-8.6368-13.483 2.8361-3.8393 8.0123-1.6675 12.008-2.1851" fill="none" stroke="#5d583b" stroke-width=".79375"/><path id="path7744" d="m-109.29 410.24c7.2646-5.7581 14.263 1.108 11.219 9.0177-4.2018 5.9298-14.179 1.2234-11.195-6.14-.008-.95921-.0159-1.9184-.0238-2.8776z" fill="#726c48" stroke="#000" stroke-width=".26458px"/></g><g id="g7809" transform="rotate(-6.4538 -4636.1 -322.73)" stroke="#000"><path id="path7748" d="m-57.873 541.3h46.841c-.5825 6.1278-.07398 10.258 5.2819 13.327 3.0922 6.935.99182 15.645-3.6888 20.415.25803 5.1171-1.1225 10.228-6.9857 8.5172h-41.448c0-14.086 1e-6-28.173 1e-6-42.259z" fill="#c3b88b" stroke-width=".29191px"/><g id="g7807" transform="translate(33.658 160.81)"><g stroke-width=".26458px"><path id="path7750" d="m-47.028 385.63c6.6611 1.6118 18.217-3.2224 21.521 2.8054 1.3452 5.2962 4.365 10.665 2.4396 16.171-.69418 3.7096-1.3884 7.4191-2.0826 11.129-6.9501-.52709-17.771 2.9934-22.415.0545.17899-10.053.35798-20.106.53697-30.16z" fill="#b6a871"/><path id="path7752" d="m-95.084 410.5c6.7592-.30103-.68001 15.318 9.6499 10.72 11.649.13537 23.373.0458 34.709-2.9619 8.1533-1.8034 16.589-2.3841 24.865-2.3147-5.0999 3.9301-10.223 9.528-16.804 11.238-8.0929 1.3616-16.24 6.8139-24.454 4.0012-8.6328-2.0368-17.401-3.6967-25.722-6.8454-.74795-4.6124-1.4959-9.2248-2.2439-13.837z" fill="#3b3826"/><path id="path7754" d="m-95.084 389.93c7.8459 3.6731 3.3911-12.026 12.361-8.0191 9.6119-.21511 19.548-1.8616 28.717 1.9192 3.7734 1.8162 17.665 2.6964 6.7247.32705-9.1167-1.9142-18.055-5.7484-27.321-6.3691-5.2064.4634-10.413.9268-15.619 1.3902-1.6206 3.5839-3.2411 7.1679-4.8617 10.752z" fill="#675d35"/></g><g fill="#978b4e" stroke-width=".26458px"><path id="path7756" d="m-87.23 421.07c7.3802-2.2766-1.8471 11.111-1.2116 2.1522l.76834-.94548z"/><path id="path7758" d="m-70.214 420.13c-.74795 3.8956-1.4959 7.7912-2.2439 11.687 5.4324.61424 6.5489-9.5048 4.824-11.81l-1.2901.0614-1.2901.0614z"/><path id="path7761" d="m-49.467 417.46c1.3851 2.7507 5.9555 14.646 7.4822 7.7687-2.5392-2.5406-2.4328-10.352-7.4822-7.7687z"/></g><path id="path7763" d="m-95.084 389.93c1.6206-3.5839 3.2411-7.1679 4.8617-10.752 8.2704-.38804 16.792-2.8114 24.836.14314 6.7117 1.6664 13.423 3.3327 20.135 4.999.5486 5.0579 7.395 1.425 10.964 1.9749 1.9815-.52837 8.3811.2378 7.1207-1.2405-6.1994-4.2375-11.371-10.727-19.244-11.624-9.7933-3.1171-19.782-5.9423-29.724-1.6998-8.0223 1.8452-18.317 1.6138-18.479 12.103-.56049 1.9968-.47685 4.0552-.46977 6.0965z" fill="#3b3826" stroke-width=".26458px"/><g fill="#978b4e"><path id="path7765" d="m-70.588 370.28c1.0037 3.8381 2.0075 7.6762 3.0112 11.514 5.0876.84256 1.2562-12.754-2.3627-11.704l-.43128.12629z" stroke-width=".24798px"/><path id="path7767" d="m-88.165 374.58c-.54502 3.676 4.4183 12.648 4.5716 5.1676-1.1784-2.1183-.52695-7.8028-4.5716-5.1676z" stroke-width=".27928px"/><path id="path7772" d="m-44.426 373.03c-.40181 3.5966-8.98 13.024-2.9032 12.588 1.2362-3.6166 9.2626-10.534 2.9489-12.566z" stroke-width=".26458px"/><path id="path7774" d="m-94.803 383.86c-2.426 2.6839-1.5295 9.3964.72958 3.4208 2.3793-5.0344-.29967-13.871 7.6323-13.214 7.6217-1.7219 15.243-3.4437 22.865-5.1656 8.6574 3.0791 18.766 3.1999 26.385 8.4653 4.8226 4.1281 11.975 6.9456 12.589 14.054 1.3491 4.2966 3.1287 8.728 1.5344 13.193-.69418 3.7096-1.3884 7.4191-2.0826 11.129-6.5275 4.2784-11.892 11.008-19.998 12.132-7.8889 1.7655-15.875 6.2372-23.927 2.9868-8.0287-1.7303-16.144-3.3716-23.766-6.5174-1.4491-3.7902.06338-13.106-3.7434-13.419 2.4385 6.1352-1.4063 16.965 8.3419 17.679 8.7613 1.8514 17.16 5.8537 26.109 6.5526 8.7667-1.7178 18.854-2.2182 25.88-8.0779 5.9324-5.2285 14.582-8.6829 14.47-17.746 2.6157-6.6043 1.7395-13.196-.80124-19.643-.99251-7.556-8.9931-10.223-13.996-14.89-8.0276-4.7935-17.849-6.182-26.779-8.9727-10.076 2.3962-20.153 4.7924-30.229 7.1886-.40514 3.6151-.81028 7.2302-1.2154 10.845z" stroke-width=".26458px"/></g><g stroke-width=".26458px"><path id="path7777" d="m-172.15 400.13h47.203c1.5534 5.9974-6.005 3.3037-9.437 3.8344h-37.898c.0441-1.2781.0882-2.5563.13222-3.8344z" fill="#7f7542"/><path id="path7782" d="m-179.49 398.72c-9.132-3.1182-3.5044 12.346.0599 4.7148-.02-1.5716-.04-3.1433-.0599-4.7148z" fill="#a8a381"/><path id="path7784" d="m-176.11 399.67c-.87307 11.428 9.6746-.78769 0 0z" fill="#91854b"/><path id="path7787" d="m-176.11 399.67c-6.4868-5.9825-3.5166 12.321.0548 3.1788-.0183-1.0596-.0364-2.1193-.0548-3.1788z" fill="#99946c"/><path id="path7789" d="m-100.79 390.12c-2.0029 6.6491 7.785 3.0166 4.3309 10.072-.02837 3.4327-.25772 6.8736-.40418 10.31 6.2744 1.8631 4.4021-5.2871 4.8534-8.9802.15858-3.894.31716-7.788.47574-11.682-3.0855-.0843-6.1925-.17967-9.2559.28046z" fill="#664a32"/><g><path id="path7791" d="m-89.941 389.93c.43631 9.9416.87261 19.883 1.3089 29.825-5.6576 3.0898-2.6504-10.157-3.6092-13.568 1.1385-4.3726-1.2474-14.915 2.3003-16.257z" fill="#9d8e51"/><path id="path7793" d="m-126.27 398.15c-1.5764 5.3632 1.19 8.0218 6.2914 6.8755h11.03c1.5764-5.3632-1.19-8.0218-6.2914-6.8755h-11.03z" fill="#90854b"/><path id="path7795" d="m-110.7 394.79v13.463h14.024c.18699-4.5501.37398-9.1001.56096-13.65-4.8617.0623-9.7234.12465-14.585.18698z" fill="#9f7a3b"/></g></g><g id="g7803" transform="translate(6.35)"><path id="path7797" d="m-45.996 403.97c.71176 9.8675-14.864 13.42-18.324 3.9609-3.8432-8.0833 6.2142-17.455 13.748-12.181 2.7709 1.7365 4.6745 4.9113 4.5761 8.2202z" fill="#4c321f" stroke-width=".20744px"/><path id="path7799" d="m-46.744 403.97c.70026 9.6443-14.935 12.284-17.253 2.7016-3.5034-10.342 13.05-16.64 16.674-5.8931l.44491 1.5596z" fill="#735331" stroke-width=".19117px"/><path id="path7801" d="m-50.524 403.97c-.25616 9.872-15.83 2.4927-8.0759-3.8751 3.1391-2.9653 8.2075-.15453 8.0759 3.8751z" fill="#856038" stroke-width=".10895px"/></g><path id="path7805" d="m-69.828 391.01c-.25616 9.872-15.83 2.4927-8.0759-3.8751 3.1391-2.9653 8.2075-.15453 8.0759 3.8751z" fill="#a79756" stroke-width=".10895px"/></g></g></g><g id="g7924" transform="matrix(-.057875 .15058 -.15058 -.057875 85.629 90.743)"><g stroke="#000" stroke-width=".26458px"><path id="path7813" d="m95.37-.13045c7.7019-3.0143 12.181 5.2267 7.2809 10.951-4.9623 1.2203-9.1311-.22383-7.4406-5.7457.05324-1.7349.10648-3.4699.15972-5.2048z" fill="#50524b"/><path id="path7815" d="m96.166 57.634c7.7019-3.0143 12.181 5.2267 7.2809 10.951-4.9623 1.2203-9.1311-.22383-7.4406-5.7457l.15972-5.2048z" fill="#50524b"/><path id="path7817" d="m-34.266 11.151c.17629 15.955.35259 31.909.52888 47.864 9.9606.44073 19.921.88147 29.882 1.3222.26444-17.189.52889-34.377.79333-51.566-10.401.79333-20.803 1.5867-31.204 2.38z" fill="#a5895a"/><path id="path7819" d="m-25.343 20.497c-1.9257 5.6723 15.377 3.0881 9.4037 0h-9.4037z" fill="#281e1d"/><path id="path7821" d="m-12.067 15.822c-8.3915-.47084-2.5806 19.101.25145 9.5648-.49397-3.1521-.14907-6.3818-.25145-9.5648z" fill="#8f8b6e"/></g><path id="path7823" d="m-12.053 12.209c10.49-2.997 20.979-5.994 31.469-8.991 5.612 1.1866 5.2062 6.093 4.7588 10.544-.61666 17.729-1.2333 35.458-1.85 53.187-11.812-3.0852-23.623-6.1703-35.435-9.2555.35259-15.161.70517-30.323 1.0578-45.484z" fill="#7f7542" fill-opacity=".98214" stroke="#000" stroke-width=".26458px"/><g stroke="#000" stroke-width=".26458px"><path id="path7825" d="m-41.331-2.1289c.06233 4.2384.12466 8.4768.18699 12.715h8.321c-.91877-4.9725 3.3327-15.191-4.8486-12.795-1.2198.026521-2.4396.053041-3.6594.079562z" fill="#af9665"/><path id="path7827" d="m-32.729-2.3159c7.7912.12466 15.582.24933 23.374.37399.3584 4.0982.71679 8.1963 1.0752 12.294-8.1807.07791-16.361.15582-24.542.23373.03117-4.3007.06233-8.6015.0935-12.902z" fill="#b7a074"/><path id="path7829" d="m-9.3555-1.9419c10.362.023133 20.723.046267 31.085.0694v9.3877c-10.003.94579-20.007 1.8916-30.01 2.8374-.3584-4.0981-.71679-8.1963-1.0752-12.294z" fill="#aa8f5b"/></g><path id="path7831" d="m21.73-1.8725c12.513.22618 25.027.45237 37.54.67855 2.326 6.7229-1.8079 12.609-8.9782 9.7411-9.5212-.32515-19.041-.67857-28.562-1.0319-3e-6-3.1292-7e-6-6.2585-1e-5-9.3877z" fill="#967d4e" fill-opacity=".97143" stroke="#000" stroke-width=".26458px"/><g stroke="#000" stroke-width=".26458px"><path id="path7833" d="m33.167-2.9302c-2.0582 6.3191 4.0655 5.2583 8.0828 5.4044 4.1151.15981 8.2302.31962 12.345.47943 1.5969-6.3796-4.3211-5.4917-8.482-5.529-3.982-.11828-7.9641-.23656-11.946-.35484z" fill="#78412f"/><path id="path7835" d="m47.645-2.4013c-1.8298 6.2606 4.2554 5.7722 1.7135-.13342l-.65968-.11586z" fill="#8a7745"/><path id="path7837" d="m59.269-1.1939c10.559-.027833 21.119-.055667 31.678-.0835-.33075 4.7748 2.46 12.697-4.8099 10.475-8.9303-.18605-17.861-.3721-26.791-.55816-.02569-3.2777-.05137-6.5554-.07706-9.833z" fill="#867046"/><path id="path7839" d="m91.013-.31886c7.0549-3.2747 6.5806 14.702.13266 8.9272-.27521-2.9457.0176-5.9527-.13266-8.9272z" fill="#aa8f5b"/><path id="path7841" d="m46.256 3.9453c15.955.17629 31.909.35259 47.864.52888v34.047c-18.775-.22037-37.551-.44074-56.326-.66111 2.8207-11.305 5.6414-22.61 8.4621-33.915z" fill="#7f7542"/><path id="path7843" d="m96.854 42.655l.56097 26.552c-4.9057 1.8999-11.898 2.4562-8.6232-4.8251 2.4548-6.938.47332-17.444 5.5928-22.305.89698-.12414 1.6201.48844 2.4694.57818z" fill="#645c3f"/><path id="path7845" d="m94.12 38.521c-.90758 9.0797 2.3245 19.911-1.484 27.642-3.2453 2.5123-8.2705-2.5905-13.003-1.0542-9.583-.13593-19.166-.27186-28.749-.4078-4.3633-8.9469-8.7266-17.894-13.09-26.841 18.775.22037 37.551.44074 56.326.66111z" fill="#6f673a"/><path id="path7847" d="m95.826 9.5579c3.2013 8.2105.89937 17.645 1.7817 26.375 1.952 3.3077-2.5756 11.692-3.3685 4.7467.21783-10.416-.09655-20.855-.08528-31.28.55735.052837 1.1147.10567 1.6721.15851z" fill="#47423b"/><path id="path7849" d="m97.789 16.103c5.0883 3.4086 1.0959 12.443 2.4093 18.123 1.9064 3.8292-3.201 8.7246-2.6839 2.5067.16182-6.8723.169-13.754.27464-20.63z" fill="#5a3b32"/><path id="path7851" d="m50.884 64.701c-1.9109 1.9385-3.8217 3.8769-5.7326 5.8154 14.367-.03117 28.734-.06233 43.101-.0935.04155-4.6319.90339-10.174-5.2116-7.9754-10.719.75116-21.438 1.5023-32.157 2.2535z" fill="#6f5d3a"/><path id="path7853" d="m-6.5507 59.344c.046747 3.7865.093493 7.573.14024 11.36 15.224.06234 30.448.12467 45.672.18701-15.271-3.8488-30.541-7.6977-45.812-11.547z" fill="#937a4d"/><path id="path7855" d="m-33.737 59.015c.11787 4.0362.23574 8.0724.35361 12.109 8.991-.14025 17.982-.28049 26.973-.42074-.046747-3.7865-.093493-7.573-.14024-11.36-9.0622-.10944-18.124-.21888-27.186-.32832z" fill="#b7a074"/><path id="path7857" d="m-33.737 59.015c-7.3309-2.9551-8.1561 11.747-2.2355 12.201 4.6501.355 1.67-5.7204 2.3398-8.6269-.0348-1.1913-.06959-2.3826-.10439-3.5739z" fill="#af9665"/></g><path id="path7859" d="m1.7642 27.811c-9.0442 2.8965-10.755-7.2008-8.6368-13.483 2.8361-3.8393 8.0123-1.6675 12.008-2.1851" fill="none" stroke="#5d583b" stroke-width=".79375"/><path id="path7861" d="m-5.9708 15.448c7.2646-5.7581 14.262 1.1081 11.219 9.0177-2.7392 4.7533-12.992 2.8798-11.174-3.5909-.014946-1.8089-.029892-3.6179-.044838-5.4268z" fill="#726c48" stroke="#000" stroke-width=".26458px"/><g id="g7867" transform="translate(103.77 -364.39)"><path id="path7863" d="m-101.55 422.6c-9.0442 2.8965-10.755-7.2008-8.6368-13.483 2.8361-3.8393 8.0123-1.6675 12.008-2.1851" fill="none" stroke="#5d583b" stroke-width=".79375"/><path id="path7865" d="m-109.29 410.24c7.2646-5.7581 14.263 1.108 11.219 9.0177-4.2018 5.9298-14.179 1.2234-11.195-6.14-.008-.95921-.0159-1.9184-.0238-2.8776z" fill="#726c48" stroke="#000" stroke-width=".26458px"/></g><g id="g7922" transform="rotate(-6.4538 -4636.1 -322.73)" stroke="#000"><path id="path7869" d="m-57.873 541.3h46.841c-.5825 6.1278-.07398 10.258 5.2819 13.327 3.0922 6.935.99182 15.645-3.6888 20.415.25803 5.1171-1.1225 10.228-6.9857 8.5172h-41.448c0-14.086 1e-6-28.173 1e-6-42.259z" fill="#c3b88b" stroke-width=".29191px"/><g id="g7920" transform="translate(33.658 160.81)"><g stroke-width=".26458px"><path id="path7871" d="m-47.028 385.63c6.6611 1.6118 18.217-3.2224 21.521 2.8054 1.3452 5.2962 4.365 10.665 2.4396 16.171-.69418 3.7096-1.3884 7.4191-2.0826 11.129-6.9501-.52709-17.771 2.9934-22.415.0545.17899-10.053.35798-20.106.53697-30.16z" fill="#b6a871"/><path id="path7873" d="m-95.084 410.5c6.7592-.30103-.68001 15.318 9.6499 10.72 11.649.13537 23.373.0458 34.709-2.9619 8.1533-1.8034 16.589-2.3841 24.865-2.3147-5.0999 3.9301-10.223 9.528-16.804 11.238-8.0929 1.3616-16.24 6.8139-24.454 4.0012-8.6328-2.0368-17.401-3.6967-25.722-6.8454-.74795-4.6124-1.4959-9.2248-2.2439-13.837z" fill="#3b3826"/><path id="path7875" d="m-95.084 389.93c7.8459 3.6731 3.3911-12.026 12.361-8.0191 9.6119-.21511 19.548-1.8616 28.717 1.9192 3.7734 1.8162 17.665 2.6964 6.7247.32705-9.1167-1.9142-18.055-5.7484-27.321-6.3691-5.2064.4634-10.413.9268-15.619 1.3902-1.6206 3.5839-3.2411 7.1679-4.8617 10.752z" fill="#675d35"/></g><g fill="#978b4e" stroke-width=".26458px"><path id="path7877" d="m-87.23 421.07c7.3802-2.2766-1.8471 11.111-1.2116 2.1522l.76834-.94548z"/><path id="path7879" d="m-70.214 420.13c-.74795 3.8956-1.4959 7.7912-2.2439 11.687 5.4324.61424 6.5489-9.5048 4.824-11.81l-1.2901.0614-1.2901.0614z"/><path id="path7881" d="m-49.467 417.46c1.3851 2.7507 5.9555 14.646 7.4822 7.7687-2.5392-2.5406-2.4328-10.352-7.4822-7.7687z"/></g><path id="path7883" d="m-95.084 389.93c1.6206-3.5839 3.2411-7.1679 4.8617-10.752 8.2704-.38804 16.792-2.8114 24.836.14314 6.7117 1.6664 13.423 3.3327 20.135 4.999.5486 5.0579 7.395 1.425 10.964 1.9749 1.9815-.52837 8.3811.2378 7.1207-1.2405-6.1994-4.2375-11.371-10.727-19.244-11.624-9.7933-3.1171-19.782-5.9423-29.724-1.6998-8.0223 1.8452-18.317 1.6138-18.479 12.103-.56049 1.9968-.47685 4.0552-.46977 6.0965z" fill="#3b3826" stroke-width=".26458px"/><g fill="#978b4e"><path id="path7885" d="m-70.588 370.28c1.0037 3.8381 2.0075 7.6762 3.0112 11.514 5.0876.84256 1.2562-12.754-2.3627-11.704l-.43128.12629z" stroke-width=".24798px"/><path id="path7887" d="m-88.165 374.58c-.54502 3.676 4.4183 12.648 4.5716 5.1676-1.1784-2.1183-.52695-7.8028-4.5716-5.1676z" stroke-width=".27928px"/><path id="path7889" d="m-44.426 373.03c-.40181 3.5966-8.98 13.024-2.9032 12.588 1.2362-3.6166 9.2626-10.534 2.9489-12.566z" stroke-width=".26458px"/><path id="path7891" d="m-94.803 383.86c-2.426 2.6839-1.5295 9.3964.72958 3.4208 2.3793-5.0344-.29967-13.871 7.6323-13.214 7.6217-1.7219 15.243-3.4437 22.865-5.1656 8.6574 3.0791 18.766 3.1999 26.385 8.4653 4.8226 4.1281 11.975 6.9456 12.589 14.054 1.3491 4.2966 3.1287 8.728 1.5344 13.193-.69418 3.7096-1.3884 7.4191-2.0826 11.129-6.5275 4.2784-11.892 11.008-19.998 12.132-7.8889 1.7655-15.875 6.2372-23.927 2.9868-8.0287-1.7303-16.144-3.3716-23.766-6.5174-1.4491-3.7902.06338-13.106-3.7434-13.419 2.4385 6.1352-1.4063 16.965 8.3419 17.679 8.7613 1.8514 17.16 5.8537 26.109 6.5526 8.7667-1.7178 18.854-2.2182 25.88-8.0779 5.9324-5.2285 14.582-8.6829 14.47-17.746 2.6157-6.6043 1.7395-13.196-.80124-19.643-.99251-7.556-8.9931-10.223-13.996-14.89-8.0276-4.7935-17.849-6.182-26.779-8.9727-10.076 2.3962-20.153 4.7924-30.229 7.1886-.40514 3.6151-.81028 7.2302-1.2154 10.845z" stroke-width=".26458px"/></g><g stroke-width=".26458px"><path id="path7893" d="m-172.15 400.13h47.203c1.5534 5.9974-6.005 3.3037-9.437 3.8344h-37.898c.0441-1.2781.0882-2.5563.13222-3.8344z" fill="#7f7542"/><path id="path7895" d="m-179.49 398.72c-9.132-3.1182-3.5044 12.346.0599 4.7148-.02-1.5716-.04-3.1433-.0599-4.7148z" fill="#a8a381"/><path id="path7897" d="m-176.11 399.67c-.87307 11.428 9.6746-.78769 0 0z" fill="#91854b"/><path id="path7899" d="m-176.11 399.67c-6.4868-5.9825-3.5166 12.321.0548 3.1788-.0183-1.0596-.0364-2.1193-.0548-3.1788z" fill="#99946c"/><path id="path7901" d="m-100.79 390.12c-2.0029 6.6491 7.785 3.0166 4.3309 10.072-.02837 3.4327-.25772 6.8736-.40418 10.31 6.2744 1.8631 4.4021-5.2871 4.8534-8.9802.15858-3.894.31716-7.788.47574-11.682-3.0855-.0843-6.1925-.17967-9.2559.28046z" fill="#664a32"/><g><path id="path7903" d="m-89.941 389.93c.43631 9.9416.87261 19.883 1.3089 29.825-5.6576 3.0898-2.6504-10.157-3.6092-13.568 1.1385-4.3726-1.2474-14.915 2.3003-16.257z" fill="#9d8e51"/><path id="path7905" d="m-126.27 398.15c-1.5764 5.3632 1.19 8.0218 6.2914 6.8755h11.03c1.5764-5.3632-1.19-8.0218-6.2914-6.8755h-11.03z" fill="#90854b"/><path id="path7907" d="m-110.7 394.79v13.463h14.024c.18699-4.5501.37398-9.1001.56096-13.65-4.8617.0623-9.7234.12465-14.585.18698z" fill="#9f7a3b"/></g></g><g id="g7916" transform="translate(6.35)"><path id="path7910" d="m-45.996 403.97c.71176 9.8675-14.864 13.42-18.324 3.9609-3.8432-8.0833 6.2142-17.455 13.748-12.181 2.7709 1.7365 4.6745 4.9113 4.5761 8.2202z" fill="#4c321f" stroke-width=".20744px"/><path id="path7912" d="m-46.744 403.97c.70026 9.6443-14.935 12.284-17.253 2.7016-3.5034-10.342 13.05-16.64 16.674-5.8931l.44491 1.5596z" fill="#735331" stroke-width=".19117px"/><path id="path7914" d="m-50.524 403.97c-.25616 9.872-15.83 2.4927-8.0759-3.8751 3.1391-2.9653 8.2075-.15453 8.0759 3.8751z" fill="#856038" stroke-width=".10895px"/></g><path id="path7918" d="m-69.828 391.01c-.25616 9.872-15.83 2.4927-8.0759-3.8751 3.1391-2.9653 8.2075-.15453 8.0759 3.8751z" fill="#a79756" stroke-width=".10895px"/></g></g></g><g id="g8036" transform="matrix(-.057875 .15058 -.15058 -.057875 117.38 90.743)"><g stroke="#000" stroke-width=".26458px"><path id="path7926" d="m95.37-.13045c7.7019-3.0143 12.181 5.2267 7.2809 10.951-4.9623 1.2203-9.1311-.22383-7.4406-5.7457.05324-1.7349.10648-3.4699.15972-5.2048z" fill="#50524b"/><path id="path7928" d="m96.166 57.634c7.7019-3.0143 12.181 5.2267 7.2809 10.951-4.9623 1.2203-9.1311-.22383-7.4406-5.7457l.15972-5.2048z" fill="#50524b"/><path id="path7930" d="m-34.266 11.151c.17629 15.955.35259 31.909.52888 47.864 9.9606.44073 19.921.88147 29.882 1.3222.26444-17.189.52889-34.377.79333-51.566-10.401.79333-20.803 1.5867-31.204 2.38z" fill="#a5895a"/><path id="path7932" d="m-25.343 20.497c-1.9257 5.6723 15.377 3.0881 9.4037 0h-9.4037z" fill="#281e1d"/><path id="path7934" d="m-12.067 15.822c-8.3915-.47084-2.5806 19.101.25145 9.5648-.49397-3.1521-.14907-6.3818-.25145-9.5648z" fill="#8f8b6e"/></g><path id="path7936" d="m-12.053 12.209c10.49-2.997 20.979-5.994 31.469-8.991 5.612 1.1866 5.2062 6.093 4.7588 10.544-.61666 17.729-1.2333 35.458-1.85 53.187-11.812-3.0852-23.623-6.1703-35.435-9.2555.35259-15.161.70517-30.323 1.0578-45.484z" fill="#7f7542" fill-opacity=".98214" stroke="#000" stroke-width=".26458px"/><g stroke="#000" stroke-width=".26458px"><path id="path7938" d="m-41.331-2.1289c.06233 4.2384.12466 8.4768.18699 12.715h8.321c-.91877-4.9725 3.3327-15.191-4.8486-12.795-1.2198.026521-2.4396.053041-3.6594.079562z" fill="#af9665"/><path id="path7940" d="m-32.729-2.3159c7.7912.12466 15.582.24933 23.374.37399.3584 4.0982.71679 8.1963 1.0752 12.294-8.1807.07791-16.361.15582-24.542.23373.03117-4.3007.06233-8.6015.0935-12.902z" fill="#b7a074"/><path id="path7942" d="m-9.3555-1.9419c10.362.023133 20.723.046267 31.085.0694v9.3877c-10.003.94579-20.007 1.8916-30.01 2.8374-.3584-4.0981-.71679-8.1963-1.0752-12.294z" fill="#aa8f5b"/></g><path id="path7944" d="m21.73-1.8725c12.513.22618 25.027.45237 37.54.67855 2.326 6.7229-1.8079 12.609-8.9782 9.7411-9.5212-.32515-19.041-.67857-28.562-1.0319-3e-6-3.1292-7e-6-6.2585-1e-5-9.3877z" fill="#967d4e" fill-opacity=".97143" stroke="#000" stroke-width=".26458px"/><g stroke="#000" stroke-width=".26458px"><path id="path7946" d="m33.167-2.9302c-2.0582 6.3191 4.0655 5.2583 8.0828 5.4044 4.1151.15981 8.2302.31962 12.345.47943 1.5969-6.3796-4.3211-5.4917-8.482-5.529-3.982-.11828-7.9641-.23656-11.946-.35484z" fill="#78412f"/><path id="path7948" d="m47.645-2.4013c-1.8298 6.2606 4.2554 5.7722 1.7135-.13342l-.65968-.11586z" fill="#8a7745"/><path id="path7950" d="m59.269-1.1939c10.559-.027833 21.119-.055667 31.678-.0835-.33075 4.7748 2.46 12.697-4.8099 10.475-8.9303-.18605-17.861-.3721-26.791-.55816-.02569-3.2777-.05137-6.5554-.07706-9.833z" fill="#867046"/><path id="path7952" d="m91.013-.31886c7.0549-3.2747 6.5806 14.702.13266 8.9272-.27521-2.9457.0176-5.9527-.13266-8.9272z" fill="#aa8f5b"/><path id="path7954" d="m46.256 3.9453c15.955.17629 31.909.35259 47.864.52888v34.047c-18.775-.22037-37.551-.44074-56.326-.66111 2.8207-11.305 5.6414-22.61 8.4621-33.915z" fill="#7f7542"/><path id="path7956" d="m96.854 42.655l.56097 26.552c-4.9057 1.8999-11.898 2.4562-8.6232-4.8251 2.4548-6.938.47332-17.444 5.5928-22.305.89698-.12414 1.6201.48844 2.4694.57818z" fill="#645c3f"/><path id="path7958" d="m94.12 38.521c-.90758 9.0797 2.3245 19.911-1.484 27.642-3.2453 2.5123-8.2705-2.5905-13.003-1.0542-9.583-.13593-19.166-.27186-28.749-.4078-4.3633-8.9469-8.7266-17.894-13.09-26.841 18.775.22037 37.551.44074 56.326.66111z" fill="#6f673a"/><path id="path7960" d="m95.826 9.5579c3.2013 8.2105.89937 17.645 1.7817 26.375 1.952 3.3077-2.5756 11.692-3.3685 4.7467.21783-10.416-.09655-20.855-.08528-31.28.55735.052837 1.1147.10567 1.6721.15851z" fill="#47423b"/><path id="path7962" d="m97.789 16.103c5.0883 3.4086 1.0959 12.443 2.4093 18.123 1.9064 3.8292-3.201 8.7246-2.6839 2.5067.16182-6.8723.169-13.754.27464-20.63z" fill="#5a3b32"/><path id="path7964" d="m50.884 64.701c-1.9109 1.9385-3.8217 3.8769-5.7326 5.8154 14.367-.03117 28.734-.06233 43.101-.0935.04155-4.6319.90339-10.174-5.2116-7.9754-10.719.75116-21.438 1.5023-32.157 2.2535z" fill="#6f5d3a"/><path id="path7966" d="m-6.5507 59.344c.046747 3.7865.093493 7.573.14024 11.36 15.224.06234 30.448.12467 45.672.18701-15.271-3.8488-30.541-7.6977-45.812-11.547z" fill="#937a4d"/><path id="path7968" d="m-33.737 59.015c.11787 4.0362.23574 8.0724.35361 12.109 8.991-.14025 17.982-.28049 26.973-.42074-.046747-3.7865-.093493-7.573-.14024-11.36-9.0622-.10944-18.124-.21888-27.186-.32832z" fill="#b7a074"/><path id="path7970" d="m-33.737 59.015c-7.3309-2.9551-8.1561 11.747-2.2355 12.201 4.6501.355 1.67-5.7204 2.3398-8.6269-.0348-1.1913-.06959-2.3826-.10439-3.5739z" fill="#af9665"/></g><path id="path7972" d="m1.7642 27.811c-9.0442 2.8965-10.755-7.2008-8.6368-13.483 2.8361-3.8393 8.0123-1.6675 12.008-2.1851" fill="none" stroke="#5d583b" stroke-width=".79375"/><path id="path7974" d="m-5.9708 15.448c7.2646-5.7581 14.262 1.1081 11.219 9.0177-2.7392 4.7533-12.992 2.8798-11.174-3.5909-.014946-1.8089-.029892-3.6179-.044838-5.4268z" fill="#726c48" stroke="#000" stroke-width=".26458px"/><g id="g7980" transform="translate(103.77 -364.39)"><path id="path7976" d="m-101.55 422.6c-9.0442 2.8965-10.755-7.2008-8.6368-13.483 2.8361-3.8393 8.0123-1.6675 12.008-2.1851" fill="none" stroke="#5d583b" stroke-width=".79375"/><path id="path7978" d="m-109.29 410.24c7.2646-5.7581 14.263 1.108 11.219 9.0177-4.2018 5.9298-14.179 1.2234-11.195-6.14-.008-.95921-.0159-1.9184-.0238-2.8776z" fill="#726c48" stroke="#000" stroke-width=".26458px"/></g><g id="g8034" transform="rotate(-6.4538 -4636.1 -322.73)" stroke="#000"><path id="path7982" d="m-57.873 541.3h46.841c-.5825 6.1278-.07398 10.258 5.2819 13.327 3.0922 6.935.99182 15.645-3.6888 20.415.25803 5.1171-1.1225 10.228-6.9857 8.5172h-41.448c0-14.086 1e-6-28.173 1e-6-42.259z" fill="#c3b88b" stroke-width=".29191px"/><g id="g8032" transform="translate(33.658 160.81)"><g stroke-width=".26458px"><path id="path7984" d="m-47.028 385.63c6.6611 1.6118 18.217-3.2224 21.521 2.8054 1.3452 5.2962 4.365 10.665 2.4396 16.171-.69418 3.7096-1.3884 7.4191-2.0826 11.129-6.9501-.52709-17.771 2.9934-22.415.0545.17899-10.053.35798-20.106.53697-30.16z" fill="#b6a871"/><path id="path7986" d="m-95.084 410.5c6.7592-.30103-.68001 15.318 9.6499 10.72 11.649.13537 23.373.0458 34.709-2.9619 8.1533-1.8034 16.589-2.3841 24.865-2.3147-5.0999 3.9301-10.223 9.528-16.804 11.238-8.0929 1.3616-16.24 6.8139-24.454 4.0012-8.6328-2.0368-17.401-3.6967-25.722-6.8454-.74795-4.6124-1.4959-9.2248-2.2439-13.837z" fill="#3b3826"/><path id="path7988" d="m-95.084 389.93c7.8459 3.6731 3.3911-12.026 12.361-8.0191 9.6119-.21511 19.548-1.8616 28.717 1.9192 3.7734 1.8162 17.665 2.6964 6.7247.32705-9.1167-1.9142-18.055-5.7484-27.321-6.3691-5.2064.4634-10.413.9268-15.619 1.3902-1.6206 3.5839-3.2411 7.1679-4.8617 10.752z" fill="#675d35"/></g><g fill="#978b4e" stroke-width=".26458px"><path id="path7990" d="m-87.23 421.07c7.3802-2.2766-1.8471 11.111-1.2116 2.1522l.76834-.94548z"/><path id="path7992" d="m-70.214 420.13c-.74795 3.8956-1.4959 7.7912-2.2439 11.687 5.4324.61424 6.5489-9.5048 4.824-11.81l-1.2901.0614-1.2901.0614z"/><path id="path7994" d="m-49.467 417.46c1.3851 2.7507 5.9555 14.646 7.4822 7.7687-2.5392-2.5406-2.4328-10.352-7.4822-7.7687z"/></g><path id="path7996" d="m-95.084 389.93c1.6206-3.5839 3.2411-7.1679 4.8617-10.752 8.2704-.38804 16.792-2.8114 24.836.14314 6.7117 1.6664 13.423 3.3327 20.135 4.999.5486 5.0579 7.395 1.425 10.964 1.9749 1.9815-.52837 8.3811.2378 7.1207-1.2405-6.1994-4.2375-11.371-10.727-19.244-11.624-9.7933-3.1171-19.782-5.9423-29.724-1.6998-8.0223 1.8452-18.317 1.6138-18.479 12.103-.56049 1.9968-.47685 4.0552-.46977 6.0965z" fill="#3b3826" stroke-width=".26458px"/><g fill="#978b4e"><path id="path7998" d="m-70.588 370.28c1.0037 3.8381 2.0075 7.6762 3.0112 11.514 5.0876.84256 1.2562-12.754-2.3627-11.704l-.43128.12629z" stroke-width=".24798px"/><path id="path8000" d="m-88.165 374.58c-.54502 3.676 4.4183 12.648 4.5716 5.1676-1.1784-2.1183-.52695-7.8028-4.5716-5.1676z" stroke-width=".27928px"/><path id="path8002" d="m-44.426 373.03c-.40181 3.5966-8.98 13.024-2.9032 12.588 1.2362-3.6166 9.2626-10.534 2.9489-12.566z" stroke-width=".26458px"/><path id="path8004" d="m-94.803 383.86c-2.426 2.6839-1.5295 9.3964.72958 3.4208 2.3793-5.0344-.29967-13.871 7.6323-13.214 7.6217-1.7219 15.243-3.4437 22.865-5.1656 8.6574 3.0791 18.766 3.1999 26.385 8.4653 4.8226 4.1281 11.975 6.9456 12.589 14.054 1.3491 4.2966 3.1287 8.728 1.5344 13.193-.69418 3.7096-1.3884 7.4191-2.0826 11.129-6.5275 4.2784-11.892 11.008-19.998 12.132-7.8889 1.7655-15.875 6.2372-23.927 2.9868-8.0287-1.7303-16.144-3.3716-23.766-6.5174-1.4491-3.7902.06338-13.106-3.7434-13.419 2.4385 6.1352-1.4063 16.965 8.3419 17.679 8.7613 1.8514 17.16 5.8537 26.109 6.5526 8.7667-1.7178 18.854-2.2182 25.88-8.0779 5.9324-5.2285 14.582-8.6829 14.47-17.746 2.6157-6.6043 1.7395-13.196-.80124-19.643-.99251-7.556-8.9931-10.223-13.996-14.89-8.0276-4.7935-17.849-6.182-26.779-8.9727-10.076 2.3962-20.153 4.7924-30.229 7.1886-.40514 3.6151-.81028 7.2302-1.2154 10.845z" stroke-width=".26458px"/></g><g stroke-width=".26458px"><path id="path8006" d="m-172.15 400.13h47.203c1.5534 5.9974-6.005 3.3037-9.437 3.8344h-37.898c.0441-1.2781.0882-2.5563.13222-3.8344z" fill="#7f7542"/><path id="path8008" d="m-179.49 398.72c-9.132-3.1182-3.5044 12.346.0599 4.7148-.02-1.5716-.04-3.1433-.0599-4.7148z" fill="#a8a381"/><path id="path8010" d="m-176.11 399.67c-.87307 11.428 9.6746-.78769 0 0z" fill="#91854b"/><path id="path8012" d="m-176.11 399.67c-6.4868-5.9825-3.5166 12.321.0548 3.1788-.0183-1.0596-.0364-2.1193-.0548-3.1788z" fill="#99946c"/><path id="path8014" d="m-100.79 390.12c-2.0029 6.6491 7.785 3.0166 4.3309 10.072-.02837 3.4327-.25772 6.8736-.40418 10.31 6.2744 1.8631 4.4021-5.2871 4.8534-8.9802.15858-3.894.31716-7.788.47574-11.682-3.0855-.0843-6.1925-.17967-9.2559.28046z" fill="#664a32"/><g><path id="path8016" d="m-89.941 389.93c.43631 9.9416.87261 19.883 1.3089 29.825-5.6576 3.0898-2.6504-10.157-3.6092-13.568 1.1385-4.3726-1.2474-14.915 2.3003-16.257z" fill="#9d8e51"/><path id="path8018" d="m-126.27 398.15c-1.5764 5.3632 1.19 8.0218 6.2914 6.8755h11.03c1.5764-5.3632-1.19-8.0218-6.2914-6.8755h-11.03z" fill="#90854b"/><path id="path8020" d="m-110.7 394.79v13.463h14.024c.18699-4.5501.37398-9.1001.56096-13.65-4.8617.0623-9.7234.12465-14.585.18698z" fill="#9f7a3b"/></g></g><g id="g8028" transform="translate(6.35)"><path id="path8022" d="m-45.996 403.97c.71176 9.8675-14.864 13.42-18.324 3.9609-3.8432-8.0833 6.2142-17.455 13.748-12.181 2.7709 1.7365 4.6745 4.9113 4.5761 8.2202z" fill="#4c321f" stroke-width=".20744px"/><path id="path8024" d="m-46.744 403.97c.70026 9.6443-14.935 12.284-17.253 2.7016-3.5034-10.342 13.05-16.64 16.674-5.8931l.44491 1.5596z" fill="#735331" stroke-width=".19117px"/><path id="path8026" d="m-50.524 403.97c-.25616 9.872-15.83 2.4927-8.0759-3.8751 3.1391-2.9653 8.2075-.15453 8.0759 3.8751z" fill="#856038" stroke-width=".10895px"/></g><path id="path8030" d="m-69.828 391.01c-.25616 9.872-15.83 2.4927-8.0759-3.8751 3.1391-2.9653 8.2075-.15453 8.0759 3.8751z" fill="#a79756" stroke-width=".10895px"/></g></g></g></g></svg>
