<?xml version="1.0" encoding="UTF-8"?>
<!-- Created with Inkscape (http://www.inkscape.org/) -->
<svg id="svg614" width="480" height="840" version="1.1" viewBox="0 0 127 222.25001" xmlns="http://www.w3.org/2000/svg" xmlns:cc="http://creativecommons.org/ns#" xmlns:dc="http://purl.org/dc/elements/1.1/" xmlns:rdf="http://www.w3.org/1999/02/22-rdf-syntax-ns#"><metadata id="metadata611"><rdf:RDF><cc:Work rdf:about=""><dc:format>image/svg+xml</dc:format><dc:type rdf:resource="http://purl.org/dc/dcmitype/StillImage"/><dc:title/></cc:Work></rdf:RDF></metadata><g id="layer1" transform="translate(0 -74.75)"><g id="g4792" transform="translate(32.054)"><path id="path4790" d="m2.7525 106.72v-1.2802h19.844v2.5605h-19.844z" fill="#fc0" stroke="#fff" stroke-width=".26458"/></g><path id="path4926" d="m66.253 106.72v-1.2802h13.229v2.5605h-13.229z" fill="#ff0" stroke="#fff" stroke-width=".26458"/><g id="g5064" transform="translate(95.25)"><path id="path5062" d="m2.7525 106.72v-1.2802h6.6146v2.5605h-6.6146z" fill="#d40000" stroke="#fff" stroke-width=".26458"/></g><g id="g4656"><path id="path4453" d="m2.7525 106.72v-1.2802h26.245v2.5605h-26.245z" fill="#aad400" stroke="#fff" stroke-width=".26458"/></g><g id="g11097" transform="matrix(.30445 0 0 .30445 100.51 22.687)"><g><path id="path11007" d="m-288.58 236.34c.53754 2.2678-.4407 6.2963 3.079 6.0907 2.1574.37958 5.3446 1.8784 4.6589-1.7788-.62208-1.7024-1.9348-5.0441-4.1657-4.7322-1.1908.14009-2.3815.28018-3.5723.42027z" fill="#6a5432" stroke="#000" stroke-width=".132"/><g><path id="path11009" d="m-287.95 229.65c5.673.18082 11.346.36165 17.019.54247.50276 3.6818 2.9453 7.3586 1.4552 11.112-1.8298-4.0568-7.8204 2.2174-8.5904-2.2874-.47032-1.14-.8814-3.8336-.71119-1.185-.26109 2.6965-3.5726 2.5273-3.6884-.17092-1.7051-1.8169-7.3381-.11248-5.4715-4.1053.1115-1.3002.0174-2.6049-.0125-3.9063z" fill="#5f4b2d" fill-opacity=".99251" stroke="#544328" stroke-opacity=".98431" stroke-width=".14279px"/><g><path id="path11011" d="m-270.93 230.19c.83365-3.509 1.9063-7.0682 1.3104-10.71-.19426-3.772-.38854-7.5441-.5828-11.316-2.7185-2.5333-6.2676-3.8098-9.9574-3.4327-3.3634-.94866-8.0057.75869-6.7013 4.9094-.0265 5.7874-.54204 11.561-1.0155 17.32-.73682 4.4146 4.9097 2.9229 7.6572 3.6839 3.0978.23168 6.2387.17686 9.2895-.45425z" fill="#6a573a" fill-opacity=".98571" stroke="#604f35" stroke-width=".14279px"/><path id="path11013" d="m-288.58 236.48c.20268 1.7773.40536 3.5547.60804 5.332 1.6911-3.2777 5.5794.0344 6.8174.49832.74036-3.3264-5.0511-3.0896-5.7655-4.4918 2.2514-1.7349 4.7295 3.4651 5.8858 2.0475-1.2029-2.9235-4.7282-3.5982-7.5457-3.386z" fill="#4c3c23" stroke="#000" stroke-width=".132"/><path id="path11015" d="m-291.44 235.31c.95187 2.1816.23445 7.0672 2.5861 7.4569 1.823-2.0969.56723-7.1427-1.3282-8.066-.41665.19985-.7766.57106-1.2579.6091z" fill="#6b6464" stroke="#000" stroke-width=".132"/></g></g></g><g fill-opacity=".99251" stroke="#544328" stroke-opacity=".98431" stroke-width=".14279px"><path id="path11017" d="m-288.02 241.86c-.92111 2.0174.55769 3.178 2.2705 2.7114 2.5513 2.3867 6.5886-.61284 2.6445-2.3778-1.5659-.5827-3.2819-.5423-4.915-.33365z" fill="#6a787f"/><path id="path11019" d="m-288.21 244.71c-2.5226 2.7714-1.6753 8.6587 2.9174 8.0061 3.878-.0591 5.3268-6.5175 1.4916-7.8409-1.405-.52969-2.9587-.42215-4.409-.16522z" fill="#7a8990"/><path id="path11021" d="m-289.15 251.68c-1.535 3.8356 5.6847 4.382 6.3291 1.4696-.99352-2.0488-4.4896-.84685-6.3291-1.4696z" fill="#657279"/><path id="path11023" d="m-288.82 254.76c.62434 3.0696-.97825 8.0656 3.0752 9.191 4.1572.17287 4.4073-4.9814 4.1417-7.9999-.25987-2.9748-3.0812-1.8322-4.982-1.5104-.74497.10642-1.4899.21285-2.2349.31927z" fill="#796039"/><path id="path11025" d="m-277.28 241.57c.56703 3.6281 4.5312-1.7154 6.6586.37581 2.3895-1.3738-3.622-3.3789-4.9594-1.4281-.60225.2882-1.1693.64697-1.6992 1.0523z" fill="#6a787f"/><path id="path11027" d="m-276.47 251.75c.48094 3.1359-3.1292 8.5559 1.4305 9.803 3.3536 1.4474 5.2199-1.8544 4.4666-4.7463.97587-2.21.91699-5.6588-2.4657-4.832-1.1438-.0749-2.2876-.14975-3.4314-.22462z" fill="#796039"/><path id="path11029" d="m-276.1 249.2c-2.3913 4.1009 5.8418 5.3644 6.3163 1.5132-.63453-2.6026-4.2951-1.0572-6.2874-1.5126z" fill="#657279"/><path id="path11031" d="m-277.08 243.49c-1.5571 3.6049 2.1128 8.0594 5.9282 6.3175 3.4649-1.1544 3.0853-7.6747-.66187-8.0732-1.9069-.1811-3.7112.75992-5.2664 1.7558z" fill="#7a8990"/></g><g><g stroke="#000" stroke-width=".132"><path id="path11033" d="m-290.78 269.78c.98917 3.0605 7.4026 1.3956 7.3148-.0967-2.3513-.75961-4.8795.42812-7.3148.0967z" fill="#92735c"/><path id="path11035" d="m-287.14 263.73c2.3151 2.7412-6.8948 5.9696-.99576 6.7827 2.8959.63543 6.5346-1.0771 5.1679-4.5043.0584-3.4249-1.9168-2.087-4.1721-2.2785z" fill="#a3846d"/><path id="path11037" d="m-277.13 268.45c.19237 3.0336 4.3713 3.4754 6.5624 4.4783 3.2117-1.7992-1.3871-2.5313-2.9053-3.1121-1.219-.45539-2.4381-.91078-3.6571-1.3662z" fill="#92735c"/><path id="path11039" d="m-276.31 261.13c.56548 3.0907-2.6424 7.4145 1.6223 9.0332 1.414 1.2255 6.7854 2.6414 5.365-.80158-3.5894-1.0672-2.3267-6.2737-4.4189-7.6665-.8596-.17205-1.7156-.36207-2.5683-.5652z" fill="#a3846d"/><path id="path11041" d="m-289.59 221.66c-3.9726 1.3739-1.0552 7.1478 2.3397 4.275 1.5394-1.7094.49112-5.8389-2.3397-4.275z" fill="#a18458"/><path id="path11043" d="m-290.79 226.19c-2.1746 3.4087 5.4248 5.9014 4.9378 1.8001-.5967-2.0091-3.2317-2.1643-4.9378-1.8001z" fill="#756040"/></g><path id="path11045" d="m-286.35 222.06c2.3939.24662 7.1261-1.6685 6.4378 2.5742.97898 2.3651.66224 5.5596-2.6566 4.3696-3.5034.5916-4.9968-2.9105-3.8756-5.7634.0472-.39196.0851-.78554.0944-1.1805z" fill="#3a301f"/><path id="path11047" d="m-278.51 222.13c.029 2.5503-2.5432 7.7577 2.26 6.9071 3.4188 1.1027 4.092-1.9247 4.2445-4.5328 1.4494-3.6865-4.8163-1.482-6.5045-2.3743z" fill="#3a301f"/><g stroke="#000"><g><path id="path11049" d="m-277.98 221.6c.029 2.5503-2.5432 7.7577 2.26 6.9071 3.4188 1.1027 4.092-1.9247 4.2445-4.5328 1.4494-3.6865-4.8163-1.482-6.5045-2.3743z" fill="#8b724c" stroke-width=".132"/><path id="path11051" d="m-284.92 204.46c-2.3444.16862-1.6605 5.2848-.22063 1.5304.19179-.48143.3083-1.0112.22063-1.5304z" fill="#0a0e18" stroke-width=".26458px"/><path id="path11053" d="m-285.35 206.45c.20426-3.2805 6.0596 1.4781 1.7268.85243-.57134-.29195-1.0939-.69221-1.7268-.85243z" fill="#131b2e" stroke-width=".132"/></g><path id="path11055" d="m-281.65 206.17c3.4063-.16422.91432 3.9946-.72702 1.2545-.008-.50777.40008-.92186.72702-1.2545z" fill="#63666d" stroke-width=".132"/><path id="path11057" d="m-280.1 208.51c1.0332 1.9828-4.0617 4.913-1.2838 5.7294 1.0814-.75115 3.6942-4.1735 3.9112-3.1535-1.6663 2.4858 2.15 1.4335 2.6441-.0676 2.0212.84315 4.1523-1.8663 1.3304-2.2574-1.8672-.1847-6.2942-3.6132-6.6018-.25084z" fill="#131b2e" stroke-width=".132"/></g><path id="path11059" d="m-284.59 210.71c1.723-1.8626 7.1776-1.7028 6.64 1.2232-1.9395-.68013-1.4323-.81251-.91335 1.1251-1.5065.97558-2.1277-2.4081-1.1274.22645-.0508 1.7286-1.7419-1.0312-.80948 1.0654-1.8147-.88841-4.6928-.66682-3.7898-3.6401z" fill="#a3746c" stroke="#97685f" stroke-width=".14279px"/><g stroke="#000" stroke-width=".132"><path id="path11061" d="m-277.87 207.17c.45234-3.3891 5.1708 1.9013 1.3011.45936-.4266-.17346-.87356-.28844-1.3011-.45936z" fill="#173039"/><path id="path11063" d="m-267.44 211.01c.93206-2.583 4.1844.54872 1.3295.66602-.45518-.20124-.82349-.57694-1.3295-.66602z" fill="#454c5c"/><path id="path11065" d="m-266.8 211.25c1.1911-2.1497 1.6541 1.153 0 0z" fill="#808aa0"/></g><g><g stroke-width=".14279px"><path id="path11067" d="m-270.21 208.17c1.553 3.827 3.7822 7.3724 5.0663 11.304.59364 2.064-2.0679 4.9638-2.81 1.633-2.8203-3.6874-1.7984-8.6405-2.2563-12.937z" fill="#786342" stroke="#54452e"/><path id="path11069" d="m-271.28 218.05c3.8045-2.5509 7.1757 4.436 2.9267 5.8019-2.9451.43402-4.9134-3.677-2.9267-5.8019z" fill="#8d744d" stroke="#54452e"/><path id="path11071" d="m-283.37 199.3c-1.0305 3.252 1.4017 7.4231 5.1417 6.4842 2.8293-.77592 4.6347-6.3241 2.1126-7.7318-2.4298.38143-4.7893 1.0266-7.2543 1.2476z" fill="#a3746c" stroke="#97685f"/></g><path id="path11073" d="m-282.64 200.82c2.0193 1.3129 4.21-1.1241 6.0388.17858 2.6226-1.2766.78933-3.3522-1.4653-2.1718-1.626.0584-4.1955-.12514-4.5734 1.9932z" fill="#0a0805" stroke="#000" stroke-width=".26458px"/><path id="path11075" d="m-284.94 202.17c1.7225-3.1369 6.4116-3.9234 9.4671-3.3719.3391 2.6239 2.7989.8401 1.3141-.8719-.86715-3.145-4.0642-5.7885-7.387-4.5808-3.4606 1.3784-3.998 5.6165-3.3942 8.8246z" fill="#4c3f28" stroke="#403522" stroke-width=".14279px"/></g><g stroke="#54452e"><path id="path11077" d="m-286.95 206.15c-3.3932 2.0315-4.837 6.1751-5.7374 9.808-.63923 1.5716-.13038 4.3858 1.2526 1.5093 2.5994-2.5284 5.736-5.3218 4.7988-9.3719-.038-.65666-.13199-1.3123-.31398-1.9453z" fill="#806946" stroke-width=".14279px"/><path id="path11079" d="m-291.91 215.9c-3.1571 2.6162 1.5997 8.2502 4.2261 4.5697 2.9394-1.2466 4.0529-8.7005-.33823-7.2505-1.3614.79736-2.514 1.9028-3.8879 2.6808z" fill="#8a714b" stroke-width=".143"/><path id="path11081" d="m-286.81 212.44c1.1636-1.3859 2.4318-1.7157 2.6164.11141 1.956 1.3027-.77794 4.2232-1.3899 1.4202-.27674-.58971-.58891-1.2486-1.2265-1.5316z" fill="#8a714b" stroke-width=".143"/></g><g stroke="#000"><path id="ellipse11083" d="m-274.48 207.28c-1.9026.41936 1.2796-2.3151 0 0z" fill="#0d1a1f" stroke-width=".10513"/><path id="path11085" d="m-267.98 210.87c3.4801-.29477 1.6593 4.5756-.57607 1.8963-.54581-.64143-.26245-1.6783.57607-1.8963z" fill="#454c5c" stroke-width=".132"/><path id="path11087" d="m-271.7 209.35c1.8875-.0587 5.4048 2.971 1.7946 3.0061-1.3298-.31728-4.4795-1.8154-1.7946-3.0061z" fill="#3c4250" stroke-width=".132"/></g><path id="path11089" d="m-271.28 218.05c.0104-1.1058-2.9026-4.8904-.22409-3.0922 2.3579 3.0745-2.6403-2.9793.41405-1.2916.89157 1.2615 1.6885 2.0841.2873.35526-1.386-1.3449-.33967-2.599.85629-.89057 1.9289 2.8378-1.0385-1.9861 1.0719-.42741 2.7453 2.5859 1.493 5.8498-2.4055 5.3465z" fill="#a3746c" stroke="#97685f" stroke-width=".14279px"/><g stroke="#000"><path id="path11091" d="m-266.02 212.81c1.0831 1.1409 5.1088.94491 4.3385 2.9492-.90807-1.0086-5.5025-1.1738-4.3385-2.9492z" fill="#596277" stroke-width=".132"/><path id="ellipse11093" d="m-261.03 215.77c-1.3681.2774.80072-1.4556 0 0z" fill="#363b48" stroke-width=".11758"/><path id="path11095" d="m-286.87 221.53c2.3939.24662 7.1261-1.6685 6.4378 2.5742.97898 2.3651.66224 5.5596-2.6566 4.3696-3.5034.5916-4.9968-2.9105-3.8756-5.7634.0471-.39196.0851-.78554.0944-1.1805z" fill="#8b724c" stroke-width=".132"/></g></g></g><g id="g2980" transform="matrix(.30445 0 0 .30445 132.26 22.687)"><g><path id="path2890" d="m-288.58 236.34c.53754 2.2678-.4407 6.2963 3.079 6.0907 2.1574.37958 5.3446 1.8784 4.6589-1.7788-.62208-1.7024-1.9348-5.0441-4.1657-4.7322-1.1908.14009-2.3815.28018-3.5723.42027z" fill="#6a5432" stroke="#000" stroke-width=".132"/><g><path id="path2892" d="m-287.95 229.65c5.673.18082 11.346.36165 17.019.54247.50276 3.6818 2.9453 7.3586 1.4552 11.112-1.8298-4.0568-7.8204 2.2174-8.5904-2.2874-.47032-1.14-.8814-3.8336-.71119-1.185-.26109 2.6965-3.5726 2.5273-3.6884-.17092-1.7051-1.8169-7.3381-.11248-5.4715-4.1053.1115-1.3002.0174-2.6049-.0125-3.9063z" fill="#5f4b2d" fill-opacity=".99251" stroke="#544328" stroke-opacity=".98431" stroke-width=".14279px"/><g><path id="path2894" d="m-270.93 230.19c.83365-3.509 1.9063-7.0682 1.3104-10.71-.19426-3.772-.38854-7.5441-.5828-11.316-2.7185-2.5333-6.2676-3.8098-9.9574-3.4327-3.3634-.94866-8.0057.75869-6.7013 4.9094-.0265 5.7874-.54204 11.561-1.0155 17.32-.73682 4.4146 4.9097 2.9229 7.6572 3.6839 3.0978.23168 6.2387.17686 9.2895-.45425z" fill="#6a573a" fill-opacity=".98571" stroke="#604f35" stroke-width=".14279px"/><path id="path2896" d="m-288.58 236.48c.20268 1.7773.40536 3.5547.60804 5.332 1.6911-3.2777 5.5794.0344 6.8174.49832.74036-3.3264-5.0511-3.0896-5.7655-4.4918 2.2514-1.7349 4.7295 3.4651 5.8858 2.0475-1.2029-2.9235-4.7282-3.5982-7.5457-3.386z" fill="#4c3c23" stroke="#000" stroke-width=".132"/><path id="path2898" d="m-291.44 235.31c.95187 2.1816.23445 7.0672 2.5861 7.4569 1.823-2.0969.56723-7.1427-1.3282-8.066-.41665.19985-.7766.57106-1.2579.6091z" fill="#6b6464" stroke="#000" stroke-width=".132"/></g></g></g><g fill-opacity=".99251" stroke="#544328" stroke-opacity=".98431" stroke-width=".14279px"><path id="path2900" d="m-288.02 241.86c-.92111 2.0174.55769 3.178 2.2705 2.7114 2.5513 2.3867 6.5886-.61284 2.6445-2.3778-1.5659-.5827-3.2819-.5423-4.915-.33365z" fill="#6a787f"/><path id="path2902" d="m-288.21 244.71c-2.5226 2.7714-1.6753 8.6587 2.9174 8.0061 3.878-.0591 5.3268-6.5175 1.4916-7.8409-1.405-.52969-2.9587-.42215-4.409-.16522z" fill="#7a8990"/><path id="path2904" d="m-289.15 251.68c-1.535 3.8356 5.6847 4.382 6.3291 1.4696-.99352-2.0488-4.4896-.84685-6.3291-1.4696z" fill="#657279"/><path id="path2906" d="m-288.82 254.76c.62434 3.0696-.97825 8.0656 3.0752 9.191 4.1572.17287 4.4073-4.9814 4.1417-7.9999-.25987-2.9748-3.0812-1.8322-4.982-1.5104-.74497.10642-1.4899.21285-2.2349.31927z" fill="#796039"/><path id="path2908" d="m-277.28 241.57c.56703 3.6281 4.5312-1.7154 6.6586.37581 2.3895-1.3738-3.622-3.3789-4.9594-1.4281-.60225.2882-1.1693.64697-1.6992 1.0523z" fill="#6a787f"/><path id="path2910" d="m-276.47 251.75c.48094 3.1359-3.1292 8.5559 1.4305 9.803 3.3536 1.4474 5.2199-1.8544 4.4666-4.7463.97587-2.21.91699-5.6588-2.4657-4.832-1.1438-.0749-2.2876-.14975-3.4314-.22462z" fill="#796039"/><path id="path2912" d="m-276.1 249.2c-2.3913 4.1009 5.8418 5.3644 6.3163 1.5132-.63453-2.6026-4.2951-1.0572-6.2874-1.5126z" fill="#657279"/><path id="path2914" d="m-277.08 243.49c-1.5571 3.6049 2.1128 8.0594 5.9282 6.3175 3.4649-1.1544 3.0853-7.6747-.66187-8.0732-1.9069-.1811-3.7112.75992-5.2664 1.7558z" fill="#7a8990"/></g><g><g stroke="#000" stroke-width=".132"><path id="path2916" d="m-290.78 269.78c.98917 3.0605 7.4026 1.3956 7.3148-.0967-2.3513-.75961-4.8795.42812-7.3148.0967z" fill="#92735c"/><path id="path2918" d="m-287.14 263.73c2.3151 2.7412-6.8948 5.9696-.99576 6.7827 2.8959.63543 6.5346-1.0771 5.1679-4.5043.0584-3.4249-1.9168-2.087-4.1721-2.2785z" fill="#a3846d"/><path id="path2920" d="m-277.13 268.45c.19237 3.0336 4.3713 3.4754 6.5624 4.4783 3.2117-1.7992-1.3871-2.5313-2.9053-3.1121-1.219-.45539-2.4381-.91078-3.6571-1.3662z" fill="#92735c"/><path id="path2922" d="m-276.31 261.13c.56548 3.0907-2.6424 7.4145 1.6223 9.0332 1.414 1.2255 6.7854 2.6414 5.365-.80158-3.5894-1.0672-2.3267-6.2737-4.4189-7.6665-.8596-.17205-1.7156-.36207-2.5683-.5652z" fill="#a3846d"/><path id="path2924" d="m-289.59 221.66c-3.9726 1.3739-1.0552 7.1478 2.3397 4.275 1.5394-1.7094.49112-5.8389-2.3397-4.275z" fill="#a18458"/><path id="path2926" d="m-290.79 226.19c-2.1746 3.4087 5.4248 5.9014 4.9378 1.8001-.5967-2.0091-3.2317-2.1643-4.9378-1.8001z" fill="#756040"/></g><path id="path2928" d="m-286.35 222.06c2.3939.24662 7.1261-1.6685 6.4378 2.5742.97898 2.3651.66224 5.5596-2.6566 4.3696-3.5034.5916-4.9968-2.9105-3.8756-5.7634.0472-.39196.0851-.78554.0944-1.1805z" fill="#3a301f"/><path id="path2930" d="m-278.51 222.13c.029 2.5503-2.5432 7.7577 2.26 6.9071 3.4188 1.1027 4.092-1.9247 4.2445-4.5328 1.4494-3.6865-4.8163-1.482-6.5045-2.3743z" fill="#3a301f"/><g stroke="#000"><g><path id="path2932" d="m-277.98 221.6c.029 2.5503-2.5432 7.7577 2.26 6.9071 3.4188 1.1027 4.092-1.9247 4.2445-4.5328 1.4494-3.6865-4.8163-1.482-6.5045-2.3743z" fill="#8b724c" stroke-width=".132"/><path id="path2934" d="m-284.92 204.46c-2.3444.16862-1.6605 5.2848-.22063 1.5304.19179-.48143.3083-1.0112.22063-1.5304z" fill="#0a0e18" stroke-width=".26458px"/><path id="path2936" d="m-285.35 206.45c.20426-3.2805 6.0596 1.4781 1.7268.85243-.57134-.29195-1.0939-.69221-1.7268-.85243z" fill="#131b2e" stroke-width=".132"/></g><path id="path2938" d="m-281.65 206.17c3.4063-.16422.91432 3.9946-.72702 1.2545-.008-.50777.40008-.92186.72702-1.2545z" fill="#63666d" stroke-width=".132"/><path id="path2940" d="m-280.1 208.51c1.0332 1.9828-4.0617 4.913-1.2838 5.7294 1.0814-.75115 3.6942-4.1735 3.9112-3.1535-1.6663 2.4858 2.15 1.4335 2.6441-.0676 2.0212.84315 4.1523-1.8663 1.3304-2.2574-1.8672-.1847-6.2942-3.6132-6.6018-.25084z" fill="#131b2e" stroke-width=".132"/></g><path id="path2942" d="m-284.59 210.71c1.723-1.8626 7.1776-1.7028 6.64 1.2232-1.9395-.68013-1.4323-.81251-.91335 1.1251-1.5065.97558-2.1277-2.4081-1.1274.22645-.0508 1.7286-1.7419-1.0312-.80948 1.0654-1.8147-.88841-4.6928-.66682-3.7898-3.6401z" fill="#a3746c" stroke="#97685f" stroke-width=".14279px"/><g stroke="#000" stroke-width=".132"><path id="path2944" d="m-277.87 207.17c.45234-3.3891 5.1708 1.9013 1.3011.45936-.4266-.17346-.87356-.28844-1.3011-.45936z" fill="#173039"/><path id="path2946" d="m-267.44 211.01c.93206-2.583 4.1844.54872 1.3295.66602-.45518-.20124-.82349-.57694-1.3295-.66602z" fill="#454c5c"/><path id="path2948" d="m-266.8 211.25c1.1911-2.1497 1.6541 1.153 0 0z" fill="#808aa0"/></g><g><g stroke-width=".14279px"><path id="path2950" d="m-270.21 208.17c1.553 3.827 3.7822 7.3724 5.0663 11.304.59364 2.064-2.0679 4.9638-2.81 1.633-2.8203-3.6874-1.7984-8.6405-2.2563-12.937z" fill="#786342" stroke="#54452e"/><path id="path2952" d="m-271.28 218.05c3.8045-2.5509 7.1757 4.436 2.9267 5.8019-2.9451.43402-4.9134-3.677-2.9267-5.8019z" fill="#8d744d" stroke="#54452e"/><path id="path2954" d="m-283.37 199.3c-1.0305 3.252 1.4017 7.4231 5.1417 6.4842 2.8293-.77592 4.6347-6.3241 2.1126-7.7318-2.4298.38143-4.7893 1.0266-7.2543 1.2476z" fill="#a3746c" stroke="#97685f"/></g><path id="path2956" d="m-282.64 200.82c2.0193 1.3129 4.21-1.1241 6.0388.17858 2.6226-1.2766.78933-3.3522-1.4653-2.1718-1.626.0584-4.1955-.12514-4.5734 1.9932z" fill="#0a0805" stroke="#000" stroke-width=".26458px"/><path id="path2958" d="m-284.94 202.17c1.7225-3.1369 6.4116-3.9234 9.4671-3.3719.3391 2.6239 2.7989.8401 1.3141-.8719-.86715-3.145-4.0642-5.7885-7.387-4.5808-3.4606 1.3784-3.998 5.6165-3.3942 8.8246z" fill="#4c3f28" stroke="#403522" stroke-width=".14279px"/></g><g stroke="#54452e"><path id="path2960" d="m-286.95 206.15c-3.3932 2.0315-4.837 6.1751-5.7374 9.808-.63923 1.5716-.13038 4.3858 1.2526 1.5093 2.5994-2.5284 5.736-5.3218 4.7988-9.3719-.038-.65666-.13199-1.3123-.31398-1.9453z" fill="#806946" stroke-width=".14279px"/><path id="path2962" d="m-291.91 215.9c-3.1571 2.6162 1.5997 8.2502 4.2261 4.5697 2.9394-1.2466 4.0529-8.7005-.33823-7.2505-1.3614.79736-2.514 1.9028-3.8879 2.6808z" fill="#8a714b" stroke-width=".143"/><path id="path2964" d="m-286.81 212.44c1.1636-1.3859 2.4318-1.7157 2.6164.11141 1.956 1.3027-.77794 4.2232-1.3899 1.4202-.27674-.58971-.58891-1.2486-1.2265-1.5316z" fill="#8a714b" stroke-width=".143"/></g><g stroke="#000"><path id="path2966" d="m-274.48 207.28c-1.9026.41936 1.2796-2.3151 0 0z" fill="#0d1a1f" stroke-width=".10513"/><path id="path2968" d="m-267.98 210.87c3.4801-.29477 1.6593 4.5756-.57607 1.8963-.54581-.64143-.26245-1.6783.57607-1.8963z" fill="#454c5c" stroke-width=".132"/><path id="path2970" d="m-271.7 209.35c1.8875-.0587 5.4048 2.971 1.7946 3.0061-1.3298-.31728-4.4795-1.8154-1.7946-3.0061z" fill="#3c4250" stroke-width=".132"/></g><path id="path2972" d="m-271.28 218.05c.0104-1.1058-2.9026-4.8904-.22409-3.0922 2.3579 3.0745-2.6403-2.9793.41405-1.2916.89157 1.2615 1.6885 2.0841.2873.35526-1.386-1.3449-.33967-2.599.85629-.89057 1.9289 2.8378-1.0385-1.9861 1.0719-.42741 2.7453 2.5859 1.493 5.8498-2.4055 5.3465z" fill="#a3746c" stroke="#97685f" stroke-width=".14279px"/><g stroke="#000"><path id="path2974" d="m-266.02 212.81c1.0831 1.1409 5.1088.94491 4.3385 2.9492-.90807-1.0086-5.5025-1.1738-4.3385-2.9492z" fill="#596277" stroke-width=".132"/><path id="path2976" d="m-261.03 215.77c-1.3681.2774.80072-1.4556 0 0z" fill="#363b48" stroke-width=".11758"/><path id="path2978" d="m-286.87 221.53c2.3939.24662 7.1261-1.6685 6.4378 2.5742.97898 2.3651.66224 5.5596-2.6566 4.3696-3.5034.5916-4.9968-2.9105-3.8756-5.7634.0471-.39196.0851-.78554.0944-1.1805z" fill="#8b724c" stroke-width=".132"/></g></g></g><g id="g3072" transform="matrix(.30445 0 0 .30445 164.01 22.687)"><g><path id="path2982" d="m-288.58 236.34c.53754 2.2678-.4407 6.2963 3.079 6.0907 2.1574.37958 5.3446 1.8784 4.6589-1.7788-.62208-1.7024-1.9348-5.0441-4.1657-4.7322-1.1908.14009-2.3815.28018-3.5723.42027z" fill="#6a5432" stroke="#000" stroke-width=".132"/><g><path id="path2984" d="m-287.95 229.65c5.673.18082 11.346.36165 17.019.54247.50276 3.6818 2.9453 7.3586 1.4552 11.112-1.8298-4.0568-7.8204 2.2174-8.5904-2.2874-.47032-1.14-.8814-3.8336-.71119-1.185-.26109 2.6965-3.5726 2.5273-3.6884-.17092-1.7051-1.8169-7.3381-.11248-5.4715-4.1053.1115-1.3002.0174-2.6049-.0125-3.9063z" fill="#5f4b2d" fill-opacity=".99251" stroke="#544328" stroke-opacity=".98431" stroke-width=".14279px"/><g><path id="path2986" d="m-270.93 230.19c.83365-3.509 1.9063-7.0682 1.3104-10.71-.19426-3.772-.38854-7.5441-.5828-11.316-2.7185-2.5333-6.2676-3.8098-9.9574-3.4327-3.3634-.94866-8.0057.75869-6.7013 4.9094-.0265 5.7874-.54204 11.561-1.0155 17.32-.73682 4.4146 4.9097 2.9229 7.6572 3.6839 3.0978.23168 6.2387.17686 9.2895-.45425z" fill="#6a573a" fill-opacity=".98571" stroke="#604f35" stroke-width=".14279px"/><path id="path2988" d="m-288.58 236.48c.20268 1.7773.40536 3.5547.60804 5.332 1.6911-3.2777 5.5794.0344 6.8174.49832.74036-3.3264-5.0511-3.0896-5.7655-4.4918 2.2514-1.7349 4.7295 3.4651 5.8858 2.0475-1.2029-2.9235-4.7282-3.5982-7.5457-3.386z" fill="#4c3c23" stroke="#000" stroke-width=".132"/><path id="path2990" d="m-291.44 235.31c.95187 2.1816.23445 7.0672 2.5861 7.4569 1.823-2.0969.56723-7.1427-1.3282-8.066-.41665.19985-.7766.57106-1.2579.6091z" fill="#6b6464" stroke="#000" stroke-width=".132"/></g></g></g><g fill-opacity=".99251" stroke="#544328" stroke-opacity=".98431" stroke-width=".14279px"><path id="path2992" d="m-288.02 241.86c-.92111 2.0174.55769 3.178 2.2705 2.7114 2.5513 2.3867 6.5886-.61284 2.6445-2.3778-1.5659-.5827-3.2819-.5423-4.915-.33365z" fill="#6a787f"/><path id="path2994" d="m-288.21 244.71c-2.5226 2.7714-1.6753 8.6587 2.9174 8.0061 3.878-.0591 5.3268-6.5175 1.4916-7.8409-1.405-.52969-2.9587-.42215-4.409-.16522z" fill="#7a8990"/><path id="path2996" d="m-289.15 251.68c-1.535 3.8356 5.6847 4.382 6.3291 1.4696-.99352-2.0488-4.4896-.84685-6.3291-1.4696z" fill="#657279"/><path id="path2998" d="m-288.82 254.76c.62434 3.0696-.97825 8.0656 3.0752 9.191 4.1572.17287 4.4073-4.9814 4.1417-7.9999-.25987-2.9748-3.0812-1.8322-4.982-1.5104-.74497.10642-1.4899.21285-2.2349.31927z" fill="#796039"/><path id="path3000" d="m-277.28 241.57c.56703 3.6281 4.5312-1.7154 6.6586.37581 2.3895-1.3738-3.622-3.3789-4.9594-1.4281-.60225.2882-1.1693.64697-1.6992 1.0523z" fill="#6a787f"/><path id="path3002" d="m-276.47 251.75c.48094 3.1359-3.1292 8.5559 1.4305 9.803 3.3536 1.4474 5.2199-1.8544 4.4666-4.7463.97587-2.21.91699-5.6588-2.4657-4.832-1.1438-.0749-2.2876-.14975-3.4314-.22462z" fill="#796039"/><path id="path3004" d="m-276.1 249.2c-2.3913 4.1009 5.8418 5.3644 6.3163 1.5132-.63453-2.6026-4.2951-1.0572-6.2874-1.5126z" fill="#657279"/><path id="path3006" d="m-277.08 243.49c-1.5571 3.6049 2.1128 8.0594 5.9282 6.3175 3.4649-1.1544 3.0853-7.6747-.66187-8.0732-1.9069-.1811-3.7112.75992-5.2664 1.7558z" fill="#7a8990"/></g><g><g stroke="#000" stroke-width=".132"><path id="path3008" d="m-290.78 269.78c.98917 3.0605 7.4026 1.3956 7.3148-.0967-2.3513-.75961-4.8795.42812-7.3148.0967z" fill="#92735c"/><path id="path3010" d="m-287.14 263.73c2.3151 2.7412-6.8948 5.9696-.99576 6.7827 2.8959.63543 6.5346-1.0771 5.1679-4.5043.0584-3.4249-1.9168-2.087-4.1721-2.2785z" fill="#a3846d"/><path id="path3012" d="m-277.13 268.45c.19237 3.0336 4.3713 3.4754 6.5624 4.4783 3.2117-1.7992-1.3871-2.5313-2.9053-3.1121-1.219-.45539-2.4381-.91078-3.6571-1.3662z" fill="#92735c"/><path id="path3014" d="m-276.31 261.13c.56548 3.0907-2.6424 7.4145 1.6223 9.0332 1.414 1.2255 6.7854 2.6414 5.365-.80158-3.5894-1.0672-2.3267-6.2737-4.4189-7.6665-.8596-.17205-1.7156-.36207-2.5683-.5652z" fill="#a3846d"/><path id="path3016" d="m-289.59 221.66c-3.9726 1.3739-1.0552 7.1478 2.3397 4.275 1.5394-1.7094.49112-5.8389-2.3397-4.275z" fill="#a18458"/><path id="path3018" d="m-290.79 226.19c-2.1746 3.4087 5.4248 5.9014 4.9378 1.8001-.5967-2.0091-3.2317-2.1643-4.9378-1.8001z" fill="#756040"/></g><path id="path3020" d="m-286.35 222.06c2.3939.24662 7.1261-1.6685 6.4378 2.5742.97898 2.3651.66224 5.5596-2.6566 4.3696-3.5034.5916-4.9968-2.9105-3.8756-5.7634.0472-.39196.0851-.78554.0944-1.1805z" fill="#3a301f"/><path id="path3022" d="m-278.51 222.13c.029 2.5503-2.5432 7.7577 2.26 6.9071 3.4188 1.1027 4.092-1.9247 4.2445-4.5328 1.4494-3.6865-4.8163-1.482-6.5045-2.3743z" fill="#3a301f"/><g stroke="#000"><g><path id="path3024" d="m-277.98 221.6c.029 2.5503-2.5432 7.7577 2.26 6.9071 3.4188 1.1027 4.092-1.9247 4.2445-4.5328 1.4494-3.6865-4.8163-1.482-6.5045-2.3743z" fill="#8b724c" stroke-width=".132"/><path id="path3026" d="m-284.92 204.46c-2.3444.16862-1.6605 5.2848-.22063 1.5304.19179-.48143.3083-1.0112.22063-1.5304z" fill="#0a0e18" stroke-width=".26458px"/><path id="path3028" d="m-285.35 206.45c.20426-3.2805 6.0596 1.4781 1.7268.85243-.57134-.29195-1.0939-.69221-1.7268-.85243z" fill="#131b2e" stroke-width=".132"/></g><path id="path3030" d="m-281.65 206.17c3.4063-.16422.91432 3.9946-.72702 1.2545-.008-.50777.40008-.92186.72702-1.2545z" fill="#63666d" stroke-width=".132"/><path id="path3032" d="m-280.1 208.51c1.0332 1.9828-4.0617 4.913-1.2838 5.7294 1.0814-.75115 3.6942-4.1735 3.9112-3.1535-1.6663 2.4858 2.15 1.4335 2.6441-.0676 2.0212.84315 4.1523-1.8663 1.3304-2.2574-1.8672-.1847-6.2942-3.6132-6.6018-.25084z" fill="#131b2e" stroke-width=".132"/></g><path id="path3034" d="m-284.59 210.71c1.723-1.8626 7.1776-1.7028 6.64 1.2232-1.9395-.68013-1.4323-.81251-.91335 1.1251-1.5065.97558-2.1277-2.4081-1.1274.22645-.0508 1.7286-1.7419-1.0312-.80948 1.0654-1.8147-.88841-4.6928-.66682-3.7898-3.6401z" fill="#a3746c" stroke="#97685f" stroke-width=".14279px"/><g stroke="#000" stroke-width=".132"><path id="path3036" d="m-277.87 207.17c.45234-3.3891 5.1708 1.9013 1.3011.45936-.4266-.17346-.87356-.28844-1.3011-.45936z" fill="#173039"/><path id="path3038" d="m-267.44 211.01c.93206-2.583 4.1844.54872 1.3295.66602-.45518-.20124-.82349-.57694-1.3295-.66602z" fill="#454c5c"/><path id="path3040" d="m-266.8 211.25c1.1911-2.1497 1.6541 1.153 0 0z" fill="#808aa0"/></g><g><g stroke-width=".14279px"><path id="path3042" d="m-270.21 208.17c1.553 3.827 3.7822 7.3724 5.0663 11.304.59364 2.064-2.0679 4.9638-2.81 1.633-2.8203-3.6874-1.7984-8.6405-2.2563-12.937z" fill="#786342" stroke="#54452e"/><path id="path3044" d="m-271.28 218.05c3.8045-2.5509 7.1757 4.436 2.9267 5.8019-2.9451.43402-4.9134-3.677-2.9267-5.8019z" fill="#8d744d" stroke="#54452e"/><path id="path3046" d="m-283.37 199.3c-1.0305 3.252 1.4017 7.4231 5.1417 6.4842 2.8293-.77592 4.6347-6.3241 2.1126-7.7318-2.4298.38143-4.7893 1.0266-7.2543 1.2476z" fill="#a3746c" stroke="#97685f"/></g><path id="path3048" d="m-282.64 200.82c2.0193 1.3129 4.21-1.1241 6.0388.17858 2.6226-1.2766.78933-3.3522-1.4653-2.1718-1.626.0584-4.1955-.12514-4.5734 1.9932z" fill="#0a0805" stroke="#000" stroke-width=".26458px"/><path id="path3050" d="m-284.94 202.17c1.7225-3.1369 6.4116-3.9234 9.4671-3.3719.3391 2.6239 2.7989.8401 1.3141-.8719-.86715-3.145-4.0642-5.7885-7.387-4.5808-3.4606 1.3784-3.998 5.6165-3.3942 8.8246z" fill="#4c3f28" stroke="#403522" stroke-width=".14279px"/></g><g stroke="#54452e"><path id="path3052" d="m-286.95 206.15c-3.3932 2.0315-4.837 6.1751-5.7374 9.808-.63923 1.5716-.13038 4.3858 1.2526 1.5093 2.5994-2.5284 5.736-5.3218 4.7988-9.3719-.038-.65666-.13199-1.3123-.31398-1.9453z" fill="#806946" stroke-width=".14279px"/><path id="path3054" d="m-291.91 215.9c-3.1571 2.6162 1.5997 8.2502 4.2261 4.5697 2.9394-1.2466 4.0529-8.7005-.33823-7.2505-1.3614.79736-2.514 1.9028-3.8879 2.6808z" fill="#8a714b" stroke-width=".143"/><path id="path3056" d="m-286.81 212.44c1.1636-1.3859 2.4318-1.7157 2.6164.11141 1.956 1.3027-.77794 4.2232-1.3899 1.4202-.27674-.58971-.58891-1.2486-1.2265-1.5316z" fill="#8a714b" stroke-width=".143"/></g><g stroke="#000"><path id="path3058" d="m-274.48 207.28c-1.9026.41936 1.2796-2.3151 0 0z" fill="#0d1a1f" stroke-width=".10513"/><path id="path3060" d="m-267.98 210.87c3.4801-.29477 1.6593 4.5756-.57607 1.8963-.54581-.64143-.26245-1.6783.57607-1.8963z" fill="#454c5c" stroke-width=".132"/><path id="path3062" d="m-271.7 209.35c1.8875-.0587 5.4048 2.971 1.7946 3.0061-1.3298-.31728-4.4795-1.8154-1.7946-3.0061z" fill="#3c4250" stroke-width=".132"/></g><path id="path3064" d="m-271.28 218.05c.0104-1.1058-2.9026-4.8904-.22409-3.0922 2.3579 3.0745-2.6403-2.9793.41405-1.2916.89157 1.2615 1.6885 2.0841.2873.35526-1.386-1.3449-.33967-2.599.85629-.89057 1.9289 2.8378-1.0385-1.9861 1.0719-.42741 2.7453 2.5859 1.493 5.8498-2.4055 5.3465z" fill="#a3746c" stroke="#97685f" stroke-width=".14279px"/><g stroke="#000"><path id="path3066" d="m-266.02 212.81c1.0831 1.1409 5.1088.94491 4.3385 2.9492-.90807-1.0086-5.5025-1.1738-4.3385-2.9492z" fill="#596277" stroke-width=".132"/><path id="path3068" d="m-261.03 215.77c-1.3681.2774.80072-1.4556 0 0z" fill="#363b48" stroke-width=".11758"/><path id="path3070" d="m-286.87 221.53c2.3939.24662 7.1261-1.6685 6.4378 2.5742.97898 2.3651.66224 5.5596-2.6566 4.3696-3.5034.5916-4.9968-2.9105-3.8756-5.7634.0471-.39196.0851-.78554.0944-1.1805z" fill="#8b724c" stroke-width=".132"/></g></g></g><g id="g3164" transform="matrix(.30445 0 0 .30445 195.76 22.687)"><g><path id="path3074" d="m-288.58 236.34c.53754 2.2678-.4407 6.2963 3.079 6.0907 2.1574.37958 5.3446 1.8784 4.6589-1.7788-.62208-1.7024-1.9348-5.0441-4.1657-4.7322-1.1908.14009-2.3815.28018-3.5723.42027z" fill="#6a5432" stroke="#000" stroke-width=".132"/><g><path id="path3076" d="m-287.95 229.65c5.673.18082 11.346.36165 17.019.54247.50276 3.6818 2.9453 7.3586 1.4552 11.112-1.8298-4.0568-7.8204 2.2174-8.5904-2.2874-.47032-1.14-.8814-3.8336-.71119-1.185-.26109 2.6965-3.5726 2.5273-3.6884-.17092-1.7051-1.8169-7.3381-.11248-5.4715-4.1053.1115-1.3002.0174-2.6049-.0125-3.9063z" fill="#5f4b2d" fill-opacity=".99251" stroke="#544328" stroke-opacity=".98431" stroke-width=".14279px"/><g><path id="path3078" d="m-270.93 230.19c.83365-3.509 1.9063-7.0682 1.3104-10.71-.19426-3.772-.38854-7.5441-.5828-11.316-2.7185-2.5333-6.2676-3.8098-9.9574-3.4327-3.3634-.94866-8.0057.75869-6.7013 4.9094-.0265 5.7874-.54204 11.561-1.0155 17.32-.73682 4.4146 4.9097 2.9229 7.6572 3.6839 3.0978.23168 6.2387.17686 9.2895-.45425z" fill="#6a573a" fill-opacity=".98571" stroke="#604f35" stroke-width=".14279px"/><path id="path3080" d="m-288.58 236.48c.20268 1.7773.40536 3.5547.60804 5.332 1.6911-3.2777 5.5794.0344 6.8174.49832.74036-3.3264-5.0511-3.0896-5.7655-4.4918 2.2514-1.7349 4.7295 3.4651 5.8858 2.0475-1.2029-2.9235-4.7282-3.5982-7.5457-3.386z" fill="#4c3c23" stroke="#000" stroke-width=".132"/><path id="path3082" d="m-291.44 235.31c.95187 2.1816.23445 7.0672 2.5861 7.4569 1.823-2.0969.56723-7.1427-1.3282-8.066-.41665.19985-.7766.57106-1.2579.6091z" fill="#6b6464" stroke="#000" stroke-width=".132"/></g></g></g><g fill-opacity=".99251" stroke="#544328" stroke-opacity=".98431" stroke-width=".14279px"><path id="path3084" d="m-288.02 241.86c-.92111 2.0174.55769 3.178 2.2705 2.7114 2.5513 2.3867 6.5886-.61284 2.6445-2.3778-1.5659-.5827-3.2819-.5423-4.915-.33365z" fill="#6a787f"/><path id="path3086" d="m-288.21 244.71c-2.5226 2.7714-1.6753 8.6587 2.9174 8.0061 3.878-.0591 5.3268-6.5175 1.4916-7.8409-1.405-.52969-2.9587-.42215-4.409-.16522z" fill="#7a8990"/><path id="path3088" d="m-289.15 251.68c-1.535 3.8356 5.6847 4.382 6.3291 1.4696-.99352-2.0488-4.4896-.84685-6.3291-1.4696z" fill="#657279"/><path id="path3090" d="m-288.82 254.76c.62434 3.0696-.97825 8.0656 3.0752 9.191 4.1572.17287 4.4073-4.9814 4.1417-7.9999-.25987-2.9748-3.0812-1.8322-4.982-1.5104-.74497.10642-1.4899.21285-2.2349.31927z" fill="#796039"/><path id="path3092" d="m-277.28 241.57c.56703 3.6281 4.5312-1.7154 6.6586.37581 2.3895-1.3738-3.622-3.3789-4.9594-1.4281-.60225.2882-1.1693.64697-1.6992 1.0523z" fill="#6a787f"/><path id="path3094" d="m-276.47 251.75c.48094 3.1359-3.1292 8.5559 1.4305 9.803 3.3536 1.4474 5.2199-1.8544 4.4666-4.7463.97587-2.21.91699-5.6588-2.4657-4.832-1.1438-.0749-2.2876-.14975-3.4314-.22462z" fill="#796039"/><path id="path3096" d="m-276.1 249.2c-2.3913 4.1009 5.8418 5.3644 6.3163 1.5132-.63453-2.6026-4.2951-1.0572-6.2874-1.5126z" fill="#657279"/><path id="path3098" d="m-277.08 243.49c-1.5571 3.6049 2.1128 8.0594 5.9282 6.3175 3.4649-1.1544 3.0853-7.6747-.66187-8.0732-1.9069-.1811-3.7112.75992-5.2664 1.7558z" fill="#7a8990"/></g><g><g stroke="#000" stroke-width=".132"><path id="path3100" d="m-290.78 269.78c.98917 3.0605 7.4026 1.3956 7.3148-.0967-2.3513-.75961-4.8795.42812-7.3148.0967z" fill="#92735c"/><path id="path3102" d="m-287.14 263.73c2.3151 2.7412-6.8948 5.9696-.99576 6.7827 2.8959.63543 6.5346-1.0771 5.1679-4.5043.0584-3.4249-1.9168-2.087-4.1721-2.2785z" fill="#a3846d"/><path id="path3104" d="m-277.13 268.45c.19237 3.0336 4.3713 3.4754 6.5624 4.4783 3.2117-1.7992-1.3871-2.5313-2.9053-3.1121-1.219-.45539-2.4381-.91078-3.6571-1.3662z" fill="#92735c"/><path id="path3106" d="m-276.31 261.13c.56548 3.0907-2.6424 7.4145 1.6223 9.0332 1.414 1.2255 6.7854 2.6414 5.365-.80158-3.5894-1.0672-2.3267-6.2737-4.4189-7.6665-.8596-.17205-1.7156-.36207-2.5683-.5652z" fill="#a3846d"/><path id="path3108" d="m-289.59 221.66c-3.9726 1.3739-1.0552 7.1478 2.3397 4.275 1.5394-1.7094.49112-5.8389-2.3397-4.275z" fill="#a18458"/><path id="path3110" d="m-290.79 226.19c-2.1746 3.4087 5.4248 5.9014 4.9378 1.8001-.5967-2.0091-3.2317-2.1643-4.9378-1.8001z" fill="#756040"/></g><path id="path3112" d="m-286.35 222.06c2.3939.24662 7.1261-1.6685 6.4378 2.5742.97898 2.3651.66224 5.5596-2.6566 4.3696-3.5034.5916-4.9968-2.9105-3.8756-5.7634.0472-.39196.0851-.78554.0944-1.1805z" fill="#3a301f"/><path id="path3114" d="m-278.51 222.13c.029 2.5503-2.5432 7.7577 2.26 6.9071 3.4188 1.1027 4.092-1.9247 4.2445-4.5328 1.4494-3.6865-4.8163-1.482-6.5045-2.3743z" fill="#3a301f"/><g stroke="#000"><g><path id="path3116" d="m-277.98 221.6c.029 2.5503-2.5432 7.7577 2.26 6.9071 3.4188 1.1027 4.092-1.9247 4.2445-4.5328 1.4494-3.6865-4.8163-1.482-6.5045-2.3743z" fill="#8b724c" stroke-width=".132"/><path id="path3118" d="m-284.92 204.46c-2.3444.16862-1.6605 5.2848-.22063 1.5304.19179-.48143.3083-1.0112.22063-1.5304z" fill="#0a0e18" stroke-width=".26458px"/><path id="path3120" d="m-285.35 206.45c.20426-3.2805 6.0596 1.4781 1.7268.85243-.57134-.29195-1.0939-.69221-1.7268-.85243z" fill="#131b2e" stroke-width=".132"/></g><path id="path3122" d="m-281.65 206.17c3.4063-.16422.91432 3.9946-.72702 1.2545-.008-.50777.40008-.92186.72702-1.2545z" fill="#63666d" stroke-width=".132"/><path id="path3124" d="m-280.1 208.51c1.0332 1.9828-4.0617 4.913-1.2838 5.7294 1.0814-.75115 3.6942-4.1735 3.9112-3.1535-1.6663 2.4858 2.15 1.4335 2.6441-.0676 2.0212.84315 4.1523-1.8663 1.3304-2.2574-1.8672-.1847-6.2942-3.6132-6.6018-.25084z" fill="#131b2e" stroke-width=".132"/></g><path id="path3126" d="m-284.59 210.71c1.723-1.8626 7.1776-1.7028 6.64 1.2232-1.9395-.68013-1.4323-.81251-.91335 1.1251-1.5065.97558-2.1277-2.4081-1.1274.22645-.0508 1.7286-1.7419-1.0312-.80948 1.0654-1.8147-.88841-4.6928-.66682-3.7898-3.6401z" fill="#a3746c" stroke="#97685f" stroke-width=".14279px"/><g stroke="#000" stroke-width=".132"><path id="path3128" d="m-277.87 207.17c.45234-3.3891 5.1708 1.9013 1.3011.45936-.4266-.17346-.87356-.28844-1.3011-.45936z" fill="#173039"/><path id="path3130" d="m-267.44 211.01c.93206-2.583 4.1844.54872 1.3295.66602-.45518-.20124-.82349-.57694-1.3295-.66602z" fill="#454c5c"/><path id="path3132" d="m-266.8 211.25c1.1911-2.1497 1.6541 1.153 0 0z" fill="#808aa0"/></g><g><g stroke-width=".14279px"><path id="path3134" d="m-270.21 208.17c1.553 3.827 3.7822 7.3724 5.0663 11.304.59364 2.064-2.0679 4.9638-2.81 1.633-2.8203-3.6874-1.7984-8.6405-2.2563-12.937z" fill="#786342" stroke="#54452e"/><path id="path3136" d="m-271.28 218.05c3.8045-2.5509 7.1757 4.436 2.9267 5.8019-2.9451.43402-4.9134-3.677-2.9267-5.8019z" fill="#8d744d" stroke="#54452e"/><path id="path3138" d="m-283.37 199.3c-1.0305 3.252 1.4017 7.4231 5.1417 6.4842 2.8293-.77592 4.6347-6.3241 2.1126-7.7318-2.4298.38143-4.7893 1.0266-7.2543 1.2476z" fill="#a3746c" stroke="#97685f"/></g><path id="path3140" d="m-282.64 200.82c2.0193 1.3129 4.21-1.1241 6.0388.17858 2.6226-1.2766.78933-3.3522-1.4653-2.1718-1.626.0584-4.1955-.12514-4.5734 1.9932z" fill="#0a0805" stroke="#000" stroke-width=".26458px"/><path id="path3142" d="m-284.94 202.17c1.7225-3.1369 6.4116-3.9234 9.4671-3.3719.3391 2.6239 2.7989.8401 1.3141-.8719-.86715-3.145-4.0642-5.7885-7.387-4.5808-3.4606 1.3784-3.998 5.6165-3.3942 8.8246z" fill="#4c3f28" stroke="#403522" stroke-width=".14279px"/></g><g stroke="#54452e"><path id="path3144" d="m-286.95 206.15c-3.3932 2.0315-4.837 6.1751-5.7374 9.808-.63923 1.5716-.13038 4.3858 1.2526 1.5093 2.5994-2.5284 5.736-5.3218 4.7988-9.3719-.038-.65666-.13199-1.3123-.31398-1.9453z" fill="#806946" stroke-width=".14279px"/><path id="path3146" d="m-291.91 215.9c-3.1571 2.6162 1.5997 8.2502 4.2261 4.5697 2.9394-1.2466 4.0529-8.7005-.33823-7.2505-1.3614.79736-2.514 1.9028-3.8879 2.6808z" fill="#8a714b" stroke-width=".143"/><path id="path3148" d="m-286.81 212.44c1.1636-1.3859 2.4318-1.7157 2.6164.11141 1.956 1.3027-.77794 4.2232-1.3899 1.4202-.27674-.58971-.58891-1.2486-1.2265-1.5316z" fill="#8a714b" stroke-width=".143"/></g><g stroke="#000"><path id="path3150" d="m-274.48 207.28c-1.9026.41936 1.2796-2.3151 0 0z" fill="#0d1a1f" stroke-width=".10513"/><path id="path3152" d="m-267.98 210.87c3.4801-.29477 1.6593 4.5756-.57607 1.8963-.54581-.64143-.26245-1.6783.57607-1.8963z" fill="#454c5c" stroke-width=".132"/><path id="path3154" d="m-271.7 209.35c1.8875-.0587 5.4048 2.971 1.7946 3.0061-1.3298-.31728-4.4795-1.8154-1.7946-3.0061z" fill="#3c4250" stroke-width=".132"/></g><path id="path3156" d="m-271.28 218.05c.0104-1.1058-2.9026-4.8904-.22409-3.0922 2.3579 3.0745-2.6403-2.9793.41405-1.2916.89157 1.2615 1.6885 2.0841.2873.35526-1.386-1.3449-.33967-2.599.85629-.89057 1.9289 2.8378-1.0385-1.9861 1.0719-.42741 2.7453 2.5859 1.493 5.8498-2.4055 5.3465z" fill="#a3746c" stroke="#97685f" stroke-width=".14279px"/><g stroke="#000"><path id="path3158" d="m-266.02 212.81c1.0831 1.1409 5.1088.94491 4.3385 2.9492-.90807-1.0086-5.5025-1.1738-4.3385-2.9492z" fill="#596277" stroke-width=".132"/><path id="path3160" d="m-261.03 215.77c-1.3681.2774.80072-1.4556 0 0z" fill="#363b48" stroke-width=".11758"/><path id="path3162" d="m-286.87 221.53c2.3939.24662 7.1261-1.6685 6.4378 2.5742.97898 2.3651.66224 5.5596-2.6566 4.3696-3.5034.5916-4.9968-2.9105-3.8756-5.7634.0471-.39196.0851-.78554.0944-1.1805z" fill="#8b724c" stroke-width=".132"/></g></g></g></g></svg>
