<?xml version="1.0" encoding="UTF-8" standalone="no"?>
<svg
   xmlns:dc="http://purl.org/dc/elements/1.1/"
   xmlns:cc="http://creativecommons.org/ns#"
   xmlns:rdf="http://www.w3.org/1999/02/22-rdf-syntax-ns#"
   xmlns:svg="http://www.w3.org/2000/svg"
   xmlns="http://www.w3.org/2000/svg"
   xmlns:xlink="http://www.w3.org/1999/xlink"
   xmlns:sodipodi="http://sodipodi.sourceforge.net/DTD/sodipodi-0.dtd"
   xmlns:inkscape="http://www.inkscape.org/namespaces/inkscape"
   id="svg13753"
   version="1.1"
   viewBox="0 0 210 297"
   height="297mm"
   width="210mm"
   sodipodi:docname="city_tilessvg.svg"
   inkscape:version="0.92.2 5c3e80d, 2017-08-06">
  <sodipodi:namedview
     pagecolor="#ffffff"
     bordercolor="#666666"
     borderopacity="1"
     objecttolerance="10"
     gridtolerance="10"
     guidetolerance="10"
     inkscape:pageopacity="0"
     inkscape:pageshadow="2"
     inkscape:window-width="1251"
     inkscape:window-height="867"
     id="namedview14553"
     showgrid="false"
     inkscape:zoom="0.73"
     inkscape:cx="310.00383"
     inkscape:cy="944.82149"
     inkscape:window-x="0"
     inkscape:window-y="0"
     inkscape:window-maximized="0"
     inkscape:current-layer="svg13753" />
  <defs
     id="defs13747" />
  <metadata
     id="metadata13750">
    <rdf:RDF>
      <cc:Work
         rdf:about="">
        <dc:format>image/svg+xml</dc:format>
        <dc:type
           rdf:resource="http://purl.org/dc/dcmitype/StillImage" />
        <dc:title />
      </cc:Work>
    </rdf:RDF>
  </metadata>
  <symbol
     id="base_blue"
     viewBox="200 200 200 200">
    <path
       id="path13755"
       d="m 1462.05,1014.15 -2.2,-4.9 -4.75,2.2 2.15,4.85 4.8,-2.15 m 61.15,-63.85 -4.8,2.2 2.15,4.85 4.85,-2.15 -2.2,-4.9 m -0.45,-26.2 -5.25,-0.55 -0.55,5.3 5.25,0.5 0.55,-5.25 m -7,28.05 -9.5,-2.15 -2.1,9.55 9.45,2.1 2.15,-9.5 m 5.75,-11.6 -2.3,-7.25 -7.25,2.3 2.3,7.25 7.25,-2.3 m 15.55,-0.75 5,1.95 1.85,-5.05 -4.95,-1.9 -1.9,5 m -24.45,36.95 -6.7,-6.15 -6.2,6.7 6.75,6.2 6.15,-6.75 m 28.3,-23.1 -0.5,5.3 5.25,0.5 0.6,-5.3 -5.35,-0.5 m -15.55,9.35 -1.1,9.3 9.3,1.05 0.65,-5.6 h 0.05 l 0.4,-3.7 -9.3,-1.05 m -6.15,32.65 -7.25,2.3 2.3,7.25 7.25,-2.25 -2.3,-7.3 m 3.55,-9.2 -5.25,-0.5 -0.55,5.25 5.25,0.5 0.55,-5.25 m -18,12.2 2.5,-9.65 -9.6,-2.5 -2.45,9.6 9.55,2.55 m 24.5,-15.25 3.05,-4.3 -4.3,-3.1 -3.1,4.3 4.35,3.1 m 1.35,13.25 -4.1,3.35 3.35,4.1 4.15,-3.35 -3.4,-4.1 m 8.35,0.55 -1.9,4.95 5,1.95 1.85,-5 -4.95,-1.9 m -39,-47.6 -4.5,1.55 1.55,4.45 4.45,-1.5 -1.5,-4.5 m -15.5,-5.05 5.25,-0.6 -0.6,-5.3 -5.25,0.65 0.6,5.25 m -8.55,8.9 -2.3,-7.25 -7.2,2.3 2.25,7.2 7.25,-2.25 m -4.25,-15.05 -3.4,-4.1 -4.1,3.35 3.35,4.1 4.15,-3.35 m 4.9,-3.6 -1.9,5 5.05,1.95 1.85,-5.05 -5,-1.9 m 0.95,-6.2 -3.85,-3.65 -3.65,3.85 3.85,3.65 3.65,-3.85 m 14.7,-14.6 4.85,-2.15 -2.15,-4.8 -4.9,2.15 2.2,4.8 m -31.8,10.1 -5.25,-0.55 -0.55,5.3 5.25,0.5 0.55,-5.25 m -25,15.6 -3.1,4.25 4.25,3.1 3.1,-4.3 -4.25,-3.05 m 25.45,10.6 -4.8,2.2 2.15,4.85 4.8,-2.15 -2.15,-4.9 m -7.45,1.85 -9.5,-2.15 -2.1,9.55 9.45,2.1 2.15,-9.5 m -18.1,34.35 -2.5,9.6 9.6,2.55 2.5,-9.65 -9.6,-2.5 m 14.95,-9.75 -6.7,-6.15 -6.2,6.7 6.7,6.2 6.2,-6.75 m 46.8,-2.55 -2.15,-4.8 -4.9,2.15 2.2,4.85 4.85,-2.2 m -37.2,17.5 0.55,-5.25 -5.25,-0.5 -0.55,5.25 5.25,0.5 m 8.4,4.95 -4.1,3.35 3.35,4.1 4.15,-3.35 -3.4,-4.1 m 3.6,-28.9 h 0.05 l 0.4,-3.7 -9.35,-1.05 -1.05,9.3 9.3,1.05 0.65,-5.6 m 15.3,9 h -0.05 l -7.3,1.75 1.7,7.4 7.4,-1.75 -1.75,-7.4 m -5.6,22.35 -5,-1.9 -1.9,4.95 5.05,1.95 1.85,-5 m 18.4,12.85 -4.5,1.55 1.55,4.5 4.45,-1.55 -1.5,-4.5 m -5.9,10.45 -5.2,0.85 0.8,5.2 5.25,-0.8 -0.85,-5.25 m -18.15,-6.6 -2.3,-7.2 -7.2,2.25 2.25,7.25 7.25,-2.3 M 1430,1005 v -70 l 60,-35 60,35 v 70 l -60,35 -60,-35 m 84.55,16.6 2.15,-9.5 -9.5,-2.15 -2.1,9.55 9.45,2.1"
       style="fill:#bb6444;stroke:none"
       inkscape:connector-curvature="0" />
    <path
       id="path13757"
       d="m 1514.55,1021.6 -9.45,-2.1 2.1,-9.55 9.5,2.15 -2.15,9.5 m 8.2,-97.5 -0.55,5.25 -5.25,-0.5 0.55,-5.3 5.25,0.55 m 0.45,26.2 2.2,4.9 -4.85,2.15 -2.15,-4.85 4.8,-2.2 m 13.85,-10.5 1.9,-5 4.95,1.9 -1.85,5.05 -5,-1.95 m -17.85,55.85 2.3,7.3 -7.25,2.25 -2.3,-7.25 7.25,-2.3 m 10.05,-12.25 -4.35,-3.1 3.1,-4.3 4.3,3.1 -3.05,4.3 m 9.7,13.8 4.95,1.9 -1.85,5 -5,-1.95 1.9,-4.95 m -78.55,-73.1 -0.55,5.25 -5.25,-0.5 0.55,-5.3 5.25,0.55 m -7,28.05 -2.15,9.5 -9.45,-2.1 2.1,-9.55 9.5,2.15 m 7.45,-1.85 2.15,4.9 -4.8,2.15 -2.15,-4.85 4.8,-2.2 m -1,41.4 -5.25,-0.5 0.55,-5.25 5.25,0.5 -0.55,5.25 m 37.2,-17.5 -4.85,2.2 -2.2,-4.85 4.9,-2.15 2.15,4.8 m -15.5,24.9 -1.85,5 -5.05,-1.95 1.9,-4.95 5,1.9 m -5.65,16.7 -7.25,2.3 -2.25,-7.25 7.2,-2.25 2.3,7.2"
       style="fill:#c26948;stroke:none"
       inkscape:connector-curvature="0" />
    <path
       id="path13759"
       d="m 1521.5,940.55 -7.25,2.3 -2.3,-7.25 7.25,-2.3 2.3,7.25 m -5.75,11.6 -2.15,9.5 -9.45,-2.1 2.1,-9.55 9.5,2.15 m 9.6,10.85 9.3,1.05 -0.4,3.7 h -0.05 l -0.65,5.6 -9.3,-1.05 1.1,-9.3 m 15.55,-9.35 5.35,0.5 -0.6,5.3 -5.25,-0.5 0.5,-5.3 m -28.3,23.1 -6.15,6.75 -6.75,-6.2 6.2,-6.7 6.7,6.15 m -7.85,21.9 -9.55,-2.55 2.45,-9.6 9.6,2.5 -2.5,9.65 m 18,-12.2 -0.55,5.25 -5.25,-0.5 0.55,-5.25 5.25,0.5 m 7.85,10.2 3.4,4.1 -4.15,3.35 -3.35,-4.1 4.1,-3.35 m -38.4,-82.65 -2.2,-4.8 4.9,-2.15 2.15,4.8 -4.85,2.15 m -14.7,14.6 -3.65,3.85 -3.85,-3.65 3.65,-3.85 3.85,3.65 m -0.95,6.2 5,1.9 -1.85,5.05 -5.05,-1.95 1.9,-5 m -4.9,3.6 -4.15,3.35 -3.35,-4.1 4.1,-3.35 3.4,4.1 m 4.25,15.05 -7.25,2.25 -2.25,-7.2 7.2,-2.3 2.3,7.25 m 8.55,-8.9 -0.6,-5.25 5.25,-0.65 0.6,5.3 -5.25,0.6 m 15.5,5.05 1.5,4.5 -4.45,1.5 -1.55,-4.45 4.5,-1.55 m -64.55,-9.9 4.25,3.05 -3.1,4.3 -4.25,-3.1 3.1,-4.25 m 14.85,37.05 -6.2,6.75 -6.7,-6.2 6.2,-6.7 6.7,6.15 m -14.95,9.75 9.6,2.5 -2.5,9.65 -9.6,-2.55 2.5,-9.6 m 51.85,-9.75 1.75,7.4 -7.4,1.75 -1.7,-7.4 7.3,-1.75 h 0.05 m -15.3,-9 -0.65,5.6 -9.3,-1.05 1.05,-9.3 9.35,1.05 -0.4,3.7 h -0.05 m -3.6,28.9 3.4,4.1 -4.15,3.35 -3.35,-4.1 4.1,-3.35 m 25.8,25.75 0.85,5.25 -5.25,0.8 -0.8,-5.2 5.2,-0.85 m 5.9,-10.45 1.5,4.5 -4.45,1.55 -1.55,-4.5 4.5,-1.55 m -37.9,2.2 -4.8,2.15 -2.15,-4.85 4.75,-2.2 2.2,4.9"
       style="fill:#b55f40;stroke:none"
       inkscape:connector-curvature="0" />
    <path
       id="path13761"
       d="m 1441.95,933.25 q 0.45,-0.6 1.2,-0.7 l 13.3,-2.6 q 0.7,-0.15 1.35,0.25 0.65,0.35 0.9,1.1 l 3.6,10.95 0.1,0.6 v 21.75 q 0,0.75 -0.45,1.3 -0.5,0.55 -1.25,0.7 l -4.95,0.75 v 2.3 q 0,0.7 -0.4,1.25 -0.45,0.5 -1.1,0.7 l -2.7,0.7 -1.35,-0.15 q -0.65,-0.3 -0.95,-0.95 l -1.15,-2.5 -0.05,-0.15 -1.1,0.2 -1.35,-0.3 q -0.65,-0.4 -0.85,-1.1 l -3.15,-10.6 -0.1,-0.6 V 934.5 q 0,-0.7 0.45,-1.25 m 18.45,9.6 -3.6,-10.95 -13.3,2.6 v 21.65 l 3.15,10.6 3.25,-0.5 v 1.6 l 1.15,2.5 2.7,-0.7 v -4 l 6.65,-1.05 v -21.75"
       style="fill:#593269;stroke:none"
       inkscape:connector-curvature="0" />
    <path
       id="path13763"
       d="m 1460.4,942.85 -13.75,2.35 -3.15,-10.7 13.3,-2.6 3.6,10.95"
       style="fill:#c16ee2;stroke:none"
       inkscape:connector-curvature="0" />
    <path
       id="path13765"
       d="m 1460.4,942.85 v 21.75 l -6.65,1.05 -3.85,0.6 -3.25,0.5 V 945.2 l 13.75,-2.35"
       style="fill:#9b59b6;stroke:none"
       inkscape:connector-curvature="0" />
    <path
       id="path13767"
       d="m 1443.5,934.5 3.15,10.7 v 21.55 l -3.15,-10.6 V 934.5"
       style="fill:#79468e;stroke:none"
       inkscape:connector-curvature="0" />
    <path
       id="path13769"
       d="m 1453.75,965.65 v 4 l -2.7,0.7 -1.15,-2.5 v -1.6 l 3.85,-0.6"
       style="fill:#ecdcb8;stroke:none"
       inkscape:connector-curvature="0" />
    <path
       id="path13771"
       d="m 1519.35,946.95 6.25,-7.05 q 0.45,-0.5 1.1,-0.65 l 1.25,0.15 9.85,4.45 0.85,0.75 0.3,1.05 v 10.5 q 0,0.8 -0.55,1.4 l -5.2,5.5 v 0.6 l -0.15,0.8 -0.45,0.65 -1.95,1.85 q -0.45,0.4 -1,0.5 l -1.1,-0.05 -2.1,-0.8 -0.95,-0.75 q -0.35,-0.55 -0.35,-1.15 v -1.35 l -5.15,-2.5 -0.85,-0.75 q -0.3,-0.5 -0.3,-1.05 v -10.8 q 0,-0.75 0.5,-1.3 m 17.6,-1.3 -9.85,-4.45 -6.25,7.05 v 10.8 l 6.3,3.05 v 2.6 l 2.1,0.8 1.95,-1.85 v -1.4 l 5.75,-6.1 v -10.5"
       style="fill:#593269;stroke:none"
       inkscape:connector-curvature="0" />
    <path
       id="path13773"
       d="m 1536.95,945.65 -6.65,7.1 -9.45,-4.5 6.25,-7.05 9.85,4.45"
       style="fill:#c16ee2;stroke:none"
       inkscape:connector-curvature="0" />
    <path
       id="path13775"
       d="m 1530.3,952.75 6.65,-7.1 v 10.5 l -5.75,6.1 -1.15,1.2 0.25,-10.7"
       style="fill:#79468e;stroke:none"
       inkscape:connector-curvature="0" />
    <path
       id="path13777"
       d="m 1530.3,952.75 -0.25,10.7 -2.9,-1.35 -6.3,-3.05 v -10.8 l 9.45,4.5"
       style="fill:#9b59b6;stroke:none"
       inkscape:connector-curvature="0" />
    <path
       id="path13779"
       d="m 1530.05,963.45 1.15,-1.2 v 1.4 l -1.95,1.85 -2.1,-0.8 v -2.6 l 2.9,1.35"
       style="fill:#ecdcb8;stroke:none"
       inkscape:connector-curvature="0" />
    <path
       id="path13781"
       d="m 1482.65,945.45 -3.35,-4.85 v -9.1 l -3.6,-1.75 -16.75,19.85 v 9.15 l 3.9,5.75 -6.05,7.1 3.3,10.7 -6.6,8.15 32.85,15.35 6.7,-7.95 14.75,-2.45 20.7,-24.35 -2.5,-8 0.35,-0.4 v -9.2 l -3.65,-1.65 -3.75,4.45 -26.6,-12.4 -9.7,1.6 m 39.6,4.4 1.3,0.15 3.65,1.65 0.85,0.75 0.3,1.05 v 9.2 l -0.15,0.8 2.2,7 0.05,1 -0.4,0.9 -20.7,24.35 q -0.5,0.55 -1.2,0.7 l -14.05,2.3 -6.2,7.4 q -0.45,0.5 -1.1,0.65 l -1.3,-0.15 -32.85,-15.35 -0.85,-0.8 q -0.35,-0.55 -0.3,-1.15 0.05,-0.6 0.45,-1.1 l 5.95,-7.3 -3,-9.7 -0.05,-1 q 0.1,-0.5 0.45,-0.9 l 5.05,-5.95 -3.05,-4.45 q -0.35,-0.55 -0.35,-1.15 v -9.15 q 0,-0.75 0.5,-1.3 l 16.75,-19.85 q 0.4,-0.5 1.1,-0.65 l 1.3,0.15 3.6,1.75 0.8,0.75 0.3,1.05 v 8.5 l 2.3,3.3 8.45,-1.4 1.15,0.15 25.25,11.75 2.75,-3.3 q 0.4,-0.5 1.05,-0.65"
       style="fill:#727979;stroke:none"
       inkscape:connector-curvature="0" />
    <path
       id="path13783"
       d="m 1518.95,956.25 3.75,-4.45 3.65,1.65 -16.8,19.85 -3.55,-1.7 12.95,-15.35 m -11.15,39.15 -14.75,2.45 -0.1,-10.9 11.95,-2.05 2.9,10.5 m -21.45,10.4 -32.85,-15.35 6.6,-8.15 -3.3,-10.7 6.8,-6 2.75,8.85 26.6,12.5 -6.6,18.85 m -27.4,-56.2 16.75,-19.85 3.6,1.75 -16.75,19.85 q -1.8,-0.85 -3.6,-1.75 m 20.35,-9 3.35,4.85 1.35,2.05 -16.75,19.8 -4.7,-6.85 16.75,-19.85"
       style="fill:#d5e5e5;stroke:none"
       inkscape:connector-curvature="0" />
    <path
       id="path13785"
       d="m 1479.3,940.6 -16.75,19.85 v -9.1 l 16.75,-19.85 v 9.1 m 47.05,12.85 v 9.2 l -0.35,0.4 -2.8,3.35 5.3,4.65 -20.7,24.35 -2.9,-10.5 4.65,-2.45 v -9.15 l 16.8,-19.85 m -33.3,44.4 -6.7,7.95 6.6,-18.85 0.1,10.9 M 1506,977.7 v 3 l -4.7,2.6 4.7,-5.6"
       style="fill:#a6b1b1;stroke:none"
       inkscape:connector-curvature="0" />
    <path
       id="path13787"
       d="m 1526,963.05 2.5,8 -5.3,-4.65 2.8,-3.35 m -69.2,8.55 6.05,-7.1 0.75,1.1 -6.8,6"
       style="fill:#8c9595;stroke:none"
       inkscape:connector-curvature="0" />
    <path
       id="path13789"
       d="m 1462.85,964.5 -3.9,-5.75 v -9.15 q 1.8,0.9 3.6,1.75 v 9.1 l 4.7,6.85 -3.65,-1.7 -0.75,-1.1 m 43.15,7.1 3.55,1.7 v 9.15 l -4.65,2.45 -3.6,-1.6 4.7,-2.6 v -3 -6.1"
       style="fill:#b9c6c6;stroke:none"
       inkscape:connector-curvature="0" />
    <path
       id="path13791"
       d="m 1482.65,945.45 9.7,-1.6 26.6,12.4 -12.95,15.35 v 6.1 l -4.7,5.6 3.6,1.6 -11.95,2.05 -26.6,-12.5 -2.75,-8.85 3.65,1.7 16.75,-19.8 -1.35,-2.05"
       style="fill:#e9fafa;stroke:none"
       inkscape:connector-curvature="0" />
    <path
       id="path13793"
       d="m 1540.65,959.15 0.3,1.05 v 10.5 q 0,0.8 -0.55,1.4 l -5.2,5.5 v 0.6 l -0.15,0.8 -0.45,0.65 -1.95,1.85 q -0.45,0.4 -1,0.5 l -1.1,-0.05 -2.1,-0.8 -0.95,-0.75 q -0.35,-0.55 -0.35,-1.15 v -1.35 l -5.15,-2.5 -0.85,-0.75 q -0.3,-0.5 -0.3,-1.05 v -10.8 q 0,-0.75 0.5,-1.3 l 6.25,-7.05 q 0.45,-0.5 1.1,-0.65 l 1.25,0.15 9.85,4.45 q 0.5,0.2 0.85,0.75 m -11.5,17.5 v 2.6 l 2.1,0.8 1.95,-1.85 v -1.4 l 5.75,-6.1 v -10.5 l -9.85,-4.45 -6.25,7.05 v 10.8 l 6.3,3.05"
       style="fill:#593269;stroke:none"
       inkscape:connector-curvature="0" />
    <path
       id="path13795"
       d="m 1529.15,976.65 -6.3,-3.05 v -10.8 l 9.45,4.5 -0.25,10.7 -2.9,-1.35"
       style="fill:#9b59b6;stroke:none"
       inkscape:connector-curvature="0" />
    <path
       id="path13797"
       d="m 1533.2,976.8 -1.15,1.2 0.25,-10.7 6.65,-7.1 v 10.5 l -5.75,6.1"
       style="fill:#79468e;stroke:none"
       inkscape:connector-curvature="0" />
    <path
       id="path13799"
       d="m 1533.2,976.8 v 1.4 l -1.95,1.85 -2.1,-0.8 v -2.6 l 2.9,1.35 1.15,-1.2"
       style="fill:#ecdcb8;stroke:none"
       inkscape:connector-curvature="0" />
    <path
       id="path13801"
       d="m 1522.85,962.8 6.25,-7.05 9.85,4.45 -6.65,7.1 -9.45,-4.5"
       style="fill:#c16ee2;stroke:none"
       inkscape:connector-curvature="0" />
    <path
       id="path13803"
       d="m 1479.8,948.05 h 2.6 l -4.85,5.8 H 1475 l 4.8,-5.8 m 13.1,8.25 1,1.85 -4.95,5.8 -1,-1.85 v -0.05 l 4.95,-5.75"
       style="fill:#1f5e87;stroke:none"
       inkscape:connector-curvature="0" />
    <path
       id="path13805"
       d="m 1492.9,956.3 0.05,-0.05 3.05,-3.6 -3.05,-5.9 -6.15,-2.8 -3.35,2.8 -1.05,1.3 h -2.6 l 2.1,-2.55 0.3,-0.25 3.35,-2.8 q 0.4,-0.4 1,-0.45 l 1.1,0.15 6.15,2.8 0.95,0.9 3.05,5.9 0.2,1.15 -0.45,1.05 -3.65,4.2 -1,-1.85 m -17.9,-2.45 h 2.55 l -5.15,6.25 3.1,5.65 6.15,2.8 3.1,-2.8 3.2,-3.65 1,1.85 -2.65,3.1 -0.2,0.2 -3.1,2.8 q -0.45,0.4 -1.05,0.5 l -1.1,-0.15 -6.15,-2.8 q -0.65,-0.3 -0.95,-0.9 l -3.1,-5.65 q -0.3,-0.55 -0.25,-1.15 0.05,-0.6 0.45,-1.05 l 4.15,-5"
       style="fill:#727979;stroke:none"
       inkscape:connector-curvature="0" />
    <path
       id="path13807"
       d="m 1482.4,948.05 1.05,-1.3 3.35,-2.8 -3.45,4.1 h -0.95 m 10.55,-1.3 3.05,5.9 -3.05,3.6 -3.15,-5.65 -0.05,-0.05 3.2,-3.8 m -5,15.35 -3.2,3.65 -3.1,-5.65 3.15,-3.7 3.15,5.65 v 0.05 m -15.55,-2 5.15,-6.25 h 0.85 l -2.9,3.4 -3.1,2.85"
       style="fill:#d5e5e5;stroke:none"
       inkscape:connector-curvature="0" />
    <path
       id="path13809"
       d="m 1477.55,953.85 4.85,-5.8 h 0.95 l -4.95,5.8 h -0.85 m 15.4,2.4 -0.05,0.05 -4.95,5.75 -3.15,-5.65 4.95,-5.85 0.05,0.05 3.15,5.65"
       style="fill:#3090d0;stroke:none"
       inkscape:connector-curvature="0" />
    <path
       id="path13811"
       d="m 1486.8,943.95 6.15,2.8 -3.2,3.8 -6.35,-2.5 h -0.05 l 3.45,-4.1 m -8.4,9.9 6.4,2.55 -3.15,3.7 -6.15,-2.85 2.9,-3.4"
       style="fill:#e9fafa;stroke:none"
       inkscape:connector-curvature="0" />
    <path
       id="path13813"
       d="m 1478.4,953.85 4.95,-5.8 h 0.05 l 6.35,2.5 -4.95,5.85 -6.4,-2.55"
       style="fill:#3aacf7;stroke:none"
       inkscape:connector-curvature="0" />
    <path
       id="path13815"
       d="m 1481.65,960.1 3.1,5.65 -3.1,2.8 -6.15,-2.8 -3.1,-5.65 3.1,-2.85 6.15,2.85"
       style="fill:#b9c6c6;stroke:none"
       inkscape:connector-curvature="0" />
    <path
       id="path13817"
       d="m 1494.3,955.45 2.1,-2.55 0.3,-0.25 3.35,-2.8 q 0.4,-0.4 1,-0.45 l 1.1,0.15 6.15,2.8 q 0.6,0.25 0.95,0.9 l 3.05,5.9 0.2,1.15 -0.45,1.05 -3.65,4.2 -1,-1.85 0.05,-0.05 3.05,-3.6 -3.05,-5.9 -6.15,-2.8 -3.35,2.8 -1.05,1.3 h -2.6 m 9.15,15.9 -2.65,3.1 -0.2,0.2 -3.1,2.8 q -0.45,0.4 -1.05,0.5 l -1.1,-0.15 -6.15,-2.8 q -0.65,-0.3 -0.95,-0.9 l -3.1,-5.65 q -0.3,-0.55 -0.25,-1.15 0.05,-0.6 0.45,-1.05 l 4.15,-5 h 2.55 l -5.15,6.25 3.1,5.65 6.15,2.8 3.1,-2.8 3.2,-3.65 1,1.85"
       style="fill:#727979;stroke:none"
       inkscape:connector-curvature="0" />
    <path
       id="path13819"
       d="m 1501.3,951.35 6.15,2.8 -3.2,3.8 -6.35,-2.5 h -0.05 l 3.45,-4.1 m -8.4,9.9 6.4,2.55 -3.15,3.7 -6.15,-2.85 2.9,-3.4"
       style="fill:#e9fafa;stroke:none"
       inkscape:connector-curvature="0" />
    <path
       id="path13821"
       d="m 1492.9,961.25 -2.9,3.4 -3.1,2.85 5.15,-6.25 h 0.85 m 4,-5.8 1.05,-1.3 3.35,-2.8 -3.45,4.1 h -0.95 m 10.55,-1.3 3.05,5.9 -3.05,3.6 -3.15,-5.65 -0.05,-0.05 3.2,-3.8 m -8.15,9.65 3.15,5.65 v 0.05 l -3.2,3.65 -3.1,-5.65 3.15,-3.7"
       style="fill:#d5e5e5;stroke:none"
       inkscape:connector-curvature="0" />
    <path
       id="path13823"
       d="m 1507.45,963.65 -0.05,0.05 -4.95,5.75 -3.15,-5.65 4.95,-5.85 0.05,0.05 3.15,5.65 m -9.6,-8.2 -4.95,5.8 h -0.85 l 4.85,-5.8 h 0.95"
       style="fill:#3090d0;stroke:none"
       inkscape:connector-curvature="0" />
    <path
       id="path13825"
       d="m 1508.4,965.55 -4.95,5.8 -1,-1.85 v -0.05 l 4.95,-5.75 1,1.85 m -18.9,-4.3 4.8,-5.8 h 2.6 l -4.85,5.8 h -2.55"
       style="fill:#1f5e87;stroke:none"
       inkscape:connector-curvature="0" />
    <path
       id="path13827"
       d="m 1497.85,955.45 h 0.05 l 6.35,2.5 -4.95,5.85 -6.4,-2.55 4.95,-5.8"
       style="fill:#3aacf7;stroke:none"
       inkscape:connector-curvature="0" />
    <path
       id="path13829"
       d="m 1496.15,967.5 3.1,5.65 -3.1,2.8 -6.15,-2.8 -3.1,-5.65 3.1,-2.85 6.15,2.85"
       style="fill:#b9c6c6;stroke:none"
       inkscape:connector-curvature="0" />
    <path
       id="path13831"
       d="m 1487.65,941.7 2.1,-2.55 0.3,-0.25 3.35,-2.8 q 0.4,-0.4 1,-0.45 l 1.1,0.15 6.15,2.8 q 0.6,0.25 0.95,0.9 l 3.05,5.9 0.2,1.15 -0.45,1.05 -3.65,4.2 -1,-1.85 0.05,-0.05 3.05,-3.6 -3.05,-5.9 -6.15,-2.8 -3.35,2.8 -1.05,1.3 h -2.6 m 9.15,15.9 -2.65,3.1 -0.2,0.2 -3.1,2.8 -1.05,0.5 -1.1,-0.15 -6.15,-2.8 q -0.65,-0.3 -0.95,-0.9 l -3.1,-5.65 q -0.3,-0.55 -0.25,-1.15 0.05,-0.6 0.45,-1.05 l 4.15,-5 h 2.55 l -5.15,6.25 3.1,5.65 6.15,2.8 3.1,-2.8 3.2,-3.65 1,1.85"
       style="fill:#727979;stroke:none"
       inkscape:connector-curvature="0" />
    <path
       id="path13833"
       d="m 1494.65,937.6 6.15,2.8 -3.2,3.8 -6.35,-2.5 h -0.05 l 3.45,-4.1 m -8.4,9.9 6.4,2.55 -3.15,3.7 -6.15,-2.85 2.9,-3.4"
       style="fill:#e9fafa;stroke:none"
       inkscape:connector-curvature="0" />
    <path
       id="path13835"
       d="m 1486.25,947.5 4.95,-5.8 h 0.05 l 6.35,2.5 -4.95,5.85 -6.4,-2.55"
       style="fill:#3aacf7;stroke:none"
       inkscape:connector-curvature="0" />
    <path
       id="path13837"
       d="m 1486.25,947.5 -2.9,3.4 -3.1,2.85 5.15,-6.25 h 0.85 m 4,-5.8 1.05,-1.3 3.35,-2.8 -3.45,4.1 h -0.95 m 10.55,-1.3 3.05,5.9 -3.05,3.6 -3.15,-5.65 -0.05,-0.05 3.2,-3.8 m -11.3,13.35 3.15,-3.7 3.15,5.65 v 0.05 l -3.2,3.65 -3.1,-5.65"
       style="fill:#d5e5e5;stroke:none"
       inkscape:connector-curvature="0" />
    <path
       id="path13839"
       d="m 1500.8,949.9 -0.05,0.05 -4.95,5.75 -3.15,-5.65 4.95,-5.85 0.05,0.05 3.15,5.65 m -9.6,-8.2 -4.95,5.8 h -0.85 l 4.85,-5.8 h 0.95"
       style="fill:#3090d0;stroke:none"
       inkscape:connector-curvature="0" />
    <path
       id="path13841"
       d="m 1501.75,951.8 -4.95,5.8 -1,-1.85 v -0.05 l 4.95,-5.75 1,1.85 m -18.9,-4.3 4.8,-5.8 h 2.6 l -4.85,5.8 h -2.55"
       style="fill:#1f5e87;stroke:none"
       inkscape:connector-curvature="0" />
    <path
       id="path13843"
       d="m 1480.25,953.75 3.1,-2.85 6.15,2.85 3.1,5.65 -3.1,2.8 -6.15,-2.8 -3.1,-5.65"
       style="fill:#b9c6c6;stroke:none"
       inkscape:connector-curvature="0" />
  </symbol>
  <g
     id="layer1">
    <g
       transform="matrix(0.26458333,0,0,0.26458333,-320.90178,-181.89583)"
       id="g14547">
      <use
         xlink:href="#base_blue"
         id="use14549" />
      <use
         xlink:href="#base_blue"
         id="use14542" />
    </g>
  </g>
</svg>
